<svg xmlns="http://www.w3.org/2000/svg" xmlns:xlink="http://www.w3.org/1999/xlink" width="500" zoomAndPan="magnify" viewBox="0 0 375 374.999991" height="500" preserveAspectRatio="xMidYMid meet" version="1.0"><defs><g/><clipPath id="8caf6cf325"><path d="M 192.695312 61.003906 L 291.695312 61.003906 L 291.695312 274 L 192.695312 274 Z M 192.695312 61.003906 " clip-rule="nonzero"/></clipPath><clipPath id="76220429bc"><path d="M 75 210.386719 L 188 210.386719 L 188 305 L 75 305 Z M 75 210.386719 " clip-rule="nonzero"/></clipPath><clipPath id="8cc5366e3e"><path d="M 10.953125 323.125 L 364.203125 323.125 L 364.203125 337.042969 L 10.953125 337.042969 Z M 10.953125 323.125 " clip-rule="nonzero"/></clipPath><clipPath id="8d0aa699aa"><path d="M 37.5 98.875 L 118 98.875 L 118 191 L 37.5 191 Z M 37.5 98.875 " clip-rule="nonzero"/></clipPath></defs><path fill="#e25822" d="M 51.371094 93.96875 C 41.183594 93.949219 30.316406 93.152344 21.527344 98.6875 C 8.296875 107.027344 5.230469 126.96875 9.878906 142.667969 C 14.527344 158.363281 24.921875 171.179688 33.820312 184.601562 C 42.714844 198.019531 50.585938 213.714844 48.933594 230.089844 C 47.855469 240.796875 42.753906 250.78125 42.351562 261.542969 C 41.792969 276.316406 50.390625 290.101562 61.484375 298.867188 C 72.578125 307.632812 85.960938 312.269531 99.085938 316.769531 C 117.015625 322.917969 136.011719 329.125 154.363281 324.632812 C 185.75 316.945312 205.335938 280.644531 236.460938 271.832031 C 257.492188 265.878906 280.390625 273.589844 301.296875 267.152344 C 323.828125 260.214844 340.046875 237.109375 344.386719 212.390625 C 348.730469 187.667969 342.625 161.882812 331.867188 139.535156 C 321.105469 117.183594 305.914062 97.707031 290.847656 78.429688 C 278.285156 62.355469 264.847656 45.605469 246.457031 38.480469 C 224.449219 29.957031 199.429688 36.359375 178.21875 44.601562 C 164.199219 50.050781 152.675781 60.40625 140.019531 68.539062 C 126.457031 77.253906 111.0625 83.585938 95.792969 87.851562 C 81.308594 91.898438 66.34375 94 51.371094 93.96875 " fill-opacity="1" fill-rule="nonzero"/><g clip-path="url(#8caf6cf325)"><path fill="#b3471d" d="M 291.835938 115.507812 C 291.761719 113.640625 290.964844 111.832031 291.457031 109.914062 C 291.609375 109.320312 291.554688 108.65625 291.335938 108.046875 C 291.207031 107.679688 291.171875 107.300781 291.203125 106.925781 C 291.273438 106.027344 290.921875 105.273438 290.433594 104.578125 C 289.128906 102.726562 287.789062 100.914062 285.996094 99.480469 C 284.5625 98.328125 283.316406 96.953125 281.613281 96.144531 C 281.148438 95.925781 280.546875 95.648438 280.417969 95.085938 C 280.292969 94.53125 279.921875 94.339844 279.515625 94.136719 C 279.023438 93.894531 278.578125 93.628906 278.230469 93.171875 C 277.882812 92.71875 277.304688 92.425781 276.785156 92.554688 C 276.050781 92.742188 275.695312 92.363281 275.296875 91.929688 C 274.925781 91.527344 274.488281 91.203125 274.054688 90.871094 C 273.699219 90.597656 273.308594 90.296875 273.308594 89.757812 C 273.308594 88.542969 272.996094 87.359375 273.027344 86.128906 C 273.0625 84.746094 272.914062 83.34375 272.710938 81.988281 C 272.472656 80.355469 272.765625 78.828125 273.105469 77.289062 C 273.539062 75.34375 274.515625 73.636719 275.625 72 C 276.421875 70.828125 276.0625 69.789062 274.734375 69.324219 C 274.421875 69.21875 274.019531 69.285156 273.828125 68.960938 C 273.367188 68.183594 272.691406 67.625 271.878906 67.363281 C 271.105469 67.121094 270.992188 66.09375 270.144531 66.066406 C 269.402344 66.042969 269.246094 65.609375 269.261719 64.988281 C 269.269531 64.652344 269.273438 64.3125 269.226562 63.980469 C 269.136719 63.296875 268.84375 63.027344 268.164062 62.957031 C 267.738281 62.914062 267.335938 63.007812 266.933594 63.160156 C 266.226562 63.421875 265.503906 63.644531 264.78125 63.859375 C 264.128906 64.054688 263.503906 63.949219 263.0625 63.410156 C 262.0625 62.191406 260.625 61.855469 259.226562 61.433594 C 257.910156 61.039062 256.550781 61.25 255.214844 61.140625 C 253.445312 60.996094 251.808594 61.457031 250.191406 62.066406 C 249.3125 62.398438 248.53125 62.871094 247.996094 63.675781 C 247.734375 64.074219 247.410156 64.417969 246.972656 64.582031 C 246.546875 64.742188 246.269531 65.050781 246.023438 65.378906 C 245.445312 66.148438 244.386719 66.625 244.472656 67.820312 C 244.476562 67.878906 244.378906 67.949219 244.320312 68.007812 C 243.15625 69.152344 242.507812 70.585938 241.960938 72.09375 C 241.722656 72.757812 241.246094 73.328125 241.132812 74.050781 C 240.167969 74.621094 240.050781 75.695312 239.621094 76.582031 C 239.535156 76.761719 239.460938 76.964844 239.253906 77.074219 C 238.453125 77.484375 237.820312 78.105469 237.140625 78.675781 C 236.488281 79.222656 235.996094 80.167969 234.875 79.902344 C 234.703125 79.859375 234.519531 80.042969 234.535156 80.203125 C 234.578125 80.667969 234.765625 81.101562 235.054688 81.460938 C 235.289062 81.75 235.492188 81.457031 235.699219 81.347656 C 235.910156 81.238281 236.214844 81.3125 236.289062 81.417969 C 236.851562 82.226562 237.515625 81.882812 238.175781 81.640625 C 238.195312 82.007812 238.605469 82.332031 238.410156 82.679688 C 238.050781 83.328125 237.464844 83.898438 238.152344 84.675781 C 238.183594 84.710938 238.050781 84.882812 238.011719 85 C 237.667969 86.078125 237.433594 87.175781 236.75 88.148438 C 236.515625 88.480469 235.835938 88.839844 236.152344 89.398438 C 236.40625 89.839844 237.097656 89.691406 237.464844 90.105469 C 237.566406 90.347656 237.335938 90.558594 237.332031 90.804688 C 237.332031 91.085938 237.210938 91.433594 237.546875 91.597656 C 237.816406 91.726562 238.121094 91.699219 238.40625 91.570312 C 238.691406 91.441406 238.835938 91.183594 239.027344 90.964844 C 239.179688 90.789062 239.175781 90.445312 239.542969 90.496094 C 239.835938 90.804688 239.652344 91.09375 239.519531 91.40625 C 239.144531 92.28125 239.226562 93.222656 239.164062 94.140625 C 239.140625 94.472656 239.261719 94.746094 239.585938 94.832031 C 239.824219 94.894531 240.089844 94.859375 240.191406 94.539062 C 240.265625 94.3125 240.445312 94.117188 240.625 94.371094 C 241.109375 95.0625 241.40625 94.65625 241.777344 94.261719 C 242.386719 93.617188 242.664062 92.855469 242.636719 91.988281 C 242.632812 91.78125 242.507812 91.535156 242.699219 91.410156 C 243.222656 91.074219 243.386719 90.460938 243.773438 89.9375 C 244.210938 90.6875 243.875 91.21875 243.507812 91.648438 C 242.972656 92.273438 242.9375 92.855469 243.476562 93.4375 C 243.792969 93.78125 243.816406 94.203125 243.59375 94.457031 C 243.234375 94.867188 243.269531 95.300781 243.242188 95.75 C 243.171875 96.964844 242.617188 97.726562 241.410156 98.132812 C 240.203125 98.535156 239.019531 98.824219 237.734375 98.820312 C 235.003906 98.804688 232.304688 99.101562 229.683594 99.953125 C 226.992188 100.824219 224.226562 101.234375 221.390625 101.089844 C 220.671875 101.050781 219.96875 101.125 219.261719 101.289062 C 216.578125 101.910156 213.902344 102.539062 211.230469 103.214844 C 208.636719 103.875 205.976562 104.261719 203.296875 104.351562 C 201.492188 104.414062 199.683594 104.375 197.878906 104.378906 C 196.707031 104.382812 195.527344 104.46875 194.375 104.148438 C 194.09375 104.070312 193.796875 104.042969 193.507812 103.988281 C 193.230469 103.9375 193.003906 104.035156 192.867188 104.273438 C 192.730469 104.511719 192.765625 104.777344 192.941406 104.980469 C 193.101562 105.167969 193.304688 105.320312 193.503906 105.472656 C 194.527344 106.246094 195.648438 106.789062 196.949219 106.882812 C 197.351562 106.910156 197.660156 106.972656 197.71875 107.5 C 197.777344 108.011719 198.195312 108.242188 198.679688 108.371094 C 199.371094 108.558594 200.066406 108.695312 200.792969 108.660156 C 203.523438 108.527344 206.242188 108.828125 208.972656 108.96875 C 209 109.476562 208.683594 109.804688 208.371094 110.132812 C 207.960938 110.554688 207.535156 110.964844 207.128906 111.390625 C 206.691406 111.851562 206.324219 112.371094 206.167969 112.992188 C 206.050781 113.453125 206.070312 113.933594 206.503906 114.257812 C 206.972656 114.609375 207.378906 114.371094 207.761719 114.074219 C 208.425781 113.5625 209.039062 112.988281 209.550781 112.320312 C 210.433594 111.152344 211.617188 110.371094 212.898438 109.714844 C 213.71875 109.289062 214.566406 108.894531 215.238281 108.25 C 215.796875 107.710938 216.5 107.484375 217.1875 107.546875 C 218.402344 107.65625 219.621094 107.539062 220.824219 107.6875 C 223.664062 108.035156 226.527344 107.859375 229.371094 108.140625 C 230.085938 108.214844 230.761719 107.882812 231.488281 107.882812 C 232.703125 107.878906 233.90625 107.671875 235.101562 107.457031 C 236.628906 107.1875 238.152344 106.933594 239.710938 107.332031 C 240.40625 107.507812 241.160156 107.433594 241.800781 107.082031 C 242.785156 106.542969 243.832031 106.652344 244.878906 106.632812 C 245.429688 106.621094 245.636719 106.855469 245.824219 107.394531 C 246.324219 108.835938 246.496094 110.300781 246.601562 111.816406 C 246.660156 112.628906 246.457031 113.09375 245.890625 113.472656 C 244.90625 114.140625 244.070312 114.960938 243.328125 115.875 C 241.648438 117.925781 239.847656 119.851562 237.730469 121.46875 C 236.398438 122.484375 235.171875 123.652344 233.453125 124.007812 C 233.253906 124.050781 233.019531 124.117188 232.882812 124.253906 C 231.933594 125.183594 230.6875 125.035156 229.578125 125.023438 C 227.269531 125.007812 225.132812 124.332031 223.390625 122.695312 C 223.242188 122.554688 223.035156 122.472656 222.859375 122.363281 C 221.65625 121.605469 220.359375 120.980469 219.351562 119.9375 C 219.210938 119.792969 219.007812 119.6875 218.8125 119.613281 C 218.261719 119.402344 217.910156 119.695312 217.988281 120.296875 C 218.074219 120.910156 218.410156 121.414062 218.824219 121.824219 C 219.511719 122.5 220.253906 123.125 221.007812 123.730469 C 222.1875 124.675781 223.429688 125.566406 224.363281 126.761719 C 225.027344 127.617188 225.785156 128.296875 226.734375 128.78125 C 227.449219 129.144531 227.886719 129.710938 228.089844 130.515625 C 227.546875 130.726562 227.054688 130.894531 226.492188 130.9375 C 225.523438 131.011719 224.726562 131.472656 224.203125 132.3125 C 224.019531 132.609375 223.730469 132.957031 224.042969 133.347656 C 224.308594 133.671875 224.636719 133.554688 224.96875 133.453125 C 226.132812 133.097656 227.308594 132.914062 228.542969 132.882812 C 230.996094 132.8125 233.09375 131.792969 234.71875 129.941406 C 236.128906 128.335938 237.761719 127.074219 239.789062 126.371094 C 240.941406 125.972656 242.054688 125.496094 243.136719 124.941406 C 244.816406 124.074219 246.53125 123.28125 248.167969 122.332031 C 249.03125 121.828125 249.363281 121.925781 249.726562 122.820312 C 250.164062 123.898438 250.753906 124.921875 250.898438 126.121094 C 250.964844 126.6875 251.207031 127.214844 251.734375 127.613281 C 253.175781 128.710938 254.660156 129.726562 256.238281 130.617188 C 257.046875 131.070312 257.910156 131.292969 258.785156 131.09375 C 260.140625 130.78125 261.460938 131.148438 262.796875 131.128906 C 263.0625 131.125 263.425781 131.074219 263.449219 131.519531 C 263.460938 131.820312 263.480469 132.230469 263.160156 132.285156 C 262.304688 132.433594 262.101562 133.109375 261.765625 133.734375 C 261.59375 134.046875 261.296875 134.320312 260.921875 134.460938 C 260.648438 134.558594 260.355469 134.667969 260.144531 134.855469 C 258.238281 136.558594 256.40625 138.332031 254.546875 140.085938 C 253.871094 140.722656 253.347656 141.660156 252.28125 141.78125 C 251.511719 141.863281 251.175781 142.300781 251.085938 143.007812 C 250.941406 144.167969 250.386719 145.144531 249.71875 146.070312 C 248.882812 147.234375 248.210938 148.480469 247.71875 149.832031 C 246.585938 152.949219 245.214844 155.941406 242.988281 158.464844 C 242.851562 158.617188 242.65625 158.929688 242.710938 158.996094 C 243.464844 159.96875 242.46875 160.320312 242.050781 160.828125 C 241.648438 161.316406 241.195312 161.757812 240.976562 162.363281 C 240.847656 162.714844 240.851562 163.078125 241.277344 163.179688 C 241.730469 163.289062 241.734375 163.5625 241.738281 163.925781 C 241.738281 165.058594 241.785156 166.195312 241.78125 167.332031 C 241.78125 167.894531 241.589844 168.421875 241.144531 168.785156 C 240.484375 169.324219 240.050781 170.039062 239.550781 170.699219 C 239.003906 171.417969 238.691406 172.253906 238.710938 173.15625 C 238.730469 174.148438 238.503906 175.113281 238.128906 175.972656 C 237.554688 177.292969 237.390625 178.628906 237.421875 180.019531 C 237.449219 181.117188 237.292969 182.21875 237.042969 183.253906 C 236.785156 184.332031 236.703125 185.398438 236.609375 186.480469 C 236.558594 187.074219 236.722656 187.417969 237.386719 187.519531 C 238.339844 187.664062 239.226562 188.050781 240.121094 188.425781 C 240.851562 188.730469 241.523438 189.148438 242.253906 189.453125 C 243.605469 190.011719 245.027344 190.015625 246.464844 190.039062 C 247.757812 190.058594 249.027344 190.332031 250.210938 190.914062 C 250.632812 191.125 250.871094 191.402344 250.792969 191.902344 C 250.496094 193.804688 250.125 195.699219 249.9375 197.609375 C 249.796875 199.074219 249.46875 200.503906 249.265625 201.953125 C 249.078125 203.316406 249.058594 204.695312 248.6875 206.050781 C 247.96875 208.679688 247.523438 211.375 247.527344 214.109375 C 247.527344 215.261719 247.402344 216.367188 247.027344 217.433594 C 246.347656 219.378906 245.894531 221.351562 245.695312 223.417969 C 245.597656 224.460938 245.585938 225.507812 245.457031 226.546875 C 245.269531 228 245.105469 229.457031 245.019531 230.917969 C 244.90625 232.769531 245.070312 234.605469 245.460938 236.421875 C 245.558594 236.878906 245.515625 237.324219 245.339844 237.777344 C 244.886719 238.949219 244.457031 240.128906 244.058594 241.320312 C 243.199219 243.890625 241.992188 246.355469 241.738281 249.113281 C 241.675781 249.828125 241.28125 250.457031 240.875 251.054688 C 240.3125 251.890625 239.761719 252.738281 239.183594 253.566406 C 238.96875 253.871094 238.898438 254.242188 238.609375 254.527344 C 237.523438 255.589844 236.726562 256.890625 235.835938 258.109375 C 235.464844 258.613281 235.371094 259.164062 235.4375 259.78125 C 235.5625 260.910156 235.648438 262.046875 235.730469 263.179688 C 235.789062 263.988281 236.101562 264.613281 236.855469 265.007812 C 237.222656 265.199219 237.582031 265.441406 237.886719 265.726562 C 240.277344 267.96875 242.90625 269.953125 245.140625 272.371094 C 245.441406 272.699219 245.78125 272.894531 246.210938 272.984375 C 248.105469 273.382812 250.019531 273.78125 251.949219 273.816406 C 257.710938 273.929688 263.472656 273.847656 269.234375 273.757812 C 270.402344 273.738281 271.5625 273.800781 272.734375 273.734375 C 273.476562 273.691406 274.242188 273.675781 274.96875 273.558594 C 276.332031 273.335938 276.804688 272.269531 276.230469 271.039062 C 276.089844 270.746094 275.910156 270.5625 275.613281 270.472656 C 274.734375 270.210938 273.871094 269.945312 272.941406 269.8125 C 271.386719 269.589844 269.785156 269.472656 268.382812 268.554688 C 267.644531 268.074219 266.867188 267.683594 266.328125 266.953125 C 266.183594 266.757812 265.960938 266.574219 265.734375 266.496094 C 264.523438 266.066406 263.734375 264.878906 262.519531 264.550781 C 261.007812 264.148438 261.078125 262.59375 260.191406 261.765625 C 259.804688 261.40625 259.699219 260.921875 259.523438 260.449219 C 259.078125 259.273438 259.21875 258.042969 259.082031 256.839844 C 258.808594 254.46875 258.375 252.117188 258.394531 249.714844 C 258.398438 249.339844 258.40625 248.949219 258.332031 248.582031 C 257.957031 246.746094 258.101562 244.890625 258.207031 243.054688 C 258.332031 240.878906 258.675781 238.710938 258.625 236.53125 C 258.597656 235.375 258.855469 234.351562 259.5 233.449219 C 261.351562 230.847656 262.8125 227.996094 264.660156 225.398438 C 265.867188 223.699219 267 221.925781 268.730469 220.667969 C 269.785156 219.902344 270.789062 219.078125 271.757812 218.207031 C 273.1875 216.921875 274.371094 215.421875 274.730469 213.523438 C 274.980469 212.226562 275.535156 210.945312 275.320312 209.566406 C 275.292969 209.410156 275.332031 209.21875 275.402344 209.074219 C 275.875 208.09375 275.914062 207.039062 275.945312 205.988281 C 275.992188 204.441406 276.320312 202.929688 276.40625 201.378906 C 276.484375 200.007812 276.601562 198.53125 277.515625 197.320312 C 277.804688 196.933594 277.699219 196.507812 277.558594 196.019531 C 277.140625 194.546875 277.453125 193.03125 277.523438 191.535156 C 277.527344 191.457031 277.597656 191.382812 277.625 191.304688 C 278.304688 189.359375 278.753906 187.359375 278.859375 185.300781 C 278.90625 184.414062 278.933594 183.535156 279.191406 182.6875 C 279.308594 182.308594 279.394531 181.90625 279.183594 181.589844 C 278.785156 181 278.964844 180.566406 279.417969 180.15625 C 280.199219 179.453125 280.289062 178.671875 280 177.652344 C 279.796875 176.929688 279.457031 176.148438 279.695312 175.332031 C 280.210938 173.605469 280.207031 171.859375 279.957031 170.089844 C 279.8125 169.050781 279.878906 168.042969 280.226562 166.996094 C 280.609375 165.851562 281.257812 164.902344 281.828125 163.882812 C 282.78125 162.160156 283.480469 160.316406 284.605469 158.671875 C 285.242188 157.734375 285.4375 156.585938 285.4375 155.421875 C 285.433594 153.433594 285.964844 151.523438 286.539062 149.652344 C 287.464844 146.632812 288.070312 143.566406 288.199219 140.414062 C 288.242188 139.363281 288.277344 138.328125 288.570312 137.304688 C 289.066406 135.585938 289.171875 133.800781 288.871094 132.0625 C 288.59375 130.472656 288.625 128.886719 288.472656 127.300781 C 288.453125 127.097656 288.421875 126.828125 288.53125 126.683594 C 289.21875 125.765625 289.324219 124.570312 290.027344 123.664062 C 291.003906 122.398438 291.414062 120.917969 291.574219 119.351562 C 291.640625 118.726562 291.675781 118.089844 291.832031 117.484375 C 292 116.808594 291.859375 116.171875 291.832031 115.507812 Z M 291.835938 115.507812 " fill-opacity="1" fill-rule="nonzero"/></g><path fill="#52331e" d="M 12.710938 325.074219 L 44.761719 289.457031 L 330.390625 289.457031 L 362.441406 325.074219 L 215.988281 325.074219 C 211.300781 334.125 200.171875 335.292969 187.578125 335.292969 C 174.980469 335.292969 163.851562 334.125 159.164062 325.074219 L 12.710938 325.074219 " fill-opacity="1" fill-rule="nonzero"/><path fill="#b8ac8d" d="M 180.726562 308.054688 C 180.453125 308.183594 180.183594 308.316406 179.921875 308.457031 C 179.746094 308.550781 179.609375 308.621094 179.480469 308.699219 C 137.519531 290.550781 71.222656 322.257812 22.753906 312.96875 C 23.335938 312.90625 24.003906 312.859375 24.660156 312.808594 C 100.875 307.136719 144.878906 273.945312 180.726562 308.054688 " fill-opacity="1" fill-rule="nonzero"/><path fill="#b8ac8d" d="M 172.882812 314.675781 C 172.667969 314.925781 172.4375 315.183594 172.214844 315.441406 C 172.128906 315.539062 172.046875 315.636719 171.964844 315.734375 C 171.644531 316.101562 171.320312 316.460938 170.992188 316.828125 L 168.53125 316.816406 L 120.195312 317.367188 L 90.933594 319.019531 L 53.089844 322.371094 L 21.214844 321.96875 L 18.308594 320.328125 L 18.105469 320.210938 L 22.042969 319.242188 L 27.992188 317.769531 L 91.683594 311.234375 L 163.210938 307.113281 L 172.882812 314.675781 " fill-opacity="1" fill-rule="nonzero"/><path fill="#fff6e0" d="M 23.222656 320.988281 L 20 316.242188 L 16.539062 320.085938 Z M 23.222656 320.988281 " fill-opacity="1" fill-rule="nonzero"/><path fill="#f0e3c3" d="M 171.964844 315.734375 C 171.644531 316.101562 171.320312 316.460938 170.992188 316.828125 C 169.398438 318.59375 167.671875 320.34375 165.519531 321.875 C 127.371094 313.3125 79.617188 326.054688 15.433594 323.007812 L 16.539062 320.089844 L 18.105469 320.210938 C 18.15625 320.214844 18.210938 320.222656 18.261719 320.222656 C 19.835938 320.339844 21.390625 320.449219 22.917969 320.542969 C 28.773438 320.90625 34.304688 321.09375 39.535156 321.132812 C 102.199219 321.671875 123.808594 301.859375 171.964844 315.734375 " fill-opacity="1" fill-rule="nonzero"/><path fill="#fff6e0" d="M 24.046875 309.328125 L 20.914062 312.808594 C 22.304688 312.933594 23.671875 313.046875 25.019531 313.148438 C 24.238281 313.085938 24.046875 309.328125 24.046875 309.328125 " fill-opacity="1" fill-rule="nonzero"/><path fill="#f0e3c3" d="M 179.878906 308.480469 C 179.746094 308.550781 179.609375 308.621094 179.480469 308.699219 C 176.894531 310.191406 174.917969 312.359375 172.882812 314.675781 C 172.667969 314.925781 172.4375 315.183594 172.214844 315.441406 C 154.964844 308.761719 139.71875 308.601562 123.59375 310.71875 C 100.492188 313.742188 73.96875 321.085938 39.535156 321.132812 C 34.203125 321.140625 28.679688 320.976562 22.949219 320.582031 C 21.402344 320.480469 19.84375 320.363281 18.261719 320.222656 C 18.210938 320.222656 18.15625 320.214844 18.105469 320.210938 L 19.328125 316.988281 L 20.917969 312.808594 C 21.507812 312.859375 22.085938 312.910156 22.675781 312.953125 C 23.464844 313.023438 24.214844 313.082031 24.953125 313.132812 C 99.113281 318.40625 126.769531 277.382812 179.878906 308.480469 " fill-opacity="1" fill-rule="nonzero"/><path fill="#f0e3c3" d="M 187.578125 305.832031 L 185.023438 306.847656 C 183.398438 307.0625 181.992188 307.480469 180.726562 308.054688 C 180.453125 308.183594 180.183594 308.316406 179.921875 308.457031 C 153.914062 290.246094 124.007812 294.097656 103.277344 301.117188 C 84.421875 307.503906 63.199219 315.148438 24.863281 313.082031 C 24.144531 313.042969 23.410156 313 22.675781 312.953125 L 24.042969 309.332031 L 25.480469 305.550781 C 64.957031 309.214844 86.867188 300.222656 106.089844 293.714844 C 128.644531 286.078125 160.136719 281.625 187.578125 305.832031 " fill-opacity="1" fill-rule="nonzero"/><path fill="#fff6e0" d="M 186.695312 266.371094 C 165.257812 247.460938 141.339844 251.160156 123.71875 257.125 C 108.699219 262.210938 91.582031 269.234375 60.738281 266.371094 L 25.480469 305.546875 C 64.960938 309.214844 86.871094 300.222656 106.089844 293.714844 C 128.644531 286.078125 160.136719 281.625 187.578125 305.832031 L 186.695312 266.371094 " fill-opacity="1" fill-rule="nonzero"/><path fill="#ebe3ce" d="M 43.15625 301.550781 C 40.738281 301.550781 38.265625 301.5 35.75 301.390625 L 62.738281 271.40625 C 66.78125 271.722656 70.742188 271.878906 74.546875 271.878906 C 95.773438 271.878906 109.601562 267.113281 121.804688 262.90625 C 122.980469 262.5 124.136719 262.101562 125.28125 261.714844 C 134.363281 258.640625 142.441406 257.144531 149.984375 257.144531 C 162.011719 257.144531 172.449219 260.898438 181.835938 268.605469 L 181.835938 295.613281 C 169.28125 287.03125 155.152344 282.691406 139.707031 282.691406 C 128.824219 282.691406 117.316406 284.796875 104.523438 289.125 C 103.039062 289.628906 101.539062 290.148438 100.015625 290.671875 C 85.222656 295.769531 68.464844 301.550781 43.15625 301.550781 " fill-opacity="1" fill-rule="nonzero"/><path fill="#9f947a" d="M 352.476562 312.953125 C 303.933594 322.257812 237.640625 290.550781 195.679688 308.699219 C 195.550781 308.621094 195.40625 308.550781 195.273438 308.480469 C 194.96875 308.316406 194.699219 308.183594 194.425781 308.054688 C 230.269531 273.945312 274.277344 307.136719 350.492188 312.808594 C 351.148438 312.859375 351.816406 312.90625 352.476562 312.953125 " fill-opacity="1" fill-rule="nonzero"/><path fill="#9f947a" d="M 357.046875 320.210938 L 356.84375 320.328125 L 353.9375 321.96875 L 322.0625 322.371094 L 284.21875 319.019531 L 254.957031 317.367188 L 206.621094 316.816406 L 204.160156 316.828125 C 203.832031 316.460938 203.511719 316.101562 203.1875 315.734375 C 203.105469 315.636719 203.023438 315.539062 202.9375 315.441406 C 202.714844 315.183594 202.484375 314.925781 202.269531 314.675781 L 211.941406 307.113281 L 283.46875 311.234375 L 347.160156 317.769531 L 353.109375 319.242188 L 357.046875 320.210938 " fill-opacity="1" fill-rule="nonzero"/><path fill="#dcd4c1" d="M 358.613281 320.085938 L 355.152344 316.242188 L 351.929688 320.988281 Z M 358.613281 320.085938 " fill-opacity="1" fill-rule="nonzero"/><path fill="#cfc4a8" d="M 359.71875 323.007812 C 295.535156 326.054688 247.78125 313.3125 209.632812 321.875 C 207.480469 320.34375 205.753906 318.59375 204.160156 316.828125 C 203.832031 316.460938 203.511719 316.101562 203.1875 315.734375 C 251.34375 301.859375 272.953125 321.671875 335.617188 321.132812 C 340.851562 321.09375 346.382812 320.90625 352.234375 320.542969 C 353.761719 320.449219 355.316406 320.339844 356.890625 320.222656 C 356.941406 320.222656 356.996094 320.214844 357.046875 320.210938 L 358.613281 320.089844 L 359.71875 323.007812 " fill-opacity="1" fill-rule="nonzero"/><path fill="#dcd4c1" d="M 350.132812 313.148438 C 351.484375 313.046875 352.847656 312.933594 354.238281 312.808594 L 351.105469 309.328125 C 351.105469 309.328125 350.914062 313.085938 350.132812 313.148438 " fill-opacity="1" fill-rule="nonzero"/><path fill="#cfc4a8" d="M 357.046875 320.210938 C 356.996094 320.214844 356.941406 320.222656 356.890625 320.222656 C 355.308594 320.363281 353.75 320.480469 352.203125 320.582031 C 346.472656 320.976562 340.949219 321.140625 335.617188 321.132812 C 301.183594 321.085938 274.660156 313.742188 251.558594 310.71875 C 235.433594 308.601562 220.1875 308.761719 202.9375 315.441406 C 202.714844 315.183594 202.484375 314.925781 202.269531 314.675781 C 200.234375 312.359375 198.261719 310.195312 195.679688 308.699219 C 195.550781 308.621094 195.40625 308.550781 195.273438 308.480469 C 248.382812 277.382812 276.039062 318.40625 350.195312 313.132812 C 350.9375 313.082031 351.6875 313.023438 352.4375 312.957031 C 353.035156 312.910156 353.632812 312.859375 354.238281 312.808594 L 355.824219 316.988281 L 357.046875 320.210938 " fill-opacity="1" fill-rule="nonzero"/><path fill="#cfc4a8" d="M 352.476562 312.953125 C 351.742188 313 351.007812 313.042969 350.289062 313.082031 C 311.953125 315.148438 290.734375 307.503906 271.875 301.117188 C 251.144531 294.097656 221.238281 290.246094 195.234375 308.457031 C 194.96875 308.316406 194.699219 308.183594 194.425781 308.054688 C 193.160156 307.480469 191.753906 307.0625 190.132812 306.847656 L 187.578125 305.832031 C 215.015625 281.625 246.507812 286.078125 269.0625 293.714844 C 288.285156 300.222656 310.195312 309.214844 349.671875 305.550781 L 351.109375 309.332031 L 352.476562 312.953125 " fill-opacity="1" fill-rule="nonzero"/><path fill="#dcd4c1" d="M 188.457031 266.371094 C 209.894531 247.460938 233.8125 251.160156 251.433594 257.125 C 266.453125 262.210938 283.570312 269.234375 314.417969 266.371094 L 349.671875 305.546875 C 310.191406 309.214844 288.28125 300.222656 269.0625 293.714844 C 246.507812 286.078125 215.015625 281.625 187.578125 305.832031 L 188.457031 266.371094 " fill-opacity="1" fill-rule="nonzero"/><path fill="#cbc4b2" d="M 331.996094 301.550781 C 334.414062 301.550781 336.886719 301.5 339.402344 301.390625 L 312.417969 271.40625 C 308.371094 271.722656 304.410156 271.878906 300.605469 271.878906 C 279.378906 271.878906 265.550781 267.113281 253.347656 262.90625 C 252.171875 262.5 251.015625 262.101562 249.871094 261.714844 C 240.789062 258.640625 232.710938 257.144531 225.167969 257.144531 C 213.140625 257.144531 202.703125 260.898438 193.316406 268.605469 L 193.316406 295.613281 C 205.871094 287.03125 220 282.691406 235.445312 282.691406 C 246.328125 282.691406 257.835938 284.796875 270.625 289.125 C 272.113281 289.628906 273.613281 290.148438 275.136719 290.671875 C 289.925781 295.769531 306.691406 301.550781 331.996094 301.550781 " fill-opacity="1" fill-rule="nonzero"/><path fill="#ddd5c2" d="M 187.578125 266.449219 C 172.890625 236.972656 153.460938 239.132812 129.378906 241.292969 C 113.195312 242.746094 94.910156 244.199219 74.554688 236.046875 L 46.152344 267.402344 C 71.847656 277.222656 94.628906 276.3125 114.789062 275.402344 C 144.367188 274.0625 168.3125 272.726562 187.582031 305.289062 L 187.578125 266.449219 " fill-opacity="1" fill-rule="nonzero"/><path fill="#ccc5b3" d="M 182.253906 290.050781 C 167.996094 273.664062 151.332031 269.90625 131.441406 269.90625 C 126.132812 269.90625 120.738281 270.152344 115.023438 270.414062 C 109.015625 270.6875 102.804688 270.96875 96.378906 270.96875 C 85.367188 270.96875 71.054688 270.25 54.878906 265.179688 L 75.972656 241.898438 C 86.410156 245.636719 97.179688 247.386719 109.550781 247.386719 C 143.957031 247.386719 165.816406 235.101562 182.578125 267.597656 L 182.253906 290.050781 " fill-opacity="1" fill-rule="nonzero"/><g clip-path="url(#76220429bc)"><path fill="#f4ebd6" d="M 187.578125 266.449219 C 166.40625 216.253906 125.890625 248.710938 108.035156 210.460938 L 75.097656 226.398438 C 100.875 279.347656 156.917969 235.546875 187.578125 304.988281 L 187.578125 266.449219 " fill-opacity="1" fill-rule="nonzero"/></g><path fill="#e1d9c5" d="M 182.59375 285.6875 C 166.015625 261.738281 144.992188 257.53125 126.0625 253.75 C 108.292969 250.195312 92.78125 247.089844 81.925781 228.617188 L 105.871094 217.03125 C 115.382812 233.117188 129.71875 235.832031 142.480469 238.25 C 157.820312 241.15625 172.324219 243.898438 182.59375 267.464844 L 182.59375 285.6875 " fill-opacity="1" fill-rule="nonzero"/><path fill="#e5e5e5" d="M 322.722656 275.605469 L 314.417969 266.371094 L 322.722656 275.605469 M 300.605469 267.035156 L 300.605469 267.035156 M 300.605469 267.035156 C 304.835938 267.035156 309.363281 266.835938 314.230469 266.390625 C 309.363281 266.835938 304.835938 267.035156 300.605469 267.035156 M 314.351562 266.378906 C 314.375 266.375 314.394531 266.375 314.417969 266.371094 C 314.394531 266.375 314.375 266.375 314.351562 266.378906 " fill-opacity="1" fill-rule="nonzero"/><path fill="#c6bead" d="M 187.589844 305.285156 L 187.589844 305.277344 C 188.964844 302.101562 190.988281 298.78125 193.582031 295.433594 C 200.585938 290.6875 208.074219 287.261719 216.003906 285.160156 C 200.992188 292.15625 192.214844 300.375 187.589844 305.285156 M 322.722656 275.605469 C 320.195312 275.226562 317.714844 274.886719 315.269531 274.578125 L 312.417969 271.40625 C 308.371094 271.722656 304.410156 271.878906 300.605469 271.878906 C 279.378906 271.878906 265.550781 267.113281 253.347656 262.90625 C 252.171875 262.5 251.015625 262.101562 249.871094 261.714844 C 249.253906 261.503906 248.640625 261.300781 248.03125 261.109375 C 250.945312 260.296875 253.929688 259.59375 256.953125 259.019531 C 268.246094 262.890625 281.347656 267.035156 300.605469 267.035156 C 304.835938 267.035156 309.363281 266.835938 314.230469 266.390625 C 314.273438 266.386719 314.3125 266.382812 314.351562 266.378906 C 314.375 266.375 314.394531 266.375 314.417969 266.371094 L 322.722656 275.605469 " fill-opacity="1" fill-rule="nonzero"/><path fill="#b6b0a0" d="M 193.582031 295.433594 C 204.140625 281.808594 224.105469 267.753906 248.03125 261.109375 C 248.640625 261.300781 249.253906 261.503906 249.871094 261.714844 C 251.015625 262.101562 252.171875 262.5 253.347656 262.90625 C 265.550781 267.113281 279.378906 271.878906 300.605469 271.878906 C 304.410156 271.878906 308.371094 271.722656 312.417969 271.40625 L 315.269531 274.578125 C 303.140625 273.058594 292.066406 272.386719 281.960938 272.386719 C 252.320312 272.386719 231.03125 278.160156 216.003906 285.160156 C 208.074219 287.261719 200.585938 290.6875 193.582031 295.433594 " fill-opacity="1" fill-rule="nonzero"/><path fill="#e9e1cd" d="M 186.707031 265.714844 C 195.144531 242.84375 234.996094 211.433594 274.277344 227.652344 L 306.984375 262.210938 C 253.285156 243.914062 198.804688 279.347656 187.582031 305.289062 L 186.707031 265.714844 " fill-opacity="1" fill-rule="nonzero"/><path fill="#d7cfbc" d="M 192.574219 267.558594 C 195.601562 258.789062 203.324219 249.183594 213.390625 241.71875 C 225.1875 232.972656 238.859375 228.152344 251.886719 228.152344 C 258.566406 228.152344 265.128906 229.394531 271.402344 231.847656 L 291.785156 253.386719 C 286.71875 252.601562 281.570312 252.210938 276.375 252.210938 C 256.199219 252.210938 235.140625 258.296875 217.074219 269.351562 C 207.472656 275.226562 199.1875 282.261719 193.0625 289.5625 L 192.574219 267.558594 " fill-opacity="1" fill-rule="nonzero"/><path fill="#d1cab8" d="M 187.578125 304.988281 L 187.578125 271.398438 C 188.871094 262.683594 212.8125 230.015625 245.234375 225.039062 L 250.847656 228.164062 C 238.132812 228.410156 224.871094 233.203125 213.390625 241.71875 C 203.324219 249.183594 195.601562 258.789062 192.574219 267.558594 L 193.0625 289.5625 C 199.1875 282.261719 207.472656 275.226562 217.074219 269.351562 C 219.101562 268.109375 221.171875 266.929688 223.273438 265.816406 C 202.230469 280.621094 188.75 298.226562 187.578125 304.988281 " fill-opacity="1" fill-rule="nonzero"/><path fill="#c1baa9" d="M 193.0625 289.5625 L 192.574219 267.558594 C 195.601562 258.789062 203.324219 249.183594 213.390625 241.71875 C 224.871094 233.203125 238.132812 228.410156 250.847656 228.164062 L 278.140625 243.359375 C 257.148438 246.117188 238.285156 255.25 223.273438 265.816406 C 221.171875 266.929688 219.101562 268.109375 217.074219 269.351562 C 207.472656 275.226562 199.1875 282.261719 193.0625 289.5625 " fill-opacity="1" fill-rule="nonzero"/><path fill="#fff6e0" d="M 187.578125 266.449219 C 188.832031 256.449219 212.066406 218.972656 243.523438 213.261719 L 275.449219 234.28125 C 226.53125 241.871094 189.53125 291.695312 187.578125 304.988281 L 187.578125 266.449219 " fill-opacity="1" fill-rule="nonzero"/><path fill="#ebe3ce" d="M 192.566406 266.765625 C 193.214844 263.234375 198.164062 252.75 207.980469 241.507812 C 218.609375 229.335938 230.792969 221.246094 242.503906 218.539062 L 262.933594 231.992188 C 240.460938 238.515625 222.539062 252.507812 210.847656 263.953125 C 203.5 271.148438 197.484375 278.40625 192.980469 284.933594 L 192.566406 266.765625 " fill-opacity="1" fill-rule="nonzero"/><path fill="#dbb965" d="M 159.164062 326.824219 C 158.425781 326.824219 157.738281 326.359375 157.496094 325.621094 C 157.191406 324.703125 157.691406 323.714844 158.613281 323.410156 C 164.671875 321.421875 167.992188 317.613281 171.203125 313.933594 C 173.582031 311.207031 175.832031 308.628906 179 306.960938 C 179.179688 306.855469 179.464844 306.710938 179.976562 306.472656 C 184.902344 304.242188 191.332031 304.417969 196.019531 306.890625 L 196.5625 307.183594 C 199.574219 308.933594 201.730469 311.398438 204.015625 314.011719 C 207.207031 317.660156 210.507812 321.429688 216.539062 323.410156 C 217.460938 323.714844 217.960938 324.703125 217.65625 325.621094 C 217.355469 326.539062 216.359375 327.039062 215.441406 326.738281 C 208.492188 324.457031 204.707031 320.128906 201.367188 316.316406 C 199.339844 313.996094 197.421875 311.800781 195.011719 310.335938 L 194.78125 310.207031 C 194.675781 310.144531 194.570312 310.089844 194.460938 310.035156 L 194.214844 309.902344 C 190.527344 308.023438 185.304688 307.910156 181.453125 309.648438 C 181.4375 309.65625 181.148438 309.796875 180.9375 309.902344 L 180.691406 310.035156 C 178.078125 311.394531 176.027344 313.742188 173.859375 316.230469 C 170.496094 320.082031 166.691406 324.445312 159.714844 326.738281 C 159.53125 326.796875 159.347656 326.824219 159.164062 326.824219 " fill-opacity="1" fill-rule="nonzero"/><g clip-path="url(#8cc5366e3e)"><path fill="#e06a14" d="M 187.578125 337.042969 C 176.242188 337.042969 163.753906 336.234375 158.128906 326.824219 L 12.707031 326.824219 C 11.738281 326.824219 10.953125 326.042969 10.953125 325.074219 C 10.953125 324.105469 11.738281 323.324219 12.707031 323.324219 L 159.164062 323.324219 C 159.820312 323.324219 160.425781 323.6875 160.726562 324.269531 C 164.722656 331.988281 173.960938 333.542969 187.578125 333.542969 C 201.191406 333.542969 210.429688 331.988281 214.425781 324.269531 C 214.730469 323.6875 215.332031 323.324219 215.988281 323.324219 L 362.441406 323.324219 C 363.414062 323.324219 364.203125 324.105469 364.203125 325.074219 C 364.203125 326.042969 363.414062 326.824219 362.441406 326.824219 L 217.023438 326.824219 C 211.398438 336.234375 198.910156 337.042969 187.578125 337.042969 " fill-opacity="1" fill-rule="nonzero"/></g><g clip-path="url(#8d0aa699aa)"><path fill="#b3471d" d="M 37.835938 162.675781 C 37.835938 162.675781 37.5 160.875 38.4375 159.824219 C 38.4375 159.824219 39.226562 158.757812 40.257812 157.742188 C 40.257812 157.742188 38.71875 152.511719 45.359375 151.742188 C 45.359375 151.742188 48.550781 151.367188 53.050781 154.574219 C 53.050781 154.574219 55.207031 156 57.234375 156.1875 C 57.234375 156.1875 53.59375 153.558594 52.132812 150.445312 C 52.132812 150.445312 51.324219 148.90625 50.914062 148.269531 C 50.914062 148.269531 50.425781 146.695312 52.636719 148.609375 C 52.636719 148.609375 51.550781 141.78125 51.402344 138.535156 C 51.402344 138.535156 49.488281 125.476562 47.347656 119.511719 C 47.347656 119.511719 45.472656 113.132812 45.078125 112.535156 C 45.078125 112.535156 48.773438 111.578125 51.308594 119.8125 C 51.308594 119.8125 49.074219 109.140625 51.605469 112.175781 C 51.605469 112.175781 54.382812 114.355469 54.890625 124.578125 C 54.890625 124.578125 55.191406 125.179688 55.191406 123.546875 C 55.191406 123.546875 54.082031 114.089844 55.714844 114.617188 C 55.714844 114.617188 57.027344 114.464844 58.097656 119.382812 C 58.097656 119.382812 58.734375 116.492188 59.972656 117.769531 C 59.972656 117.769531 61.792969 119.71875 61.285156 121.40625 C 61.285156 121.40625 62.65625 119.585938 63.367188 121.480469 C 63.367188 121.480469 63.96875 122.4375 63.875 124.332031 C 63.875 124.332031 65.449219 122.382812 65.84375 125.328125 C 65.84375 125.328125 65.976562 126.359375 65.769531 126.902344 C 65.769531 126.902344 67.496094 124.894531 67.945312 127.542969 C 67.945312 127.542969 68.078125 128.460938 67.945312 128.855469 C 67.945312 128.855469 70.046875 127.203125 69.539062 131.125 C 69.539062 131.125 72.015625 130.691406 71.339844 134.011719 C 71.339844 134.011719 74.925781 133.65625 72.128906 137.933594 C 72.128906 137.933594 76.105469 137.425781 74.210938 139.699219 C 74.210938 139.699219 76.445312 140.296875 75.355469 141.949219 C 75.355469 141.949219 76.5 141.796875 76.445312 142.511719 C 76.445312 142.511719 77.476562 142.453125 77.121094 143.261719 C 77.121094 143.261719 78.28125 140.277344 81.882812 137.089844 C 81.882812 137.089844 85.785156 133.1875 88.769531 126.980469 C 88.769531 126.980469 93.027344 119.34375 95.203125 113.527344 C 95.203125 113.527344 98.785156 104.375 99.199219 98.914062 C 99.199219 98.914062 103.195312 100.078125 101.429688 109.195312 C 101.429688 109.195312 101.992188 108.949219 103.964844 103.679688 C 103.964844 103.679688 105.425781 99.835938 106.195312 103.625 C 106.195312 103.625 106.550781 107.054688 105.445312 109.4375 C 105.445312 109.4375 108.933594 103.921875 108.070312 112.421875 C 108.070312 112.421875 107.828125 113.847656 106.964844 115.011719 C 106.964844 115.011719 109.199219 111.371094 110.003906 114.148438 C 110.003906 114.148438 110.605469 117.785156 108.933594 119.457031 C 108.933594 119.457031 112.03125 117.488281 110.660156 123.359375 C 110.660156 123.359375 110.003906 124.578125 108.992188 125.273438 C 108.992188 125.273438 112.742188 122.027344 110.246094 128.046875 C 110.246094 128.046875 109.683594 128.855469 109.140625 129.265625 C 109.140625 129.265625 112.6875 127.355469 110.511719 132.195312 C 110.511719 132.195312 109.347656 133.261719 108.277344 133.769531 C 108.277344 133.769531 112.628906 131.6875 110.699219 135.289062 C 110.699219 135.289062 110.453125 136.601562 108.523438 137.257812 C 108.523438 137.257812 112.667969 136.847656 108.878906 141.199219 C 108.878906 141.199219 108.371094 142.210938 106.347656 142.304688 C 106.347656 142.304688 111.109375 141.140625 108.824219 144.632812 C 108.824219 144.632812 107.867188 146.65625 105.183594 146.714844 C 105.183594 146.714844 109.121094 149.753906 105.785156 150.203125 C 105.785156 150.203125 105.183594 150.617188 103.457031 149.847656 C 103.457031 149.847656 107.453125 151.308594 105.21875 153.484375 L 104.113281 153.9375 C 104.113281 153.9375 106.140625 156.207031 103.101562 156.5625 C 103.101562 156.5625 103.511719 158.382812 102.949219 158.886719 C 102.949219 158.886719 101.695312 159.542969 100.417969 159.300781 C 100.417969 159.300781 101.300781 162.265625 99.648438 161.71875 C 99.648438 161.71875 98.804688 161.796875 98.128906 161.609375 C 98.128906 161.609375 98.296875 164.214844 97.640625 164.046875 L 95.351562 164.027344 C 95.351562 164.027344 95.992188 166.222656 94.453125 165.921875 L 92.746094 165.753906 C 92.746094 165.753906 92.785156 167.761719 91.9375 167.40625 C 91.9375 167.40625 90.230469 167.515625 89.726562 167.160156 C 89.726562 167.160156 92.972656 170.519531 94.003906 171.269531 C 94.003906 171.269531 95.785156 172.976562 99.125 173.78125 C 99.125 173.78125 112.066406 176.746094 113.773438 177.609375 C 113.773438 177.609375 118.820312 178.527344 116.738281 182.054688 C 116.738281 182.054688 116.175781 182.730469 115.632812 182.617188 C 115.632812 182.617188 119.121094 185.355469 115.519531 186.875 C 115.519531 186.875 113.585938 187.402344 112.21875 186.089844 C 112.21875 186.089844 114.414062 187.683594 112.40625 189.765625 C 112.40625 189.765625 109.855469 190.984375 108.070312 188.976562 C 108.070312 188.976562 106.328125 192.167969 103.324219 190.460938 C 103.324219 190.460938 102.257812 189.972656 101.917969 188.828125 C 101.917969 188.828125 96.308594 181.34375 93.308594 179.074219 C 93.308594 179.074219 90.007812 180.441406 85.992188 180.179688 C 85.992188 180.179688 79.203125 181.398438 72.222656 179.074219 C 72.222656 179.074219 63.988281 177.027344 58.714844 170.351562 C 58.714844 170.351562 53.296875 165.339844 49.730469 162.566406 C 49.730469 162.566406 48.585938 161.8125 47.273438 161.308594 C 47.273438 161.308594 44.347656 161.496094 41.925781 160.707031 C 41.816406 160.6875 38.625 161.550781 37.835938 162.675781 Z M 37.835938 162.675781 " fill-opacity="1" fill-rule="nonzero"/></g><g fill="#ffffff" fill-opacity="1"><g transform="translate(83.798038, 175.049862)"><g><path d="M 0.65625 0 L 11.6875 -33.34375 L 20.53125 -33.34375 L 31.59375 0 L 24.625 0 L 22.40625 -6.765625 L 9.5625 -6.765625 L 7.390625 0 Z M 11.5 -12.71875 L 20.484375 -12.71875 L 16 -26.5 Z M 11.5 -12.71875 "/></g></g></g><g fill="#ffffff" fill-opacity="1"><g transform="translate(116.007118, 175.049862)"><g><path d="M 19.78125 0 L 19.78125 -13.921875 C 19.78125 -16.554688 19.539062 -18.316406 19.0625 -19.203125 C 18.59375 -20.085938 17.703125 -20.53125 16.390625 -20.53125 C 14.535156 -20.53125 12.304688 -19.304688 9.703125 -16.859375 L 9.703125 0 L 3.5 0 L 3.5 -25.28125 L 9.703125 -25.28125 L 9.703125 -22 C 11.023438 -23.3125 12.429688 -24.304688 13.921875 -24.984375 C 15.421875 -25.660156 16.882812 -26 18.3125 -26 C 20.894531 -26 22.820312 -25.289062 24.09375 -23.875 C 25.363281 -22.457031 26 -20.117188 26 -16.859375 L 26 0 Z M 19.78125 0 "/></g></g></g><g fill="#ffffff" fill-opacity="1"><g transform="translate(145.325331, 175.049862)"><g><path d="M 17.46875 0 C 15.800781 0.5 14.039062 0.75 12.1875 0.75 C 9.269531 0.75 7.164062 0.09375 5.875 -1.21875 C 4.59375 -2.539062 3.953125 -4.679688 3.953125 -7.640625 L 3.953125 -20.328125 L 0.75 -20.328125 L 0.75 -25.28125 L 3.953125 -25.28125 L 3.953125 -32.3125 L 10.171875 -32.3125 L 10.171875 -25.28125 L 16.046875 -25.28125 L 16.046875 -20.328125 L 10.171875 -20.328125 L 10.171875 -8.4375 C 10.171875 -6.863281 10.414062 -5.796875 10.90625 -5.234375 C 11.394531 -4.671875 12.085938 -4.390625 12.984375 -4.390625 C 14.128906 -4.390625 15.265625 -4.617188 16.390625 -5.078125 Z M 17.46875 0 "/></g></g></g><g fill="#ffffff" fill-opacity="1"><g transform="translate(163.128255, 175.049862)"><g><path d="M 10.078125 -32.171875 C 10.078125 -30.992188 9.785156 -30.171875 9.203125 -29.703125 C 8.628906 -29.242188 7.742188 -29.015625 6.546875 -29.015625 C 5.234375 -29.015625 4.335938 -29.285156 3.859375 -29.828125 C 3.390625 -30.367188 3.15625 -31.148438 3.15625 -32.171875 C 3.15625 -33.285156 3.410156 -34.085938 3.921875 -34.578125 C 4.441406 -35.078125 5.316406 -35.328125 6.546875 -35.328125 C 7.804688 -35.328125 8.707031 -35.085938 9.25 -34.609375 C 9.800781 -34.140625 10.078125 -33.328125 10.078125 -32.171875 Z M 3.5 0 L 3.5 -25.28125 L 9.703125 -25.28125 L 9.703125 0 Z M 3.5 0 "/></g></g></g><g fill="#ffffff" fill-opacity="1"><g transform="translate(176.353973, 175.049862)"><g><path d="M 25.796875 -0.484375 C 25.796875 2.890625 24.757812 5.398438 22.6875 7.046875 C 20.625 8.691406 17.300781 9.515625 12.71875 9.515625 C 8.945312 9.515625 5.644531 8.789062 2.8125 7.34375 L 4.65625 2.265625 C 7.269531 3.484375 9.957031 4.09375 12.71875 4.09375 C 15.289062 4.09375 17.078125 3.722656 18.078125 2.984375 C 19.085938 2.242188 19.59375 1 19.59375 -0.75 L 19.59375 -2.8125 C 17.53125 -0.9375 15.046875 0 12.140625 0 C 9.054688 0 6.628906 -1.109375 4.859375 -3.328125 C 3.097656 -5.546875 2.21875 -8.734375 2.21875 -12.890625 C 2.21875 -15.492188 2.628906 -17.785156 3.453125 -19.765625 C 4.285156 -21.753906 5.5 -23.289062 7.09375 -24.375 C 8.695312 -25.457031 10.628906 -26 12.890625 -26 C 14.222656 -26 15.554688 -25.703125 16.890625 -25.109375 C 18.222656 -24.523438 19.335938 -23.785156 20.234375 -22.890625 L 21.0625 -25.28125 L 25.796875 -25.28125 Z M 19.59375 -18.265625 C 17.882812 -19.773438 16.023438 -20.53125 14.015625 -20.53125 C 12.503906 -20.53125 11.226562 -19.835938 10.1875 -18.453125 C 9.144531 -17.078125 8.625 -15.253906 8.625 -12.984375 C 8.625 -10.410156 9.082031 -8.515625 10 -7.296875 C 10.925781 -6.078125 12.128906 -5.46875 13.609375 -5.46875 C 15.671875 -5.46875 17.664062 -6.296875 19.59375 -7.953125 Z M 19.59375 -18.265625 "/></g></g></g><g fill="#ffffff" fill-opacity="1"><g transform="translate(205.672186, 175.049862)"><g><path d="M 26.453125 -12.578125 C 26.453125 -8.367188 25.476562 -5.09375 23.53125 -2.75 C 21.59375 -0.414062 18.535156 0.75 14.359375 0.75 C 6.265625 0.75 2.21875 -3.691406 2.21875 -12.578125 C 2.21875 -16.847656 3.1875 -20.148438 5.125 -22.484375 C 7.070312 -24.828125 10.148438 -26 14.359375 -26 C 18.535156 -26 21.59375 -24.828125 23.53125 -22.484375 C 25.476562 -20.148438 26.453125 -16.847656 26.453125 -12.578125 Z M 20.015625 -12.578125 C 20.015625 -15.359375 19.582031 -17.382812 18.71875 -18.65625 C 17.851562 -19.9375 16.398438 -20.578125 14.359375 -20.578125 C 12.335938 -20.578125 10.875 -19.921875 9.96875 -18.609375 C 9.070312 -17.304688 8.625 -15.296875 8.625 -12.578125 C 8.625 -9.878906 9.066406 -7.890625 9.953125 -6.609375 C 10.847656 -5.335938 12.316406 -4.703125 14.359375 -4.703125 C 16.367188 -4.703125 17.8125 -5.332031 18.6875 -6.59375 C 19.570312 -7.851562 20.015625 -9.847656 20.015625 -12.578125 Z M 20.015625 -12.578125 "/></g></g></g><g fill="#ffffff" fill-opacity="1"><g transform="translate(234.339953, 175.049862)"><g><path d="M 19.78125 0 L 19.78125 -13.921875 C 19.78125 -16.554688 19.539062 -18.316406 19.0625 -19.203125 C 18.59375 -20.085938 17.703125 -20.53125 16.390625 -20.53125 C 14.535156 -20.53125 12.304688 -19.304688 9.703125 -16.859375 L 9.703125 0 L 3.5 0 L 3.5 -25.28125 L 9.703125 -25.28125 L 9.703125 -22 C 11.023438 -23.3125 12.429688 -24.304688 13.921875 -24.984375 C 15.421875 -25.660156 16.882812 -26 18.3125 -26 C 20.894531 -26 22.820312 -25.289062 24.09375 -23.875 C 25.363281 -22.457031 26 -20.117188 26 -16.859375 L 26 0 Z M 19.78125 0 "/></g></g></g><g fill="#ffffff" fill-opacity="1"><g transform="translate(263.658166, 175.049862)"><g><path d="M 8.625 -11.015625 C 8.738281 -8.765625 9.285156 -7.148438 10.265625 -6.171875 C 11.242188 -5.191406 12.785156 -4.703125 14.890625 -4.703125 C 16.109375 -4.703125 17.175781 -4.851562 18.09375 -5.15625 C 19.019531 -5.457031 19.832031 -6.046875 20.53125 -6.921875 L 25.15625 -3.609375 C 24.144531 -2.148438 22.832031 -1.054688 21.21875 -0.328125 C 19.601562 0.390625 17.394531 0.75 14.59375 0.75 C 10.4375 0.75 7.332031 -0.34375 5.28125 -2.53125 C 3.238281 -4.71875 2.21875 -8.019531 2.21875 -12.4375 C 2.21875 -21.476562 6.265625 -26 14.359375 -26 C 17.953125 -26 20.691406 -24.984375 22.578125 -22.953125 C 24.472656 -20.921875 25.421875 -17.960938 25.421875 -14.078125 L 25.421875 -11.015625 Z M 19.25 -15.296875 C 19.25 -19.140625 17.570312 -21.0625 14.21875 -21.0625 C 13.101562 -21.0625 12.191406 -20.867188 11.484375 -20.484375 C 10.785156 -20.109375 10.222656 -19.546875 9.796875 -18.796875 C 9.367188 -18.054688 9.035156 -16.890625 8.796875 -15.296875 Z M 19.25 -15.296875 "/></g></g></g></svg>