<svg xmlns="http://www.w3.org/2000/svg" xmlns:xlink="http://www.w3.org/1999/xlink" width="500" zoomAndPan="magnify" viewBox="0 0 375 374.999991" height="500" preserveAspectRatio="xMidYMid meet" version="1.0"><defs><g/><clipPath id="9df5ab3e8d"><path d="M 29.59375 94.179688 L 145.84375 94.179688 L 145.84375 210.429688 L 29.59375 210.429688 Z M 29.59375 94.179688 " clip-rule="nonzero"/></clipPath><clipPath id="99d4db649c"><path d="M 75 210.386719 L 188 210.386719 L 188 305 L 75 305 Z M 75 210.386719 " clip-rule="nonzero"/></clipPath><clipPath id="d5c526d8a7"><path d="M 10.953125 323.125 L 364.203125 323.125 L 364.203125 337.042969 L 10.953125 337.042969 Z M 10.953125 323.125 " clip-rule="nonzero"/></clipPath><clipPath id="e207bcb88f"><path d="M 170.265625 56 L 211 56 L 211 110 L 170.265625 110 Z M 170.265625 56 " clip-rule="nonzero"/></clipPath><clipPath id="c22b807623"><path d="M 226 44.855469 L 255.765625 44.855469 L 255.765625 84 L 226 84 Z M 226 44.855469 " clip-rule="nonzero"/></clipPath></defs><path fill="#44679f" d="M 51.371094 93.96875 C 41.183594 93.949219 30.316406 93.152344 21.527344 98.6875 C 8.296875 107.027344 5.230469 126.96875 9.878906 142.667969 C 14.527344 158.363281 24.921875 171.179688 33.820312 184.601562 C 42.714844 198.019531 50.585938 213.714844 48.933594 230.089844 C 47.855469 240.796875 42.753906 250.78125 42.351562 261.542969 C 41.792969 276.316406 50.390625 290.101562 61.484375 298.867188 C 72.578125 307.632812 85.960938 312.269531 99.085938 316.769531 C 117.015625 322.917969 136.011719 329.125 154.363281 324.632812 C 185.75 316.945312 205.335938 280.644531 236.460938 271.832031 C 257.492188 265.878906 280.390625 273.589844 301.296875 267.152344 C 323.828125 260.214844 340.046875 237.109375 344.386719 212.390625 C 348.730469 187.667969 342.625 161.882812 331.867188 139.535156 C 321.105469 117.183594 305.914062 97.707031 290.847656 78.429688 C 278.285156 62.355469 264.847656 45.605469 246.457031 38.480469 C 224.449219 29.957031 199.429688 36.359375 178.21875 44.601562 C 164.199219 50.050781 152.675781 60.40625 140.019531 68.539062 C 126.457031 77.253906 111.0625 83.585938 95.792969 87.851562 C 81.308594 91.898438 66.34375 94 51.371094 93.96875 " fill-opacity="1" fill-rule="nonzero"/><g clip-path="url(#9df5ab3e8d)"><path fill="#344e78" d="M 145.796875 152.429688 L 132.574219 138.761719 L 120.261719 138.761719 L 129.59375 129.425781 L 128.945312 111.324219 L 109.921875 111.011719 L 101.214844 119.722656 L 101.214844 106.515625 L 87.953125 94.179688 L 74.285156 107.402344 L 74.285156 119.722656 L 65.738281 111.175781 L 46.523438 111.214844 L 47.078125 130.59375 L 55.246094 138.761719 L 43.164062 138.761719 L 29.59375 152.375 L 43.691406 165.691406 L 55.246094 165.691406 L 46.699219 174.238281 L 46.734375 193.453125 L 66.117188 192.898438 L 74.285156 184.730469 L 74.285156 196.8125 L 87.898438 210.382812 L 101.214844 196.285156 L 101.214844 184.742188 L 110.546875 194.074219 L 128.652344 193.421875 L 128.960938 174.402344 L 120.25 165.691406 L 133.460938 165.691406 Z M 101.214844 125.164062 L 111.492188 114.886719 L 125.230469 115.113281 L 125.691406 127.890625 L 114.820312 138.761719 L 101.214844 138.761719 Z M 78.128906 109.03125 L 88.003906 99.480469 L 97.367188 108.191406 L 97.367188 123.570312 L 87.75 133.1875 L 78.128906 123.570312 Z M 50.878906 128.957031 L 50.480469 115.054688 L 64.148438 115.027344 L 74.285156 125.164062 L 74.285156 138.761719 L 60.6875 138.761719 Z M 45.21875 161.84375 L 35.105469 152.292969 L 44.757812 142.609375 L 59.089844 142.609375 L 68.707031 152.226562 L 59.089844 161.84375 Z M 74.285156 179.289062 L 64.480469 189.097656 L 50.574219 189.496094 L 50.550781 175.828125 L 60.6875 165.691406 L 74.285156 165.691406 Z M 97.367188 194.757812 L 87.816406 204.867188 L 78.128906 195.214844 L 78.128906 180.882812 L 87.746094 171.269531 L 97.367188 180.890625 Z M 97.367188 161.84375 L 97.367188 175.449219 L 87.75 165.824219 L 78.128906 175.445312 L 78.128906 161.84375 L 64.53125 161.84375 L 74.148438 152.226562 L 64.53125 142.609375 L 78.128906 142.609375 L 78.128906 129.011719 L 87.75 138.628906 L 97.367188 129.011719 L 97.367188 142.609375 L 110.96875 142.609375 L 101.347656 152.226562 L 110.964844 161.84375 Z M 125.089844 175.96875 L 124.863281 189.710938 L 112.082031 190.167969 L 101.214844 179.296875 L 101.214844 165.691406 L 114.8125 165.691406 Z M 116.40625 161.84375 L 106.789062 152.226562 L 116.414062 142.609375 L 130.945312 142.609375 L 140.496094 152.484375 L 131.785156 161.84375 Z M 116.40625 161.84375 " fill-opacity="1" fill-rule="nonzero"/></g><path fill="#344e78" d="M 336.617188 209.898438 C 334.527344 207.1875 332.101562 213.679688 331.5625 214.667969 C 329.898438 217.742188 326.933594 220.171875 323.492188 220.652344 C 317.027344 221.558594 317.191406 218.726562 302.128906 209.585938 C 300.378906 208.542969 296.539062 207.019531 295.578125 205.269531 C 295.242188 204.621094 295.550781 203.71875 295.4375 202.785156 C 295.242188 201.207031 294.421875 199.457031 293.632812 197.988281 C 292.390625 195.671875 292.023438 195.984375 288.835938 195.984375 C 284.234375 195.964844 262.613281 198.988281 252.65625 196.828125 C 258.984375 179.261719 261.820312 182.214844 260.898438 172.992188 C 263.515625 172.644531 265.882812 172.417969 268.683594 172.417969 C 269.09375 172.417969 271.078125 164.882812 271.53125 162.941406 C 287.40625 159.527344 285.234375 160.050781 300.742188 150.460938 C 302.324219 149.472656 304.074219 149.472656 305.710938 148.65625 C 308.023438 147.496094 309.183594 145.550781 311.863281 144.957031 C 312.90625 144.730469 313.78125 144.730469 313.980469 143.433594 C 314.234375 141.882812 312.964844 141.457031 312.089844 140.554688 C 310.792969 139.171875 312.398438 138.296875 313.78125 138.917969 C 314.121094 139.058594 314.320312 139.59375 314.601562 139.820312 C 320.789062 145.507812 316.785156 134.976562 312.34375 136.914062 C 298.367188 142.949219 311.066406 141.21875 291.910156 147.835938 C 288.203125 149.097656 283.945312 148.808594 281.101562 151.195312 C 278.242188 153.59375 274.292969 154.417969 272.4375 154.1875 L 272.414062 154.335938 C 271.058594 154.09375 269.699219 153.859375 268.339844 153.621094 C 268.761719 153.15625 269.054688 152.367188 269.359375 151.644531 C 271.277344 152.691406 270.09375 151.644531 271.984375 151.308594 C 272.691406 151.136719 272.4375 151.785156 273.167969 151.703125 C 276.09375 151.363281 276.71875 147.035156 277.375 145.410156 C 278.082031 143.6875 278.335938 142.164062 277.234375 140.667969 C 275.398438 138.15625 273.566406 135.925781 270.941406 134.316406 C 268.539062 132.847656 267.949219 129.660156 265.519531 128.363281 C 262.867188 126.949219 260.78125 129.179688 258.125 129.011719 C 256.6875 128.898438 255.613281 127.628906 254.089844 127.601562 C 252.734375 127.570312 251.523438 128.277344 250.84375 129.433594 C 250.167969 130.535156 250.394531 131.863281 249.039062 132.3125 C 247.996094 132.652344 246.441406 131.636719 245.453125 132.171875 C 243.027344 133.441406 247.089844 136.433594 244.609375 137.730469 C 244.015625 138.042969 243.308594 137.507812 242.972656 138.75 C 242.773438 139.480469 243.195312 140.609375 243.308594 141.316406 C 243.988281 145.46875 241.570312 145.054688 243.5625 148.878906 C 243.902344 149.5 245.511719 151.023438 245.257812 151.675781 C 245.199219 151.84375 243.761719 150.628906 243.621094 151.449219 C 243.578125 151.683594 243.976562 151.9375 244.402344 152.140625 C 244.394531 152.144531 244.386719 152.144531 244.378906 152.148438 C 238.925781 149.890625 240.078125 151.609375 237.496094 151.84375 C 234.867188 152.023438 231.703125 150.035156 229.167969 151.222656 C 228.324219 151.617188 227.730469 152.464844 226.828125 152.492188 C 225.753906 152.519531 224.484375 151.308594 223.523438 150.914062 C 222.914062 150.652344 214.691406 147.546875 211.644531 147.582031 C 207.097656 147.695312 207.40625 146.8125 206.621094 146.058594 C 204.363281 143.855469 201.34375 145.4375 199.847656 147.496094 C 199.28125 148.289062 199.085938 148.992188 198.464844 149.699219 C 197.644531 150.628906 197.136719 150.347656 196.402344 150.742188 C 194.230469 151.957031 194.597656 156.703125 199.027344 155.597656 C 200.324219 155.285156 199.703125 155.230469 200.976562 155.683594 C 202.53125 156.292969 205.332031 156.273438 206.902344 156.050781 C 207.917969 155.90625 208.058594 155.457031 208.765625 155.175781 C 211.136719 154.214844 214.550781 155.003906 216.640625 156.105469 C 223.449219 159.730469 223.371094 161.609375 226.375 161.242188 C 226.207031 162.230469 225.839844 163.160156 225.613281 164.148438 C 225.304688 165.535156 226.023438 171.570312 225.921875 176.878906 C 225.871094 180.835938 224.832031 179.378906 221.210938 184.75 C 220.84375 185.289062 220.023438 185.992188 219.914062 186.644531 C 219.867188 186.933594 221.097656 192.980469 219.628906 195.871094 C 218.519531 198.027344 213.585938 199.226562 216.382812 203.773438 C 216.722656 204.339844 217.175781 205.355469 217.542969 204.140625 C 219.039062 207.226562 219.65625 209.378906 221.179688 208.125 C 221.414062 208.449219 221.652344 208.773438 221.890625 209.097656 C 218.152344 208.183594 216.070312 212.976562 216.441406 216.078125 C 216.808594 219.136719 220.164062 226.375 216.527344 233.71875 C 216.101562 234.59375 211.164062 244.273438 212.121094 244.527344 C 211.726562 244.414062 210.796875 242.976562 210.34375 242.691406 C 209.273438 242.015625 207.523438 241.734375 206.335938 241.367188 C 194.128906 237.519531 204.457031 241.609375 192.648438 236.285156 C 191.605469 235.804688 190.277344 235.664062 189.316406 235.074219 C 187.511719 233.972656 187.34375 231.96875 186.269531 230.304688 C 183.839844 226.621094 178.238281 223.28125 177.210938 223.445312 C 175.574219 223.699219 177.296875 223.613281 176.816406 224.742188 C 174.066406 231.113281 162.835938 227.0625 160.617188 230.246094 C 159.824219 231.375 161.179688 233.578125 162.082031 233.972656 C 163.550781 234.648438 166.007812 233.945312 167.644531 234.28125 C 170.097656 234.789062 172.667969 236.03125 175.007812 236.792969 C 180.535156 238.601562 183.714844 241.703125 192.761719 249.804688 C 195.78125 252.484375 198.828125 252.597656 202.355469 254.347656 C 208.058594 257.171875 209.78125 266.371094 217.738281 262.589844 C 221.097656 260.980469 222.792969 257.085938 225.359375 254.488281 C 229.265625 250.507812 234.238281 240.878906 236.734375 235.917969 C 242.949219 228.667969 244.722656 228.707031 245.78125 222.050781 C 252.460938 219.375 251.378906 219.550781 261.511719 219.550781 C 266.367188 219.550781 270.289062 219.410156 274.863281 217.742188 C 279.632812 215.964844 283.613281 219.746094 288.238281 218.675781 C 290.214844 218.222656 289.480469 216.753906 291.089844 215.824219 C 292.644531 214.949219 294.535156 217.40625 295.917969 218.535156 C 301.9375 223.53125 307.601562 221.660156 315.757812 228.976562 C 321.71875 234.40625 321.835938 232.621094 323.96875 234.449219 C 324.335938 234.761719 324.703125 235.917969 325.097656 236.058594 C 325.890625 236.371094 331.082031 223.726562 331.507812 222.992188 C 333.199219 220.253906 334.863281 219.832031 335.738281 216.613281 C 336.078125 215.429688 337.488281 211.027344 336.613281 209.898438 Z M 336.617188 209.898438 " fill-opacity="1" fill-rule="nonzero"/><path fill="#52331e" d="M 12.710938 325.074219 L 44.761719 289.457031 L 330.390625 289.457031 L 362.441406 325.074219 L 215.988281 325.074219 C 211.300781 334.125 200.171875 335.292969 187.578125 335.292969 C 174.980469 335.292969 163.851562 334.125 159.164062 325.074219 L 12.710938 325.074219 " fill-opacity="1" fill-rule="nonzero"/><path fill="#b8ac8d" d="M 180.726562 308.054688 C 180.453125 308.183594 180.183594 308.316406 179.921875 308.457031 C 179.746094 308.550781 179.609375 308.621094 179.480469 308.699219 C 137.519531 290.550781 71.222656 322.257812 22.753906 312.96875 C 23.335938 312.90625 24.003906 312.859375 24.660156 312.808594 C 100.875 307.136719 144.878906 273.945312 180.726562 308.054688 " fill-opacity="1" fill-rule="nonzero"/><path fill="#b8ac8d" d="M 172.882812 314.675781 C 172.667969 314.925781 172.4375 315.183594 172.214844 315.441406 C 172.128906 315.539062 172.046875 315.636719 171.964844 315.734375 C 171.644531 316.101562 171.320312 316.460938 170.992188 316.828125 L 168.53125 316.816406 L 120.195312 317.367188 L 90.933594 319.019531 L 53.089844 322.371094 L 21.214844 321.96875 L 18.308594 320.328125 L 18.105469 320.210938 L 22.042969 319.242188 L 27.992188 317.769531 L 91.683594 311.234375 L 163.210938 307.113281 L 172.882812 314.675781 " fill-opacity="1" fill-rule="nonzero"/><path fill="#fff6e0" d="M 23.222656 320.988281 L 20 316.242188 L 16.539062 320.085938 Z M 23.222656 320.988281 " fill-opacity="1" fill-rule="nonzero"/><path fill="#f0e3c3" d="M 171.964844 315.734375 C 171.644531 316.101562 171.320312 316.460938 170.992188 316.828125 C 169.398438 318.59375 167.671875 320.34375 165.519531 321.875 C 127.371094 313.3125 79.617188 326.054688 15.433594 323.007812 L 16.539062 320.089844 L 18.105469 320.210938 C 18.15625 320.214844 18.210938 320.222656 18.261719 320.222656 C 19.835938 320.339844 21.390625 320.449219 22.917969 320.542969 C 28.773438 320.90625 34.304688 321.09375 39.535156 321.132812 C 102.199219 321.671875 123.808594 301.859375 171.964844 315.734375 " fill-opacity="1" fill-rule="nonzero"/><path fill="#fff6e0" d="M 24.046875 309.328125 L 20.914062 312.808594 C 22.304688 312.933594 23.671875 313.046875 25.019531 313.148438 C 24.238281 313.085938 24.046875 309.328125 24.046875 309.328125 " fill-opacity="1" fill-rule="nonzero"/><path fill="#f0e3c3" d="M 179.878906 308.480469 C 179.746094 308.550781 179.609375 308.621094 179.480469 308.699219 C 176.894531 310.191406 174.917969 312.359375 172.882812 314.675781 C 172.667969 314.925781 172.4375 315.183594 172.214844 315.441406 C 154.964844 308.761719 139.71875 308.601562 123.59375 310.71875 C 100.492188 313.742188 73.96875 321.085938 39.535156 321.132812 C 34.203125 321.140625 28.679688 320.976562 22.949219 320.582031 C 21.402344 320.480469 19.84375 320.363281 18.261719 320.222656 C 18.210938 320.222656 18.15625 320.214844 18.105469 320.210938 L 19.328125 316.988281 L 20.917969 312.808594 C 21.507812 312.859375 22.085938 312.910156 22.675781 312.953125 C 23.464844 313.023438 24.214844 313.082031 24.953125 313.132812 C 99.113281 318.40625 126.769531 277.382812 179.878906 308.480469 " fill-opacity="1" fill-rule="nonzero"/><path fill="#f0e3c3" d="M 187.578125 305.832031 L 185.023438 306.847656 C 183.398438 307.0625 181.992188 307.480469 180.726562 308.054688 C 180.453125 308.183594 180.183594 308.316406 179.921875 308.457031 C 153.914062 290.246094 124.007812 294.097656 103.277344 301.117188 C 84.421875 307.503906 63.199219 315.148438 24.863281 313.082031 C 24.144531 313.042969 23.410156 313 22.675781 312.953125 L 24.042969 309.332031 L 25.480469 305.550781 C 64.957031 309.214844 86.867188 300.222656 106.089844 293.714844 C 128.644531 286.078125 160.136719 281.625 187.578125 305.832031 " fill-opacity="1" fill-rule="nonzero"/><path fill="#fff6e0" d="M 186.695312 266.371094 C 165.257812 247.460938 141.339844 251.160156 123.71875 257.125 C 108.699219 262.210938 91.582031 269.234375 60.738281 266.371094 L 25.480469 305.546875 C 64.960938 309.214844 86.871094 300.222656 106.089844 293.714844 C 128.644531 286.078125 160.136719 281.625 187.578125 305.832031 L 186.695312 266.371094 " fill-opacity="1" fill-rule="nonzero"/><path fill="#ebe3ce" d="M 43.15625 301.550781 C 40.738281 301.550781 38.265625 301.5 35.75 301.390625 L 62.738281 271.40625 C 66.78125 271.722656 70.742188 271.878906 74.546875 271.878906 C 95.773438 271.878906 109.601562 267.113281 121.804688 262.90625 C 122.980469 262.5 124.136719 262.101562 125.28125 261.714844 C 134.363281 258.640625 142.441406 257.144531 149.984375 257.144531 C 162.011719 257.144531 172.449219 260.898438 181.835938 268.605469 L 181.835938 295.613281 C 169.28125 287.03125 155.152344 282.691406 139.707031 282.691406 C 128.824219 282.691406 117.316406 284.796875 104.523438 289.125 C 103.039062 289.628906 101.539062 290.148438 100.015625 290.671875 C 85.222656 295.769531 68.464844 301.550781 43.15625 301.550781 " fill-opacity="1" fill-rule="nonzero"/><path fill="#9f947a" d="M 352.476562 312.953125 C 303.933594 322.257812 237.640625 290.550781 195.679688 308.699219 C 195.550781 308.621094 195.40625 308.550781 195.273438 308.480469 C 194.96875 308.316406 194.699219 308.183594 194.425781 308.054688 C 230.269531 273.945312 274.277344 307.136719 350.492188 312.808594 C 351.148438 312.859375 351.816406 312.90625 352.476562 312.953125 " fill-opacity="1" fill-rule="nonzero"/><path fill="#9f947a" d="M 357.046875 320.210938 L 356.84375 320.328125 L 353.9375 321.96875 L 322.0625 322.371094 L 284.21875 319.019531 L 254.957031 317.367188 L 206.621094 316.816406 L 204.160156 316.828125 C 203.832031 316.460938 203.511719 316.101562 203.1875 315.734375 C 203.105469 315.636719 203.023438 315.539062 202.9375 315.441406 C 202.714844 315.183594 202.484375 314.925781 202.269531 314.675781 L 211.941406 307.113281 L 283.46875 311.234375 L 347.160156 317.769531 L 353.109375 319.242188 L 357.046875 320.210938 " fill-opacity="1" fill-rule="nonzero"/><path fill="#dcd4c1" d="M 358.613281 320.085938 L 355.152344 316.242188 L 351.929688 320.988281 Z M 358.613281 320.085938 " fill-opacity="1" fill-rule="nonzero"/><path fill="#cfc4a8" d="M 359.71875 323.007812 C 295.535156 326.054688 247.78125 313.3125 209.632812 321.875 C 207.480469 320.34375 205.753906 318.59375 204.160156 316.828125 C 203.832031 316.460938 203.511719 316.101562 203.1875 315.734375 C 251.34375 301.859375 272.953125 321.671875 335.617188 321.132812 C 340.851562 321.09375 346.382812 320.90625 352.234375 320.542969 C 353.761719 320.449219 355.316406 320.339844 356.890625 320.222656 C 356.941406 320.222656 356.996094 320.214844 357.046875 320.210938 L 358.613281 320.089844 L 359.71875 323.007812 " fill-opacity="1" fill-rule="nonzero"/><path fill="#dcd4c1" d="M 350.132812 313.148438 C 351.484375 313.046875 352.847656 312.933594 354.238281 312.808594 L 351.105469 309.328125 C 351.105469 309.328125 350.914062 313.085938 350.132812 313.148438 " fill-opacity="1" fill-rule="nonzero"/><path fill="#cfc4a8" d="M 357.046875 320.210938 C 356.996094 320.214844 356.941406 320.222656 356.890625 320.222656 C 355.308594 320.363281 353.75 320.480469 352.203125 320.582031 C 346.472656 320.976562 340.949219 321.140625 335.617188 321.132812 C 301.183594 321.085938 274.660156 313.742188 251.558594 310.71875 C 235.433594 308.601562 220.1875 308.761719 202.9375 315.441406 C 202.714844 315.183594 202.484375 314.925781 202.269531 314.675781 C 200.234375 312.359375 198.261719 310.195312 195.679688 308.699219 C 195.550781 308.621094 195.40625 308.550781 195.273438 308.480469 C 248.382812 277.382812 276.039062 318.40625 350.195312 313.132812 C 350.9375 313.082031 351.6875 313.023438 352.4375 312.957031 C 353.035156 312.910156 353.632812 312.859375 354.238281 312.808594 L 355.824219 316.988281 L 357.046875 320.210938 " fill-opacity="1" fill-rule="nonzero"/><path fill="#cfc4a8" d="M 352.476562 312.953125 C 351.742188 313 351.007812 313.042969 350.289062 313.082031 C 311.953125 315.148438 290.734375 307.503906 271.875 301.117188 C 251.144531 294.097656 221.238281 290.246094 195.234375 308.457031 C 194.96875 308.316406 194.699219 308.183594 194.425781 308.054688 C 193.160156 307.480469 191.753906 307.0625 190.132812 306.847656 L 187.578125 305.832031 C 215.015625 281.625 246.507812 286.078125 269.0625 293.714844 C 288.285156 300.222656 310.195312 309.214844 349.671875 305.550781 L 351.109375 309.332031 L 352.476562 312.953125 " fill-opacity="1" fill-rule="nonzero"/><path fill="#dcd4c1" d="M 188.457031 266.371094 C 209.894531 247.460938 233.8125 251.160156 251.433594 257.125 C 266.453125 262.210938 283.570312 269.234375 314.417969 266.371094 L 349.671875 305.546875 C 310.191406 309.214844 288.28125 300.222656 269.0625 293.714844 C 246.507812 286.078125 215.015625 281.625 187.578125 305.832031 L 188.457031 266.371094 " fill-opacity="1" fill-rule="nonzero"/><path fill="#cbc4b2" d="M 331.996094 301.550781 C 334.414062 301.550781 336.886719 301.5 339.402344 301.390625 L 312.417969 271.40625 C 308.371094 271.722656 304.410156 271.878906 300.605469 271.878906 C 279.378906 271.878906 265.550781 267.113281 253.347656 262.90625 C 252.171875 262.5 251.015625 262.101562 249.871094 261.714844 C 240.789062 258.640625 232.710938 257.144531 225.167969 257.144531 C 213.140625 257.144531 202.703125 260.898438 193.316406 268.605469 L 193.316406 295.613281 C 205.871094 287.03125 220 282.691406 235.445312 282.691406 C 246.328125 282.691406 257.835938 284.796875 270.625 289.125 C 272.113281 289.628906 273.613281 290.148438 275.136719 290.671875 C 289.925781 295.769531 306.691406 301.550781 331.996094 301.550781 " fill-opacity="1" fill-rule="nonzero"/><path fill="#ddd5c2" d="M 187.578125 266.449219 C 172.890625 236.972656 153.460938 239.132812 129.378906 241.292969 C 113.195312 242.746094 94.910156 244.199219 74.554688 236.046875 L 46.152344 267.402344 C 71.847656 277.222656 94.628906 276.3125 114.789062 275.402344 C 144.367188 274.0625 168.3125 272.726562 187.582031 305.289062 L 187.578125 266.449219 " fill-opacity="1" fill-rule="nonzero"/><path fill="#ccc5b3" d="M 182.253906 290.050781 C 167.996094 273.664062 151.332031 269.90625 131.441406 269.90625 C 126.132812 269.90625 120.738281 270.152344 115.023438 270.414062 C 109.015625 270.6875 102.804688 270.96875 96.378906 270.96875 C 85.367188 270.96875 71.054688 270.25 54.878906 265.179688 L 75.972656 241.898438 C 86.410156 245.636719 97.179688 247.386719 109.550781 247.386719 C 143.957031 247.386719 165.816406 235.101562 182.578125 267.597656 L 182.253906 290.050781 " fill-opacity="1" fill-rule="nonzero"/><g clip-path="url(#99d4db649c)"><path fill="#f4ebd6" d="M 187.578125 266.449219 C 166.40625 216.253906 125.890625 248.710938 108.035156 210.460938 L 75.097656 226.398438 C 100.875 279.347656 156.917969 235.546875 187.578125 304.988281 L 187.578125 266.449219 " fill-opacity="1" fill-rule="nonzero"/></g><path fill="#e1d9c5" d="M 182.59375 285.6875 C 166.015625 261.738281 144.992188 257.53125 126.0625 253.75 C 108.292969 250.195312 92.78125 247.089844 81.925781 228.617188 L 105.871094 217.03125 C 115.382812 233.117188 129.71875 235.832031 142.480469 238.25 C 157.820312 241.15625 172.324219 243.898438 182.59375 267.464844 L 182.59375 285.6875 " fill-opacity="1" fill-rule="nonzero"/><path fill="#e5e5e5" d="M 322.722656 275.605469 L 314.417969 266.371094 L 322.722656 275.605469 M 300.605469 267.035156 L 300.605469 267.035156 M 300.605469 267.035156 C 304.835938 267.035156 309.363281 266.835938 314.230469 266.390625 C 309.363281 266.835938 304.835938 267.035156 300.605469 267.035156 M 314.351562 266.378906 C 314.375 266.375 314.394531 266.375 314.417969 266.371094 C 314.394531 266.375 314.375 266.375 314.351562 266.378906 " fill-opacity="1" fill-rule="nonzero"/><path fill="#c6bead" d="M 187.589844 305.285156 L 187.589844 305.277344 C 188.964844 302.101562 190.988281 298.78125 193.582031 295.433594 C 200.585938 290.6875 208.074219 287.261719 216.003906 285.160156 C 200.992188 292.15625 192.214844 300.375 187.589844 305.285156 M 322.722656 275.605469 C 320.195312 275.226562 317.714844 274.886719 315.269531 274.578125 L 312.417969 271.40625 C 308.371094 271.722656 304.410156 271.878906 300.605469 271.878906 C 279.378906 271.878906 265.550781 267.113281 253.347656 262.90625 C 252.171875 262.5 251.015625 262.101562 249.871094 261.714844 C 249.253906 261.503906 248.640625 261.300781 248.03125 261.109375 C 250.945312 260.296875 253.929688 259.59375 256.953125 259.019531 C 268.246094 262.890625 281.347656 267.035156 300.605469 267.035156 C 304.835938 267.035156 309.363281 266.835938 314.230469 266.390625 C 314.273438 266.386719 314.3125 266.382812 314.351562 266.378906 C 314.375 266.375 314.394531 266.375 314.417969 266.371094 L 322.722656 275.605469 " fill-opacity="1" fill-rule="nonzero"/><path fill="#b6b0a0" d="M 193.582031 295.433594 C 204.140625 281.808594 224.105469 267.753906 248.03125 261.109375 C 248.640625 261.300781 249.253906 261.503906 249.871094 261.714844 C 251.015625 262.101562 252.171875 262.5 253.347656 262.90625 C 265.550781 267.113281 279.378906 271.878906 300.605469 271.878906 C 304.410156 271.878906 308.371094 271.722656 312.417969 271.40625 L 315.269531 274.578125 C 303.140625 273.058594 292.066406 272.386719 281.960938 272.386719 C 252.320312 272.386719 231.03125 278.160156 216.003906 285.160156 C 208.074219 287.261719 200.585938 290.6875 193.582031 295.433594 " fill-opacity="1" fill-rule="nonzero"/><path fill="#e9e1cd" d="M 186.707031 265.714844 C 195.144531 242.84375 234.996094 211.433594 274.277344 227.652344 L 306.984375 262.210938 C 253.285156 243.914062 198.804688 279.347656 187.582031 305.289062 L 186.707031 265.714844 " fill-opacity="1" fill-rule="nonzero"/><path fill="#d7cfbc" d="M 192.574219 267.558594 C 195.601562 258.789062 203.324219 249.183594 213.390625 241.71875 C 225.1875 232.972656 238.859375 228.152344 251.886719 228.152344 C 258.566406 228.152344 265.128906 229.394531 271.402344 231.847656 L 291.785156 253.386719 C 286.71875 252.601562 281.570312 252.210938 276.375 252.210938 C 256.199219 252.210938 235.140625 258.296875 217.074219 269.351562 C 207.472656 275.226562 199.1875 282.261719 193.0625 289.5625 L 192.574219 267.558594 " fill-opacity="1" fill-rule="nonzero"/><path fill="#d1cab8" d="M 187.578125 304.988281 L 187.578125 271.398438 C 188.871094 262.683594 212.8125 230.015625 245.234375 225.039062 L 250.847656 228.164062 C 238.132812 228.410156 224.871094 233.203125 213.390625 241.71875 C 203.324219 249.183594 195.601562 258.789062 192.574219 267.558594 L 193.0625 289.5625 C 199.1875 282.261719 207.472656 275.226562 217.074219 269.351562 C 219.101562 268.109375 221.171875 266.929688 223.273438 265.816406 C 202.230469 280.621094 188.75 298.226562 187.578125 304.988281 " fill-opacity="1" fill-rule="nonzero"/><path fill="#c1baa9" d="M 193.0625 289.5625 L 192.574219 267.558594 C 195.601562 258.789062 203.324219 249.183594 213.390625 241.71875 C 224.871094 233.203125 238.132812 228.410156 250.847656 228.164062 L 278.140625 243.359375 C 257.148438 246.117188 238.285156 255.25 223.273438 265.816406 C 221.171875 266.929688 219.101562 268.109375 217.074219 269.351562 C 207.472656 275.226562 199.1875 282.261719 193.0625 289.5625 " fill-opacity="1" fill-rule="nonzero"/><path fill="#fff6e0" d="M 187.578125 266.449219 C 188.832031 256.449219 212.066406 218.972656 243.523438 213.261719 L 275.449219 234.28125 C 226.53125 241.871094 189.53125 291.695312 187.578125 304.988281 L 187.578125 266.449219 " fill-opacity="1" fill-rule="nonzero"/><path fill="#ebe3ce" d="M 192.566406 266.765625 C 193.214844 263.234375 198.164062 252.75 207.980469 241.507812 C 218.609375 229.335938 230.792969 221.246094 242.503906 218.539062 L 262.933594 231.992188 C 240.460938 238.515625 222.539062 252.507812 210.847656 263.953125 C 203.5 271.148438 197.484375 278.40625 192.980469 284.933594 L 192.566406 266.765625 " fill-opacity="1" fill-rule="nonzero"/><path fill="#dbb965" d="M 159.164062 326.824219 C 158.425781 326.824219 157.738281 326.359375 157.496094 325.621094 C 157.191406 324.703125 157.691406 323.714844 158.613281 323.410156 C 164.671875 321.421875 167.992188 317.613281 171.203125 313.933594 C 173.582031 311.207031 175.832031 308.628906 179 306.960938 C 179.179688 306.855469 179.464844 306.710938 179.976562 306.472656 C 184.902344 304.242188 191.332031 304.417969 196.019531 306.890625 L 196.5625 307.183594 C 199.574219 308.933594 201.730469 311.398438 204.015625 314.011719 C 207.207031 317.660156 210.507812 321.429688 216.539062 323.410156 C 217.460938 323.714844 217.960938 324.703125 217.65625 325.621094 C 217.355469 326.539062 216.359375 327.039062 215.441406 326.738281 C 208.492188 324.457031 204.707031 320.128906 201.367188 316.316406 C 199.339844 313.996094 197.421875 311.800781 195.011719 310.335938 L 194.78125 310.207031 C 194.675781 310.144531 194.570312 310.089844 194.460938 310.035156 L 194.214844 309.902344 C 190.527344 308.023438 185.304688 307.910156 181.453125 309.648438 C 181.4375 309.65625 181.148438 309.796875 180.9375 309.902344 L 180.691406 310.035156 C 178.078125 311.394531 176.027344 313.742188 173.859375 316.230469 C 170.496094 320.082031 166.691406 324.445312 159.714844 326.738281 C 159.53125 326.796875 159.347656 326.824219 159.164062 326.824219 " fill-opacity="1" fill-rule="nonzero"/><g clip-path="url(#d5c526d8a7)"><path fill="#e06a14" d="M 187.578125 337.042969 C 176.242188 337.042969 163.753906 336.234375 158.128906 326.824219 L 12.707031 326.824219 C 11.738281 326.824219 10.953125 326.042969 10.953125 325.074219 C 10.953125 324.105469 11.738281 323.324219 12.707031 323.324219 L 159.164062 323.324219 C 159.820312 323.324219 160.425781 323.6875 160.726562 324.269531 C 164.722656 331.988281 173.960938 333.542969 187.578125 333.542969 C 201.191406 333.542969 210.429688 331.988281 214.425781 324.269531 C 214.730469 323.6875 215.332031 323.324219 215.988281 323.324219 L 362.441406 323.324219 C 363.414062 323.324219 364.203125 324.105469 364.203125 325.074219 C 364.203125 326.042969 363.414062 326.824219 362.441406 326.824219 L 217.023438 326.824219 C 211.398438 336.234375 198.910156 337.042969 187.578125 337.042969 " fill-opacity="1" fill-rule="nonzero"/></g><g clip-path="url(#e207bcb88f)"><path fill="#344e78" d="M 209.527344 81.925781 C 194.363281 81.824219 191.65625 80.019531 191.539062 57.632812 C 191.539062 57.066406 191.078125 56.609375 190.515625 56.609375 C 189.953125 56.609375 189.492188 57.066406 189.492188 57.632812 C 189.375 80.019531 186.667969 81.828125 171.503906 81.925781 C 170.820312 81.929688 170.265625 82.484375 170.265625 83.160156 C 170.265625 83.835938 170.820312 84.390625 171.5 84.394531 C 186.667969 84.496094 189.375 86.304688 189.492188 108.691406 C 189.492188 109.253906 189.953125 109.714844 190.515625 109.714844 C 191.078125 109.714844 191.535156 109.253906 191.539062 108.691406 C 191.652344 86.304688 194.363281 84.496094 209.527344 84.398438 C 210.210938 84.390625 210.761719 83.839844 210.761719 83.164062 C 210.761719 82.484375 210.210938 81.929688 209.527344 81.925781 Z M 209.527344 81.925781 " fill-opacity="1" fill-rule="nonzero"/></g><g clip-path="url(#c22b807623)"><path fill="#344e78" d="M 254.84375 63.378906 C 243.808594 63.304688 241.636719 61.863281 241.554688 45.492188 C 241.550781 45.1875 241.300781 44.9375 240.996094 44.9375 C 240.691406 44.9375 240.441406 45.1875 240.441406 45.492188 C 240.355469 61.863281 238.1875 63.304688 227.148438 63.378906 C 226.757812 63.382812 226.4375 63.699219 226.4375 64.089844 C 226.4375 64.476562 226.757812 64.796875 227.148438 64.796875 C 238.1875 64.871094 240.355469 66.3125 240.441406 82.683594 C 240.441406 82.988281 240.691406 83.238281 240.996094 83.238281 C 241.300781 83.238281 241.550781 82.988281 241.554688 82.683594 C 241.636719 66.3125 243.808594 64.871094 254.84375 64.796875 C 255.238281 64.796875 255.554688 64.476562 255.554688 64.089844 C 255.554688 63.699219 255.238281 63.382812 254.84375 63.378906 Z M 254.84375 63.378906 " fill-opacity="1" fill-rule="nonzero"/></g><path fill="#344e78" d="M 226.171875 92.914062 C 225.476562 94.953125 224.292969 96.476562 222.75 97.304688 C 224.292969 98.132812 225.476562 99.65625 226.171875 101.695312 C 226.867188 99.65625 228.050781 98.132812 229.59375 97.304688 C 228.050781 96.476562 226.867188 94.953125 226.171875 92.914062 Z M 226.171875 92.914062 " fill-opacity="1" fill-rule="nonzero"/><path fill="#344e78" d="M 205.996094 60.300781 C 206.691406 58.261719 207.875 56.734375 209.414062 55.910156 C 207.875 55.082031 206.691406 53.558594 205.996094 51.519531 C 205.300781 53.558594 204.113281 55.082031 202.574219 55.910156 C 204.113281 56.734375 205.300781 58.261719 205.996094 60.300781 Z M 205.996094 60.300781 " fill-opacity="1" fill-rule="nonzero"/><g fill="#ffffff" fill-opacity="1"><g transform="translate(91.135517, 125.490672)"><g><path d="M 3.609375 0 L 3.609375 -33.34375 L 10.40625 -33.34375 L 10.40625 -6.21875 L 24.4375 -6.21875 L 24.4375 0 Z M 3.609375 0 "/></g></g></g><g fill="#ffffff" fill-opacity="1"><g transform="translate(116.14152, 125.490672)"><g><path d="M 18.40625 0 L 18.40625 -2.625 C 15.945312 -0.375 13.3125 0.75 10.5 0.75 C 7.707031 0.75 5.597656 0.015625 4.171875 -1.453125 C 2.742188 -2.921875 2.03125 -4.804688 2.03125 -7.109375 C 2.03125 -8.910156 2.394531 -10.394531 3.125 -11.5625 C 3.851562 -12.738281 4.9375 -13.660156 6.375 -14.328125 C 7.8125 -14.992188 9.878906 -15.460938 12.578125 -15.734375 L 17.90625 -16.234375 L 17.90625 -17.375 C 17.90625 -18.78125 17.476562 -19.742188 16.625 -20.265625 C 15.769531 -20.796875 14.523438 -21.0625 12.890625 -21.0625 C 11.535156 -21.0625 10.375 -20.832031 9.40625 -20.375 C 8.4375 -19.925781 7.71875 -19.285156 7.25 -18.453125 L 2.40625 -21.5625 C 3.257812 -22.988281 4.59375 -24.082031 6.40625 -24.84375 C 8.21875 -25.613281 10.410156 -26 12.984375 -26 C 16.921875 -26 19.757812 -25.3125 21.5 -23.9375 C 23.25 -22.5625 24.125 -20.304688 24.125 -17.171875 L 24.125 0 Z M 17.90625 -11.734375 L 14.75 -11.4375 C 12.507812 -11.25 10.894531 -10.820312 9.90625 -10.15625 C 8.925781 -9.5 8.4375 -8.515625 8.4375 -7.203125 C 8.4375 -6.046875 8.753906 -5.253906 9.390625 -4.828125 C 10.035156 -4.398438 10.890625 -4.1875 11.953125 -4.1875 C 12.703125 -4.1875 13.617188 -4.421875 14.703125 -4.890625 C 15.785156 -5.367188 16.851562 -6.046875 17.90625 -6.921875 Z M 17.90625 -11.734375 "/></g></g></g><g fill="#ffffff" fill-opacity="1"><g transform="translate(143.580669, 125.490672)"><g/></g></g><g fill="#ffffff" fill-opacity="1"><g transform="translate(155.433225, 125.490672)"><g><path d="M 27.078125 -12.8125 C 27.078125 -8.625 26.195312 -5.316406 24.4375 -2.890625 C 22.6875 -0.460938 20.175781 0.75 16.90625 0.75 C 15.625 0.75 14.222656 0.457031 12.703125 -0.125 C 11.191406 -0.71875 9.984375 -1.460938 9.078125 -2.359375 L 8.234375 0 L 3.5 0 L 3.5 -35.875 L 9.703125 -35.875 L 9.703125 -23.25 C 11.984375 -25.082031 14.507812 -26 17.28125 -26 C 20.664062 -26 23.144531 -24.828125 24.71875 -22.484375 C 26.289062 -20.148438 27.078125 -16.925781 27.078125 -12.8125 Z M 20.671875 -12.71875 C 20.671875 -15.320312 20.257812 -17.273438 19.4375 -18.578125 C 18.625 -19.878906 17.3125 -20.53125 15.5 -20.53125 C 14.476562 -20.53125 13.445312 -20.289062 12.40625 -19.8125 C 11.375 -19.34375 10.472656 -18.757812 9.703125 -18.0625 L 9.703125 -7.015625 C 10.398438 -6.421875 11.238281 -5.894531 12.21875 -5.4375 C 13.207031 -4.976562 14.171875 -4.75 15.109375 -4.75 C 16.890625 -4.75 18.257812 -5.425781 19.21875 -6.78125 C 20.1875 -8.132812 20.671875 -10.113281 20.671875 -12.71875 Z M 20.671875 -12.71875 "/></g></g></g><g fill="#ffffff" fill-opacity="1"><g transform="translate(184.751438, 125.490672)"><g><path d="M 26.453125 -12.578125 C 26.453125 -8.367188 25.476562 -5.09375 23.53125 -2.75 C 21.59375 -0.414062 18.535156 0.75 14.359375 0.75 C 6.265625 0.75 2.21875 -3.691406 2.21875 -12.578125 C 2.21875 -16.847656 3.1875 -20.148438 5.125 -22.484375 C 7.070312 -24.828125 10.148438 -26 14.359375 -26 C 18.535156 -26 21.59375 -24.828125 23.53125 -22.484375 C 25.476562 -20.148438 26.453125 -16.847656 26.453125 -12.578125 Z M 20.015625 -12.578125 C 20.015625 -15.359375 19.582031 -17.382812 18.71875 -18.65625 C 17.851562 -19.9375 16.398438 -20.578125 14.359375 -20.578125 C 12.335938 -20.578125 10.875 -19.921875 9.96875 -18.609375 C 9.070312 -17.304688 8.625 -15.296875 8.625 -12.578125 C 8.625 -9.878906 9.066406 -7.890625 9.953125 -6.609375 C 10.847656 -5.335938 12.316406 -4.703125 14.359375 -4.703125 C 16.367188 -4.703125 17.8125 -5.332031 18.6875 -6.59375 C 19.570312 -7.851562 20.015625 -9.847656 20.015625 -12.578125 Z M 20.015625 -12.578125 "/></g></g></g><g fill="#ffffff" fill-opacity="1"><g transform="translate(213.419206, 125.490672)"><g><path d="M 3.5 0 L 3.5 -25.28125 L 9.703125 -25.28125 L 9.703125 0 Z M 10.21875 -29.109375 L 6.703125 -33.296875 L 3.109375 -29.109375 L -1.921875 -29.109375 L 3.734375 -37.796875 L 9.625 -37.796875 L 15.296875 -29.109375 Z M 10.21875 -29.109375 "/></g></g></g><g fill="#ffffff" fill-opacity="1"><g transform="translate(226.644923, 125.490672)"><g><path d="M 17.46875 0 C 15.800781 0.5 14.039062 0.75 12.1875 0.75 C 9.269531 0.75 7.164062 0.09375 5.875 -1.21875 C 4.59375 -2.539062 3.953125 -4.679688 3.953125 -7.640625 L 3.953125 -20.328125 L 0.75 -20.328125 L 0.75 -25.28125 L 3.953125 -25.28125 L 3.953125 -32.3125 L 10.171875 -32.3125 L 10.171875 -25.28125 L 16.046875 -25.28125 L 16.046875 -20.328125 L 10.171875 -20.328125 L 10.171875 -8.4375 C 10.171875 -6.863281 10.414062 -5.796875 10.90625 -5.234375 C 11.394531 -4.671875 12.085938 -4.390625 12.984375 -4.390625 C 14.128906 -4.390625 15.265625 -4.617188 16.390625 -5.078125 Z M 17.46875 0 "/></g></g></g><g fill="#ffffff" fill-opacity="1"><g transform="translate(244.447848, 125.490672)"><g><path d="M 8.625 -11.015625 C 8.738281 -8.765625 9.285156 -7.148438 10.265625 -6.171875 C 11.242188 -5.191406 12.785156 -4.703125 14.890625 -4.703125 C 16.109375 -4.703125 17.175781 -4.851562 18.09375 -5.15625 C 19.019531 -5.457031 19.832031 -6.046875 20.53125 -6.921875 L 25.15625 -3.609375 C 24.144531 -2.148438 22.832031 -1.054688 21.21875 -0.328125 C 19.601562 0.390625 17.394531 0.75 14.59375 0.75 C 10.4375 0.75 7.332031 -0.34375 5.28125 -2.53125 C 3.238281 -4.71875 2.21875 -8.019531 2.21875 -12.4375 C 2.21875 -21.476562 6.265625 -26 14.359375 -26 C 17.953125 -26 20.691406 -24.984375 22.578125 -22.953125 C 24.472656 -20.921875 25.421875 -17.960938 25.421875 -14.078125 L 25.421875 -11.015625 Z M 19.25 -15.296875 C 19.25 -19.140625 17.570312 -21.0625 14.21875 -21.0625 C 13.101562 -21.0625 12.191406 -20.867188 11.484375 -20.484375 C 10.785156 -20.109375 10.222656 -19.546875 9.796875 -18.796875 C 9.367188 -18.054688 9.035156 -16.890625 8.796875 -15.296875 Z M 19.25 -15.296875 "/></g></g></g><g fill="#ffffff" fill-opacity="1"><g transform="translate(271.992399, 125.490672)"><g/></g></g><g fill="#ffffff" fill-opacity="1"><g transform="translate(173.774689, 165.901238)"><g><path d="M 18.40625 0 L 18.40625 -2.625 C 15.945312 -0.375 13.3125 0.75 10.5 0.75 C 7.707031 0.75 5.597656 0.015625 4.171875 -1.453125 C 2.742188 -2.921875 2.03125 -4.804688 2.03125 -7.109375 C 2.03125 -8.910156 2.394531 -10.394531 3.125 -11.5625 C 3.851562 -12.738281 4.9375 -13.660156 6.375 -14.328125 C 7.8125 -14.992188 9.878906 -15.460938 12.578125 -15.734375 L 17.90625 -16.234375 L 17.90625 -17.375 C 17.90625 -18.78125 17.476562 -19.742188 16.625 -20.265625 C 15.769531 -20.796875 14.523438 -21.0625 12.890625 -21.0625 C 11.535156 -21.0625 10.375 -20.832031 9.40625 -20.375 C 8.4375 -19.925781 7.71875 -19.285156 7.25 -18.453125 L 2.40625 -21.5625 C 3.257812 -22.988281 4.59375 -24.082031 6.40625 -24.84375 C 8.21875 -25.613281 10.410156 -26 12.984375 -26 C 16.921875 -26 19.757812 -25.3125 21.5 -23.9375 C 23.25 -22.5625 24.125 -20.304688 24.125 -17.171875 L 24.125 0 Z M 17.90625 -11.734375 L 14.75 -11.4375 C 12.507812 -11.25 10.894531 -10.820312 9.90625 -10.15625 C 8.925781 -9.5 8.4375 -8.515625 8.4375 -7.203125 C 8.4375 -6.046875 8.753906 -5.253906 9.390625 -4.828125 C 10.035156 -4.398438 10.890625 -4.1875 11.953125 -4.1875 C 12.703125 -4.1875 13.617188 -4.421875 14.703125 -4.890625 C 15.785156 -5.367188 16.851562 -6.046875 17.90625 -6.921875 Z M 12.203125 -29.109375 L 5 -37.796875 L 12.578125 -37.796875 L 17.109375 -29.109375 Z M 12.203125 -29.109375 "/></g></g></g><g fill="#ffffff" fill-opacity="1"><g transform="translate(69.787155, 206.311804)"><g><path d="M 33.609375 0 L 33.609375 -14.890625 C 33.609375 -16.378906 33.519531 -17.539062 33.34375 -18.375 C 33.164062 -19.21875 32.894531 -19.785156 32.53125 -20.078125 C 32.175781 -20.378906 31.582031 -20.53125 30.75 -20.53125 C 29.800781 -20.53125 28.796875 -20.175781 27.734375 -19.46875 C 26.671875 -18.757812 25.679688 -17.890625 24.765625 -16.859375 L 24.765625 0 L 18.546875 0 L 18.546875 -14.890625 C 18.546875 -16.523438 18.472656 -17.707031 18.328125 -18.4375 C 18.191406 -19.175781 17.9375 -19.707031 17.5625 -20.03125 C 17.195312 -20.363281 16.570312 -20.53125 15.6875 -20.53125 C 14.914062 -20.53125 14.023438 -20.234375 13.015625 -19.640625 C 12.003906 -19.054688 10.898438 -18.128906 9.703125 -16.859375 L 9.703125 0 L 3.5 0 L 3.5 -25.28125 L 9.703125 -25.28125 L 9.703125 -22 C 10.859375 -23.25 12.070312 -24.226562 13.34375 -24.9375 C 14.613281 -25.644531 16.019531 -26 17.5625 -26 C 19.664062 -26 21.21875 -25.632812 22.21875 -24.90625 C 23.226562 -24.1875 23.914062 -23.117188 24.28125 -21.703125 C 25.726562 -23.148438 27.082031 -24.226562 28.34375 -24.9375 C 29.601562 -25.644531 31.078125 -26 32.765625 -26 C 35.222656 -26 37.015625 -25.300781 38.140625 -23.90625 C 39.265625 -22.507812 39.828125 -20.160156 39.828125 -16.859375 L 39.828125 0 Z M 33.609375 0 "/></g></g></g><g fill="#ffffff" fill-opacity="1"><g transform="translate(112.90926, 206.311804)"><g><path d="M 8.625 -11.015625 C 8.738281 -8.765625 9.285156 -7.148438 10.265625 -6.171875 C 11.242188 -5.191406 12.785156 -4.703125 14.890625 -4.703125 C 16.109375 -4.703125 17.175781 -4.851562 18.09375 -5.15625 C 19.019531 -5.457031 19.832031 -6.046875 20.53125 -6.921875 L 25.15625 -3.609375 C 24.144531 -2.148438 22.832031 -1.054688 21.21875 -0.328125 C 19.601562 0.390625 17.394531 0.75 14.59375 0.75 C 10.4375 0.75 7.332031 -0.34375 5.28125 -2.53125 C 3.238281 -4.71875 2.21875 -8.019531 2.21875 -12.4375 C 2.21875 -21.476562 6.265625 -26 14.359375 -26 C 17.953125 -26 20.691406 -24.984375 22.578125 -22.953125 C 24.472656 -20.921875 25.421875 -17.960938 25.421875 -14.078125 L 25.421875 -11.015625 Z M 19.25 -15.296875 C 19.25 -19.140625 17.570312 -21.0625 14.21875 -21.0625 C 13.101562 -21.0625 12.191406 -20.867188 11.484375 -20.484375 C 10.785156 -20.109375 10.222656 -19.546875 9.796875 -18.796875 C 9.367188 -18.054688 9.035156 -16.890625 8.796875 -15.296875 Z M 19.25 -15.296875 "/></g></g></g><g fill="#ffffff" fill-opacity="1"><g transform="translate(140.444771, 206.311804)"><g><path d="M 18.75 -19.203125 C 18.101562 -19.523438 17.25 -19.6875 16.1875 -19.6875 C 15.03125 -19.6875 13.929688 -19.40625 12.890625 -18.84375 C 11.859375 -18.289062 10.796875 -17.488281 9.703125 -16.4375 L 9.703125 0 L 3.5 0 L 3.5 -25.28125 L 9.703125 -25.28125 L 9.703125 -21.65625 C 10.765625 -22.8125 11.90625 -23.765625 13.125 -24.515625 C 14.351562 -25.273438 15.722656 -25.65625 17.234375 -25.65625 C 18.515625 -25.65625 19.425781 -25.488281 19.96875 -25.15625 Z M 18.75 -19.203125 "/></g></g></g><g fill="#ffffff" fill-opacity="1"><g transform="translate(160.680842, 206.311804)"><g><path d="M 15.34375 0 L 9.609375 0 L 0.65625 -25.28125 L 7.015625 -25.28125 L 12.625 -8.625 L 18.21875 -25.28125 L 24.4375 -25.28125 Z M 15.34375 0 "/></g></g></g><g fill="#ffffff" fill-opacity="1"><g transform="translate(185.735026, 206.311804)"><g><path d="M 8.625 -11.015625 C 8.738281 -8.765625 9.285156 -7.148438 10.265625 -6.171875 C 11.242188 -5.191406 12.785156 -4.703125 14.890625 -4.703125 C 16.109375 -4.703125 17.175781 -4.851562 18.09375 -5.15625 C 19.019531 -5.457031 19.832031 -6.046875 20.53125 -6.921875 L 25.15625 -3.609375 C 24.144531 -2.148438 22.832031 -1.054688 21.21875 -0.328125 C 19.601562 0.390625 17.394531 0.75 14.59375 0.75 C 10.4375 0.75 7.332031 -0.34375 5.28125 -2.53125 C 3.238281 -4.71875 2.21875 -8.019531 2.21875 -12.4375 C 2.21875 -21.476562 6.265625 -26 14.359375 -26 C 17.953125 -26 20.691406 -24.984375 22.578125 -22.953125 C 24.472656 -20.921875 25.421875 -17.960938 25.421875 -14.078125 L 25.421875 -11.015625 Z M 19.25 -15.296875 C 19.25 -19.140625 17.570312 -21.0625 14.21875 -21.0625 C 13.101562 -21.0625 12.191406 -20.867188 11.484375 -20.484375 C 10.785156 -20.109375 10.222656 -19.546875 9.796875 -18.796875 C 9.367188 -18.054688 9.035156 -16.890625 8.796875 -15.296875 Z M 19.25 -15.296875 "/></g></g></g><g fill="#ffffff" fill-opacity="1"><g transform="translate(213.270538, 206.311804)"><g><path d="M 10.078125 -32.171875 C 10.078125 -30.992188 9.785156 -30.171875 9.203125 -29.703125 C 8.628906 -29.242188 7.742188 -29.015625 6.546875 -29.015625 C 5.234375 -29.015625 4.335938 -29.285156 3.859375 -29.828125 C 3.390625 -30.367188 3.15625 -31.148438 3.15625 -32.171875 C 3.15625 -33.285156 3.410156 -34.085938 3.921875 -34.578125 C 4.441406 -35.078125 5.316406 -35.328125 6.546875 -35.328125 C 7.804688 -35.328125 8.707031 -35.085938 9.25 -34.609375 C 9.800781 -34.140625 10.078125 -33.328125 10.078125 -32.171875 Z M 3.5 0 L 3.5 -25.28125 L 9.703125 -25.28125 L 9.703125 0 Z M 3.5 0 "/></g></g></g><g fill="#ffffff" fill-opacity="1"><g transform="translate(226.496256, 206.311804)"><g><path d="M 3.5 0 L 3.5 -35.875 L 9.703125 -35.875 L 9.703125 0 Z M 3.5 0 "/></g></g></g><g fill="#ffffff" fill-opacity="1"><g transform="translate(239.721973, 206.311804)"><g><path d="M 3.5 0 L 3.5 -35.875 L 9.703125 -35.875 L 9.703125 0 Z M 3.5 0 "/></g></g></g><g fill="#ffffff" fill-opacity="1"><g transform="translate(252.947691, 206.311804)"><g><path d="M 8.625 -11.015625 C 8.738281 -8.765625 9.285156 -7.148438 10.265625 -6.171875 C 11.242188 -5.191406 12.785156 -4.703125 14.890625 -4.703125 C 16.109375 -4.703125 17.175781 -4.851562 18.09375 -5.15625 C 19.019531 -5.457031 19.832031 -6.046875 20.53125 -6.921875 L 25.15625 -3.609375 C 24.144531 -2.148438 22.832031 -1.054688 21.21875 -0.328125 C 19.601562 0.390625 17.394531 0.75 14.59375 0.75 C 10.4375 0.75 7.332031 -0.34375 5.28125 -2.53125 C 3.238281 -4.71875 2.21875 -8.019531 2.21875 -12.4375 C 2.21875 -21.476562 6.265625 -26 14.359375 -26 C 17.953125 -26 20.691406 -24.984375 22.578125 -22.953125 C 24.472656 -20.921875 25.421875 -17.960938 25.421875 -14.078125 L 25.421875 -11.015625 Z M 19.25 -15.296875 C 19.25 -19.140625 17.570312 -21.0625 14.21875 -21.0625 C 13.101562 -21.0625 12.191406 -20.867188 11.484375 -20.484375 C 10.785156 -20.109375 10.222656 -19.546875 9.796875 -18.796875 C 9.367188 -18.054688 9.035156 -16.890625 8.796875 -15.296875 Z M 19.25 -15.296875 "/></g></g></g><g fill="#ffffff" fill-opacity="1"><g transform="translate(280.483203, 206.311804)"><g><path d="M 22.796875 -7.203125 C 22.796875 -5.535156 22.375 -4.101562 21.53125 -2.90625 C 20.6875 -1.71875 19.488281 -0.8125 17.9375 -0.1875 C 16.382812 0.4375 14.613281 0.75 12.625 0.75 C 7.34375 0.75 3.742188 -0.71875 1.828125 -3.65625 L 6.453125 -6.921875 C 7.210938 -5.890625 8.082031 -5.203125 9.0625 -4.859375 C 10.050781 -4.515625 11.109375 -4.34375 12.234375 -4.34375 C 15.191406 -4.34375 16.671875 -5.203125 16.671875 -6.921875 C 16.671875 -7.671875 16.253906 -8.25 15.421875 -8.65625 C 14.585938 -9.070312 13.28125 -9.492188 11.5 -9.921875 C 8.132812 -10.660156 5.769531 -11.703125 4.40625 -13.046875 C 3.039062 -14.398438 2.359375 -16.15625 2.359375 -18.3125 C 2.359375 -20.539062 3.210938 -22.378906 4.921875 -23.828125 C 6.640625 -25.273438 9.160156 -26 12.484375 -26 C 14.742188 -26 16.738281 -25.632812 18.46875 -24.90625 C 20.195312 -24.1875 21.523438 -23.101562 22.453125 -21.65625 L 17.8125 -18.359375 C 16.695312 -20.054688 14.890625 -20.90625 12.390625 -20.90625 C 11.097656 -20.90625 10.125 -20.6875 9.46875 -20.25 C 8.8125 -19.8125 8.484375 -19.242188 8.484375 -18.546875 C 8.484375 -17.890625 8.78125 -17.363281 9.375 -16.96875 C 9.96875 -16.582031 11.140625 -16.171875 12.890625 -15.734375 C 15.765625 -15.023438 17.816406 -14.320312 19.046875 -13.625 C 20.273438 -12.925781 21.207031 -12.054688 21.84375 -11.015625 C 22.476562 -9.984375 22.796875 -8.710938 22.796875 -7.203125 Z M 22.796875 -7.203125 "/></g></g></g></svg>