<?xml version="1.0" encoding="utf-8"?>
<!-- Generator: Adobe Illustrator 23.0.5, SVG Export Plug-In . SVG Version: 6.00 Build 0)  -->
<svg version="1.1" id="Calque_1" xmlns="http://www.w3.org/2000/svg" xmlns:xlink="http://www.w3.org/1999/xlink" x="0px" y="0px"
	 viewBox="0 0 412.1 474" style="enable-background:new 0 0 412.1 474;" xml:space="preserve">
<style type="text/css">
	.st0{fill:#E0E0DE;}
	.st1{fill:#555DA7;}
	.st2{fill:#F18960;}
	.st3{clip-path:url(#SVGID_2_);fill:#EA6535;}
	.st4{fill:#010202;}
	.st5{fill:#D3D3D1;}
	.st6{fill:#F5A682;}
	.st7{fill:#FFFFFF;}
	.st8{fill:none;stroke:#B17F4A;stroke-width:13;stroke-miterlimit:10;}
	.st9{fill:#F4B49A;}
	.st10{fill:#E5E5E3;}
</style>
<path class="st0" d="M319.1,474H92.5c-0.8,0-1.5-0.7-1.5-1.5V354.9c0-31.3,25.4-56.7,56.7-56.7h116.3c31.3,0,56.7,25.4,56.7,56.7
	v117.7C320.6,473.4,319.9,474,319.1,474z"/>
<rect x="149" y="329.4" class="st1" width="124.2" height="144.7"/>
<g>
	<g>
		<path id="XMLID_1_" class="st2" d="M208.2,362.1L208.2,362.1c-23.3,0-42.2-18.9-42.2-42.2V218.3c0-23.3,18.9-42.2,42.2-42.2l0,0
			c23.3,0,42.2,18.9,42.2,42.2v101.6C250.4,343.2,231.5,362.1,208.2,362.1z"/>
	</g>
	<g>
		<defs>
			<path id="SVGID_1_" d="M208.2,362.1L208.2,362.1c-23.3,0-42.2-18.9-42.2-42.2V218.3c0-23.3,18.9-42.2,42.2-42.2l0,0
				c23.3,0,42.2,18.9,42.2,42.2v101.6C250.4,343.2,231.5,362.1,208.2,362.1z"/>
		</defs>
		<clipPath id="SVGID_2_">
			<use xlink:href="#SVGID_1_"  style="overflow:visible;"/>
		</clipPath>
		<path class="st3" d="M211.4,320.3H205c-38.3,0-69.3-31-69.3-69.3V78.5c0-38.3,31.1-69.3,69.3-69.3h6.4c38.3,0,69.3,31,69.3,69.3
			v172.5C280.7,289.2,249.7,320.3,211.4,320.3z"/>
	</g>
</g>
<path class="st2" d="M303.7,221.9H112.7c-10.7,0-19.3-8.7-19.3-19.3v-20.2c0-10.7,8.7-19.3,19.3-19.3h190.9
	c10.7,0,19.3,8.7,19.3,19.3v20.2C323,213.2,314.3,221.9,303.7,221.9z"/>
<path class="st4" d="M298,193.8H119.8c-12.2,0-22.1-9.9-22.1-22.1v-49.4c0-21.4,17.4-38.8,38.8-38.8h144.8
	c21.4,0,38.8,17.4,38.8,38.8v49.4C320.1,183.9,310.2,193.8,298,193.8z"/>
<path class="st5" d="M266.3,283.4h5c11.9,0,21.6,9.6,21.6,21.6V474h-48.1V305C244.7,293.1,254.4,283.4,266.3,283.4z"/>
<path class="st5" d="M146.2,283.4h5.7c12.1,0,21.9,9.8,21.9,21.9V474h-49.4V305.3C124.3,293.2,134.1,283.4,146.2,283.4z"/>
<path class="st6" d="M230,304.3h-42.1c-39.9,0-72.2-32.3-72.2-72.2V114c0-39.9,32.3-72.2,72.2-72.2H230c39.9,0,72.2,32.3,72.2,72.2
	v118.1C302.2,271.9,269.8,304.3,230,304.3z"/>
<g>
	<path class="st4" d="M235.6,264.8l-45.8-34.5c-9.2-6.9-10.8-19.7-3.4-28.6l4.2-5c7.4-8.8,20.8-10.4,30-3.4l45.8,34.5
		c9.2,6.9,10.8,19.7,3.4,28.6l-4.2,5C258.3,270.2,244.9,271.7,235.6,264.8z"/>
	<path class="st4" d="M184.7,267.9l41.2-39.9c8.3-8,8.2-20.9-0.2-28.8l-4.8-4.5c-8.4-7.9-21.9-7.7-30.2,0.3L149.5,235
		c-8.3,8-8.2,20.9,0.2,28.8l4.8,4.5C162.8,276.1,176.4,276,184.7,267.9z"/>
</g>
<path class="st6" d="M214.5,230.6h-12.6c-7.8,0-14.1-6.3-14.1-14.1v-23.9c0-7.8,6.3-14.1,14.1-14.1h12.6c7.8,0,14.1,6.3,14.1,14.1
	v23.9C228.6,224.4,222.3,230.6,214.5,230.6z"/>
<path class="st7" d="M171.5,191.8h-7.6c-12.6,0-22.8-10.2-22.8-22.8v-8.7c0-3.3,2.7-6,6-6h41.2c3.3,0,6,2.7,6,6v8.7
	C194.3,181.6,184,191.8,171.5,191.8z"/>
<path class="st4" d="M195.2,161.2h-57c-3.1,0-5.6-2.5-5.6-5.6v-9.1c0-3.1,2.5-5.6,5.6-5.6h57c3.1,0,5.6,2.5,5.6,5.6v9.1
	C200.8,158.7,198.3,161.2,195.2,161.2z"/>
<path class="st4" d="M169.3,181.3h-5.1c-5.9,0-10.7-4.8-10.7-10.7v-16.3H180v16.3C180,176.5,175.2,181.3,169.3,181.3z"/>
<path class="st7" d="M255.8,191.8h-7.6c-12.6,0-22.8-10.2-22.8-22.8v-8.7c0-3.3,2.7-6,6-6h41.2c3.3,0,6,2.7,6,6v8.7
	C278.6,181.6,268.4,191.8,255.8,191.8z"/>
<path class="st4" d="M279.6,161.2h-57c-3.1,0-5.6-2.5-5.6-5.6v-9.1c0-3.1,2.5-5.6,5.6-5.6h57c3.1,0,5.6,2.5,5.6,5.6v9.1
	C285.1,158.7,282.6,161.2,279.6,161.2z"/>
<path class="st4" d="M252.3,181.3h-2.5c-6.6,0-12-5.4-12-12v-15h26.4v15C264.3,175.9,258.9,181.3,252.3,181.3z"/>
<path class="st8" d="M273.2,79.7"/>
<path class="st6" d="M329.8,273.1l-0.7,0.1c-5.1,0.6-9.8-3-10.4-8.1l-6.6-53.6c-0.6-5.1,3-9.8,8.1-10.4l0.7-0.1
	c5.1-0.6,9.8,3,10.4,8.1l6.6,53.6C338.6,267.8,335,272.4,329.8,273.1z"/>
<rect id="XMLID_2_" x="326.9" y="280.5" class="st6" width="42.9" height="89.2"/>
<ellipse class="st6" cx="346.3" cy="273.7" rx="33.4" ry="30.3"/>
<path class="st9" d="M307.8,267.3l1.1-1c3.8-3.5,9.8-3.2,13.2,0.7l18.7,20.7c3.5,3.8,3.2,9.8-0.7,13.2l-1.1,1
	c-3.8,3.5-9.8,3.2-13.2-0.7l-18.7-20.7C303.7,276.7,304,270.7,307.8,267.3z"/>
<path class="st6" d="M354.9,275.4L354.9,275.4c-5-1.3-8-6.5-6.6-11.5l14.5-54.2c1.3-5,6.5-8,11.5-6.6l0,0c5,1.3,8,6.5,6.6,11.5
	l-14.5,54.2C365,273.8,359.9,276.7,354.9,275.4z"/>
<path class="st6" d="M346.6,271.6h-0.7c-5.2,0-9.4-4.2-9.4-9.4v-59c0-5.2,4.2-9.4,9.4-9.4h0.7c5.2,0,9.4,4.2,9.4,9.4v59
	C356,267.4,351.8,271.6,346.6,271.6z"/>
<path class="st9" d="M304.6,276.5l-0.7-2.7c-1.3-5,1.7-10.1,6.8-11.4l23.9-6.1c5-1.3,10.1,1.7,11.4,6.8l0.7,2.7
	c1.3,5-1.7,10.1-6.8,11.4l-23.9,6.1C311,284.5,305.9,281.5,304.6,276.5z"/>
<path class="st10" d="M380.1,339.9h-61.6c-3.1,0-5.7,2.5-5.7,5.7v128.2h73V345.6C385.8,342.4,383.2,339.9,380.1,339.9z"/>
<path class="st6" d="M362.8,290.7l-0.5-0.2c-4.7-2.1-6.8-7.7-4.6-12.4l23.2-51.1c2.1-4.7,7.7-6.8,12.4-4.6l0.5,0.2
	c4.7,2.1,6.8,7.7,4.6,12.4l-23.2,51.1C373,290.8,367.5,292.8,362.8,290.7z"/>
</svg>
