<svg xmlns="http://www.w3.org/2000/svg" xmlns:xlink="http://www.w3.org/1999/xlink" width="500" zoomAndPan="magnify" viewBox="0 0 375 374.999991" height="500" preserveAspectRatio="xMidYMid meet" version="1.0"><defs><g/><clipPath id="723d09a9d2"><path d="M 180.132812 46.332031 L 315.882812 46.332031 L 315.882812 273.582031 L 180.132812 273.582031 Z M 180.132812 46.332031 " clip-rule="nonzero"/></clipPath><clipPath id="4caa032f64"><path d="M 75 210.386719 L 188 210.386719 L 188 305 L 75 305 Z M 75 210.386719 " clip-rule="nonzero"/></clipPath><clipPath id="60bd8591a8"><path d="M 10.953125 323.125 L 364.203125 323.125 L 364.203125 337.042969 L 10.953125 337.042969 Z M 10.953125 323.125 " clip-rule="nonzero"/></clipPath><clipPath id="4fe32fb1f7"><path d="M 47.179688 108.285156 L 118.429688 108.285156 L 118.429688 179.535156 L 47.179688 179.535156 Z M 47.179688 108.285156 " clip-rule="nonzero"/></clipPath></defs><path fill="#5271ff" d="M 51.371094 93.96875 C 41.183594 93.949219 30.316406 93.152344 21.527344 98.6875 C 8.296875 107.027344 5.230469 126.96875 9.878906 142.667969 C 14.527344 158.363281 24.921875 171.179688 33.820312 184.601562 C 42.714844 198.019531 50.585938 213.714844 48.933594 230.089844 C 47.855469 240.796875 42.753906 250.78125 42.351562 261.542969 C 41.792969 276.316406 50.390625 290.101562 61.484375 298.867188 C 72.578125 307.632812 85.960938 312.269531 99.085938 316.769531 C 117.015625 322.917969 136.011719 329.125 154.363281 324.632812 C 185.75 316.945312 205.335938 280.644531 236.460938 271.832031 C 257.492188 265.878906 280.390625 273.589844 301.296875 267.152344 C 323.828125 260.214844 340.046875 237.109375 344.386719 212.390625 C 348.730469 187.667969 342.625 161.882812 331.867188 139.535156 C 321.105469 117.183594 305.914062 97.707031 290.847656 78.429688 C 278.285156 62.355469 264.847656 45.605469 246.457031 38.480469 C 224.449219 29.957031 199.429688 36.359375 178.21875 44.601562 C 164.199219 50.050781 152.675781 60.40625 140.019531 68.539062 C 126.457031 77.253906 111.0625 83.585938 95.792969 87.851562 C 81.308594 91.898438 66.34375 94 51.371094 93.96875 " fill-opacity="1" fill-rule="nonzero"/><g clip-path="url(#723d09a9d2)"><path fill="#364ba8" d="M 282.476562 272.90625 L 316.128906 272.90625 C 301.945312 261.78125 291.101562 245.929688 282.757812 228.40625 L 284.703125 225.90625 L 284.703125 220.0625 L 278.863281 220.0625 C 276.082031 213.390625 273.578125 206.714844 271.355469 199.761719 L 275.804688 195.035156 L 275.804688 189.195312 L 268.292969 189.195312 C 252.71875 134.128906 253 77.394531 253 77.394531 C 253 74.335938 254.945312 73.222656 254.945312 73.222656 L 254.945312 66.269531 L 253.277344 63.488281 L 253.832031 58.761719 L 252.71875 58.761719 L 252.71875 59.871094 L 250.496094 59.871094 L 249.660156 57.925781 L 249.660156 53.753906 L 248.828125 53.199219 L 248.828125 47.636719 L 248.269531 46.800781 L 247.4375 47.636719 L 247.4375 53.199219 L 246.601562 53.753906 L 246.601562 57.925781 L 245.769531 59.871094 L 243.542969 59.871094 L 243.542969 58.761719 L 242.429688 58.761719 L 242.988281 63.488281 L 241.316406 66.269531 L 241.316406 73.222656 C 241.316406 73.222656 242.988281 74.335938 243.265625 76.835938 L 243.265625 77.671875 C 243.265625 77.671875 243.542969 134.40625 227.96875 189.472656 L 220.460938 189.472656 L 220.460938 195.3125 L 224.910156 200.039062 C 222.683594 206.992188 220.179688 213.667969 217.402344 220.34375 L 211.558594 220.34375 L 211.558594 226.183594 L 213.507812 228.6875 C 204.886719 246.484375 194.039062 262.058594 180.132812 273.183594 L 213.785156 273.183594 L 214.339844 273.460938 C 214.339844 273.460938 217.679688 267.621094 222.40625 256.773438 C 227.691406 250.378906 235.753906 244.816406 247.992188 244.816406 C 260.230469 244.816406 268.574219 250.65625 273.578125 256.773438 C 278.308594 267.621094 281.644531 273.460938 281.644531 273.460938 Z M 239.925781 204.488281 C 240.761719 201.429688 241.316406 198.09375 242.152344 194.757812 L 254.667969 194.757812 C 255.5 198.09375 256.058594 201.152344 256.890625 204.488281 C 258.28125 209.496094 259.394531 214.503906 261.0625 219.507812 L 261.0625 219.785156 L 235.753906 219.785156 L 235.753906 219.507812 C 237.144531 214.78125 238.535156 209.496094 239.925781 204.488281 Z M 216.011719 267.898438 C 216.566406 266.230469 217.679688 264.285156 218.789062 262.058594 C 217.679688 264.5625 216.566406 266.230469 216.011719 267.898438 Z M 280.53125 267.898438 C 279.695312 266.230469 278.863281 264.285156 277.75 262.058594 C 279.140625 264.285156 279.976562 266.230469 280.53125 267.898438 Z M 280.53125 267.898438 " fill-opacity="1" fill-rule="nonzero"/></g><path fill="#52331e" d="M 12.710938 325.074219 L 44.761719 289.457031 L 330.390625 289.457031 L 362.441406 325.074219 L 215.988281 325.074219 C 211.300781 334.125 200.171875 335.292969 187.578125 335.292969 C 174.980469 335.292969 163.851562 334.125 159.164062 325.074219 L 12.710938 325.074219 " fill-opacity="1" fill-rule="nonzero"/><path fill="#b8ac8d" d="M 180.726562 308.054688 C 180.453125 308.183594 180.183594 308.316406 179.921875 308.457031 C 179.746094 308.550781 179.609375 308.621094 179.480469 308.699219 C 137.519531 290.550781 71.222656 322.257812 22.753906 312.96875 C 23.335938 312.90625 24.003906 312.859375 24.660156 312.808594 C 100.875 307.136719 144.878906 273.945312 180.726562 308.054688 " fill-opacity="1" fill-rule="nonzero"/><path fill="#b8ac8d" d="M 172.882812 314.675781 C 172.667969 314.925781 172.4375 315.183594 172.214844 315.441406 C 172.128906 315.539062 172.046875 315.636719 171.964844 315.734375 C 171.644531 316.101562 171.320312 316.460938 170.992188 316.828125 L 168.53125 316.816406 L 120.195312 317.367188 L 90.933594 319.019531 L 53.089844 322.371094 L 21.214844 321.96875 L 18.308594 320.328125 L 18.105469 320.210938 L 22.042969 319.242188 L 27.992188 317.769531 L 91.683594 311.234375 L 163.210938 307.113281 L 172.882812 314.675781 " fill-opacity="1" fill-rule="nonzero"/><path fill="#fff6e0" d="M 23.222656 320.988281 L 20 316.242188 L 16.539062 320.085938 Z M 23.222656 320.988281 " fill-opacity="1" fill-rule="nonzero"/><path fill="#f0e3c3" d="M 171.964844 315.734375 C 171.644531 316.101562 171.320312 316.460938 170.992188 316.828125 C 169.398438 318.59375 167.671875 320.34375 165.519531 321.875 C 127.371094 313.3125 79.617188 326.054688 15.433594 323.007812 L 16.539062 320.089844 L 18.105469 320.210938 C 18.15625 320.214844 18.210938 320.222656 18.261719 320.222656 C 19.835938 320.339844 21.390625 320.449219 22.917969 320.542969 C 28.773438 320.90625 34.304688 321.09375 39.535156 321.132812 C 102.199219 321.671875 123.808594 301.859375 171.964844 315.734375 " fill-opacity="1" fill-rule="nonzero"/><path fill="#fff6e0" d="M 24.046875 309.328125 L 20.914062 312.808594 C 22.304688 312.933594 23.671875 313.046875 25.019531 313.148438 C 24.238281 313.085938 24.046875 309.328125 24.046875 309.328125 " fill-opacity="1" fill-rule="nonzero"/><path fill="#f0e3c3" d="M 179.878906 308.480469 C 179.746094 308.550781 179.609375 308.621094 179.480469 308.699219 C 176.894531 310.191406 174.917969 312.359375 172.882812 314.675781 C 172.667969 314.925781 172.4375 315.183594 172.214844 315.441406 C 154.964844 308.761719 139.71875 308.601562 123.59375 310.71875 C 100.492188 313.742188 73.96875 321.085938 39.535156 321.132812 C 34.203125 321.140625 28.679688 320.976562 22.949219 320.582031 C 21.402344 320.480469 19.84375 320.363281 18.261719 320.222656 C 18.210938 320.222656 18.15625 320.214844 18.105469 320.210938 L 19.328125 316.988281 L 20.917969 312.808594 C 21.507812 312.859375 22.085938 312.910156 22.675781 312.953125 C 23.464844 313.023438 24.214844 313.082031 24.953125 313.132812 C 99.113281 318.40625 126.769531 277.382812 179.878906 308.480469 " fill-opacity="1" fill-rule="nonzero"/><path fill="#f0e3c3" d="M 187.578125 305.832031 L 185.023438 306.847656 C 183.398438 307.0625 181.992188 307.480469 180.726562 308.054688 C 180.453125 308.183594 180.183594 308.316406 179.921875 308.457031 C 153.914062 290.246094 124.007812 294.097656 103.277344 301.117188 C 84.421875 307.503906 63.199219 315.148438 24.863281 313.082031 C 24.144531 313.042969 23.410156 313 22.675781 312.953125 L 24.042969 309.332031 L 25.480469 305.550781 C 64.957031 309.214844 86.867188 300.222656 106.089844 293.714844 C 128.644531 286.078125 160.136719 281.625 187.578125 305.832031 " fill-opacity="1" fill-rule="nonzero"/><path fill="#fff6e0" d="M 186.695312 266.371094 C 165.257812 247.460938 141.339844 251.160156 123.71875 257.125 C 108.699219 262.210938 91.582031 269.234375 60.738281 266.371094 L 25.480469 305.546875 C 64.960938 309.214844 86.871094 300.222656 106.089844 293.714844 C 128.644531 286.078125 160.136719 281.625 187.578125 305.832031 L 186.695312 266.371094 " fill-opacity="1" fill-rule="nonzero"/><path fill="#ebe3ce" d="M 43.15625 301.550781 C 40.738281 301.550781 38.265625 301.5 35.75 301.390625 L 62.738281 271.40625 C 66.78125 271.722656 70.742188 271.878906 74.546875 271.878906 C 95.773438 271.878906 109.601562 267.113281 121.804688 262.90625 C 122.980469 262.5 124.136719 262.101562 125.28125 261.714844 C 134.363281 258.640625 142.441406 257.144531 149.984375 257.144531 C 162.011719 257.144531 172.449219 260.898438 181.835938 268.605469 L 181.835938 295.613281 C 169.28125 287.03125 155.152344 282.691406 139.707031 282.691406 C 128.824219 282.691406 117.316406 284.796875 104.523438 289.125 C 103.039062 289.628906 101.539062 290.148438 100.015625 290.671875 C 85.222656 295.769531 68.464844 301.550781 43.15625 301.550781 " fill-opacity="1" fill-rule="nonzero"/><path fill="#9f947a" d="M 352.476562 312.953125 C 303.933594 322.257812 237.640625 290.550781 195.679688 308.699219 C 195.550781 308.621094 195.40625 308.550781 195.273438 308.480469 C 194.96875 308.316406 194.699219 308.183594 194.425781 308.054688 C 230.269531 273.945312 274.277344 307.136719 350.492188 312.808594 C 351.148438 312.859375 351.816406 312.90625 352.476562 312.953125 " fill-opacity="1" fill-rule="nonzero"/><path fill="#9f947a" d="M 357.046875 320.210938 L 356.84375 320.328125 L 353.9375 321.96875 L 322.0625 322.371094 L 284.21875 319.019531 L 254.957031 317.367188 L 206.621094 316.816406 L 204.160156 316.828125 C 203.832031 316.460938 203.511719 316.101562 203.1875 315.734375 C 203.105469 315.636719 203.023438 315.539062 202.9375 315.441406 C 202.714844 315.183594 202.484375 314.925781 202.269531 314.675781 L 211.941406 307.113281 L 283.46875 311.234375 L 347.160156 317.769531 L 353.109375 319.242188 L 357.046875 320.210938 " fill-opacity="1" fill-rule="nonzero"/><path fill="#dcd4c1" d="M 358.613281 320.085938 L 355.152344 316.242188 L 351.929688 320.988281 Z M 358.613281 320.085938 " fill-opacity="1" fill-rule="nonzero"/><path fill="#cfc4a8" d="M 359.71875 323.007812 C 295.535156 326.054688 247.78125 313.3125 209.632812 321.875 C 207.480469 320.34375 205.753906 318.59375 204.160156 316.828125 C 203.832031 316.460938 203.511719 316.101562 203.1875 315.734375 C 251.34375 301.859375 272.953125 321.671875 335.617188 321.132812 C 340.851562 321.09375 346.382812 320.90625 352.234375 320.542969 C 353.761719 320.449219 355.316406 320.339844 356.890625 320.222656 C 356.941406 320.222656 356.996094 320.214844 357.046875 320.210938 L 358.613281 320.089844 L 359.71875 323.007812 " fill-opacity="1" fill-rule="nonzero"/><path fill="#dcd4c1" d="M 350.132812 313.148438 C 351.484375 313.046875 352.847656 312.933594 354.238281 312.808594 L 351.105469 309.328125 C 351.105469 309.328125 350.914062 313.085938 350.132812 313.148438 " fill-opacity="1" fill-rule="nonzero"/><path fill="#cfc4a8" d="M 357.046875 320.210938 C 356.996094 320.214844 356.941406 320.222656 356.890625 320.222656 C 355.308594 320.363281 353.75 320.480469 352.203125 320.582031 C 346.472656 320.976562 340.949219 321.140625 335.617188 321.132812 C 301.183594 321.085938 274.660156 313.742188 251.558594 310.71875 C 235.433594 308.601562 220.1875 308.761719 202.9375 315.441406 C 202.714844 315.183594 202.484375 314.925781 202.269531 314.675781 C 200.234375 312.359375 198.261719 310.195312 195.679688 308.699219 C 195.550781 308.621094 195.40625 308.550781 195.273438 308.480469 C 248.382812 277.382812 276.039062 318.40625 350.195312 313.132812 C 350.9375 313.082031 351.6875 313.023438 352.4375 312.957031 C 353.035156 312.910156 353.632812 312.859375 354.238281 312.808594 L 355.824219 316.988281 L 357.046875 320.210938 " fill-opacity="1" fill-rule="nonzero"/><path fill="#cfc4a8" d="M 352.476562 312.953125 C 351.742188 313 351.007812 313.042969 350.289062 313.082031 C 311.953125 315.148438 290.734375 307.503906 271.875 301.117188 C 251.144531 294.097656 221.238281 290.246094 195.234375 308.457031 C 194.96875 308.316406 194.699219 308.183594 194.425781 308.054688 C 193.160156 307.480469 191.753906 307.0625 190.132812 306.847656 L 187.578125 305.832031 C 215.015625 281.625 246.507812 286.078125 269.0625 293.714844 C 288.285156 300.222656 310.195312 309.214844 349.671875 305.550781 L 351.109375 309.332031 L 352.476562 312.953125 " fill-opacity="1" fill-rule="nonzero"/><path fill="#dcd4c1" d="M 188.457031 266.371094 C 209.894531 247.460938 233.8125 251.160156 251.433594 257.125 C 266.453125 262.210938 283.570312 269.234375 314.417969 266.371094 L 349.671875 305.546875 C 310.191406 309.214844 288.28125 300.222656 269.0625 293.714844 C 246.507812 286.078125 215.015625 281.625 187.578125 305.832031 L 188.457031 266.371094 " fill-opacity="1" fill-rule="nonzero"/><path fill="#cbc4b2" d="M 331.996094 301.550781 C 334.414062 301.550781 336.886719 301.5 339.402344 301.390625 L 312.417969 271.40625 C 308.371094 271.722656 304.410156 271.878906 300.605469 271.878906 C 279.378906 271.878906 265.550781 267.113281 253.347656 262.90625 C 252.171875 262.5 251.015625 262.101562 249.871094 261.714844 C 240.789062 258.640625 232.710938 257.144531 225.167969 257.144531 C 213.140625 257.144531 202.703125 260.898438 193.316406 268.605469 L 193.316406 295.613281 C 205.871094 287.03125 220 282.691406 235.445312 282.691406 C 246.328125 282.691406 257.835938 284.796875 270.625 289.125 C 272.113281 289.628906 273.613281 290.148438 275.136719 290.671875 C 289.925781 295.769531 306.691406 301.550781 331.996094 301.550781 " fill-opacity="1" fill-rule="nonzero"/><path fill="#ddd5c2" d="M 187.578125 266.449219 C 172.890625 236.972656 153.460938 239.132812 129.378906 241.292969 C 113.195312 242.746094 94.910156 244.199219 74.554688 236.046875 L 46.152344 267.402344 C 71.847656 277.222656 94.628906 276.3125 114.789062 275.402344 C 144.367188 274.0625 168.3125 272.726562 187.582031 305.289062 L 187.578125 266.449219 " fill-opacity="1" fill-rule="nonzero"/><path fill="#ccc5b3" d="M 182.253906 290.050781 C 167.996094 273.664062 151.332031 269.90625 131.441406 269.90625 C 126.132812 269.90625 120.738281 270.152344 115.023438 270.414062 C 109.015625 270.6875 102.804688 270.96875 96.378906 270.96875 C 85.367188 270.96875 71.054688 270.25 54.878906 265.179688 L 75.972656 241.898438 C 86.410156 245.636719 97.179688 247.386719 109.550781 247.386719 C 143.957031 247.386719 165.816406 235.101562 182.578125 267.597656 L 182.253906 290.050781 " fill-opacity="1" fill-rule="nonzero"/><g clip-path="url(#4caa032f64)"><path fill="#f4ebd6" d="M 187.578125 266.449219 C 166.40625 216.253906 125.890625 248.710938 108.035156 210.460938 L 75.097656 226.398438 C 100.875 279.347656 156.917969 235.546875 187.578125 304.988281 L 187.578125 266.449219 " fill-opacity="1" fill-rule="nonzero"/></g><path fill="#e1d9c5" d="M 182.59375 285.6875 C 166.015625 261.738281 144.992188 257.53125 126.0625 253.75 C 108.292969 250.195312 92.78125 247.089844 81.925781 228.617188 L 105.871094 217.03125 C 115.382812 233.117188 129.71875 235.832031 142.480469 238.25 C 157.820312 241.15625 172.324219 243.898438 182.59375 267.464844 L 182.59375 285.6875 " fill-opacity="1" fill-rule="nonzero"/><path fill="#e5e5e5" d="M 322.722656 275.605469 L 314.417969 266.371094 L 322.722656 275.605469 M 300.605469 267.035156 L 300.605469 267.035156 M 300.605469 267.035156 C 304.835938 267.035156 309.363281 266.835938 314.230469 266.390625 C 309.363281 266.835938 304.835938 267.035156 300.605469 267.035156 M 314.351562 266.378906 C 314.375 266.375 314.394531 266.375 314.417969 266.371094 C 314.394531 266.375 314.375 266.375 314.351562 266.378906 " fill-opacity="1" fill-rule="nonzero"/><path fill="#c6bead" d="M 187.589844 305.285156 L 187.589844 305.277344 C 188.964844 302.101562 190.988281 298.78125 193.582031 295.433594 C 200.585938 290.6875 208.074219 287.261719 216.003906 285.160156 C 200.992188 292.15625 192.214844 300.375 187.589844 305.285156 M 322.722656 275.605469 C 320.195312 275.226562 317.714844 274.886719 315.269531 274.578125 L 312.417969 271.40625 C 308.371094 271.722656 304.410156 271.878906 300.605469 271.878906 C 279.378906 271.878906 265.550781 267.113281 253.347656 262.90625 C 252.171875 262.5 251.015625 262.101562 249.871094 261.714844 C 249.253906 261.503906 248.640625 261.300781 248.03125 261.109375 C 250.945312 260.296875 253.929688 259.59375 256.953125 259.019531 C 268.246094 262.890625 281.347656 267.035156 300.605469 267.035156 C 304.835938 267.035156 309.363281 266.835938 314.230469 266.390625 C 314.273438 266.386719 314.3125 266.382812 314.351562 266.378906 C 314.375 266.375 314.394531 266.375 314.417969 266.371094 L 322.722656 275.605469 " fill-opacity="1" fill-rule="nonzero"/><path fill="#b6b0a0" d="M 193.582031 295.433594 C 204.140625 281.808594 224.105469 267.753906 248.03125 261.109375 C 248.640625 261.300781 249.253906 261.503906 249.871094 261.714844 C 251.015625 262.101562 252.171875 262.5 253.347656 262.90625 C 265.550781 267.113281 279.378906 271.878906 300.605469 271.878906 C 304.410156 271.878906 308.371094 271.722656 312.417969 271.40625 L 315.269531 274.578125 C 303.140625 273.058594 292.066406 272.386719 281.960938 272.386719 C 252.320312 272.386719 231.03125 278.160156 216.003906 285.160156 C 208.074219 287.261719 200.585938 290.6875 193.582031 295.433594 " fill-opacity="1" fill-rule="nonzero"/><path fill="#e9e1cd" d="M 186.707031 265.714844 C 195.144531 242.84375 234.996094 211.433594 274.277344 227.652344 L 306.984375 262.210938 C 253.285156 243.914062 198.804688 279.347656 187.582031 305.289062 L 186.707031 265.714844 " fill-opacity="1" fill-rule="nonzero"/><path fill="#d7cfbc" d="M 192.574219 267.558594 C 195.601562 258.789062 203.324219 249.183594 213.390625 241.71875 C 225.1875 232.972656 238.859375 228.152344 251.886719 228.152344 C 258.566406 228.152344 265.128906 229.394531 271.402344 231.847656 L 291.785156 253.386719 C 286.71875 252.601562 281.570312 252.210938 276.375 252.210938 C 256.199219 252.210938 235.140625 258.296875 217.074219 269.351562 C 207.472656 275.226562 199.1875 282.261719 193.0625 289.5625 L 192.574219 267.558594 " fill-opacity="1" fill-rule="nonzero"/><path fill="#d1cab8" d="M 187.578125 304.988281 L 187.578125 271.398438 C 188.871094 262.683594 212.8125 230.015625 245.234375 225.039062 L 250.847656 228.164062 C 238.132812 228.410156 224.871094 233.203125 213.390625 241.71875 C 203.324219 249.183594 195.601562 258.789062 192.574219 267.558594 L 193.0625 289.5625 C 199.1875 282.261719 207.472656 275.226562 217.074219 269.351562 C 219.101562 268.109375 221.171875 266.929688 223.273438 265.816406 C 202.230469 280.621094 188.75 298.226562 187.578125 304.988281 " fill-opacity="1" fill-rule="nonzero"/><path fill="#c1baa9" d="M 193.0625 289.5625 L 192.574219 267.558594 C 195.601562 258.789062 203.324219 249.183594 213.390625 241.71875 C 224.871094 233.203125 238.132812 228.410156 250.847656 228.164062 L 278.140625 243.359375 C 257.148438 246.117188 238.285156 255.25 223.273438 265.816406 C 221.171875 266.929688 219.101562 268.109375 217.074219 269.351562 C 207.472656 275.226562 199.1875 282.261719 193.0625 289.5625 " fill-opacity="1" fill-rule="nonzero"/><path fill="#fff6e0" d="M 187.578125 266.449219 C 188.832031 256.449219 212.066406 218.972656 243.523438 213.261719 L 275.449219 234.28125 C 226.53125 241.871094 189.53125 291.695312 187.578125 304.988281 L 187.578125 266.449219 " fill-opacity="1" fill-rule="nonzero"/><path fill="#ebe3ce" d="M 192.566406 266.765625 C 193.214844 263.234375 198.164062 252.75 207.980469 241.507812 C 218.609375 229.335938 230.792969 221.246094 242.503906 218.539062 L 262.933594 231.992188 C 240.460938 238.515625 222.539062 252.507812 210.847656 263.953125 C 203.5 271.148438 197.484375 278.40625 192.980469 284.933594 L 192.566406 266.765625 " fill-opacity="1" fill-rule="nonzero"/><path fill="#dbb965" d="M 159.164062 326.824219 C 158.425781 326.824219 157.738281 326.359375 157.496094 325.621094 C 157.191406 324.703125 157.691406 323.714844 158.613281 323.410156 C 164.671875 321.421875 167.992188 317.613281 171.203125 313.933594 C 173.582031 311.207031 175.832031 308.628906 179 306.960938 C 179.179688 306.855469 179.464844 306.710938 179.976562 306.472656 C 184.902344 304.242188 191.332031 304.417969 196.019531 306.890625 L 196.5625 307.183594 C 199.574219 308.933594 201.730469 311.398438 204.015625 314.011719 C 207.207031 317.660156 210.507812 321.429688 216.539062 323.410156 C 217.460938 323.714844 217.960938 324.703125 217.65625 325.621094 C 217.355469 326.539062 216.359375 327.039062 215.441406 326.738281 C 208.492188 324.457031 204.707031 320.128906 201.367188 316.316406 C 199.339844 313.996094 197.421875 311.800781 195.011719 310.335938 L 194.78125 310.207031 C 194.675781 310.144531 194.570312 310.089844 194.460938 310.035156 L 194.214844 309.902344 C 190.527344 308.023438 185.304688 307.910156 181.453125 309.648438 C 181.4375 309.65625 181.148438 309.796875 180.9375 309.902344 L 180.691406 310.035156 C 178.078125 311.394531 176.027344 313.742188 173.859375 316.230469 C 170.496094 320.082031 166.691406 324.445312 159.714844 326.738281 C 159.53125 326.796875 159.347656 326.824219 159.164062 326.824219 " fill-opacity="1" fill-rule="nonzero"/><g clip-path="url(#60bd8591a8)"><path fill="#e06a14" d="M 187.578125 337.042969 C 176.242188 337.042969 163.753906 336.234375 158.128906 326.824219 L 12.707031 326.824219 C 11.738281 326.824219 10.953125 326.042969 10.953125 325.074219 C 10.953125 324.105469 11.738281 323.324219 12.707031 323.324219 L 159.164062 323.324219 C 159.820312 323.324219 160.425781 323.6875 160.726562 324.269531 C 164.722656 331.988281 173.960938 333.542969 187.578125 333.542969 C 201.191406 333.542969 210.429688 331.988281 214.425781 324.269531 C 214.730469 323.6875 215.332031 323.324219 215.988281 323.324219 L 362.441406 323.324219 C 363.414062 323.324219 364.203125 324.105469 364.203125 325.074219 C 364.203125 326.042969 363.414062 326.824219 362.441406 326.824219 L 217.023438 326.824219 C 211.398438 336.234375 198.910156 337.042969 187.578125 337.042969 " fill-opacity="1" fill-rule="nonzero"/></g><g clip-path="url(#4fe32fb1f7)"><path fill="#364ba8" d="M 118.453125 147.097656 C 118.34375 148.203125 118.1875 149.304688 117.976562 150.394531 C 117.765625 151.488281 117.507812 152.566406 117.195312 153.636719 C 116.882812 154.703125 116.523438 155.753906 116.113281 156.789062 C 115.703125 157.820312 115.242188 158.832031 114.738281 159.824219 C 114.230469 160.816406 113.679688 161.78125 113.085938 162.71875 C 112.488281 163.65625 111.847656 164.566406 111.164062 165.445312 C 110.484375 166.320312 109.761719 167.167969 109 167.976562 C 108.238281 168.789062 107.441406 169.558594 106.605469 170.296875 C 105.769531 171.03125 104.902344 171.726562 104.003906 172.378906 C 103.105469 173.03125 102.175781 173.644531 101.21875 174.210938 C 100.261719 174.773438 99.28125 175.296875 98.273438 175.769531 C 97.265625 176.242188 96.242188 176.667969 95.195312 177.046875 C 94.148438 177.421875 93.085938 177.75 92.007812 178.027344 C 90.933594 178.304688 89.84375 178.53125 88.746094 178.703125 C 87.648438 178.878906 86.542969 179.003906 85.433594 179.074219 C 84.324219 179.144531 83.210938 179.160156 82.101562 179.128906 C 80.988281 179.09375 79.882812 179.007812 78.777344 178.871094 C 77.675781 178.730469 76.578125 178.542969 75.492188 178.300781 C 74.40625 178.058594 73.335938 177.769531 72.277344 177.425781 C 71.21875 177.082031 70.179688 176.691406 69.15625 176.253906 C 68.136719 175.8125 67.136719 175.324219 66.164062 174.792969 C 65.1875 174.257812 64.238281 173.679688 63.316406 173.054688 C 62.398438 172.429688 61.507812 171.765625 60.648438 171.058594 C 59.789062 170.351562 58.964844 169.605469 58.179688 168.820312 C 57.390625 168.035156 56.640625 167.214844 55.929688 166.359375 C 55.21875 165.503906 54.550781 164.617188 53.921875 163.699219 C 53.292969 162.78125 52.710938 161.835938 52.171875 160.863281 C 51.636719 159.890625 51.144531 158.894531 50.699219 157.875 C 50.253906 156.855469 49.859375 155.816406 49.511719 154.757812 C 49.164062 153.703125 48.867188 152.632812 48.621094 151.546875 C 48.375 150.460938 48.183594 149.367188 48.039062 148.265625 C 47.898438 147.164062 47.804688 146.054688 47.765625 144.945312 C 47.726562 143.832031 47.742188 142.722656 47.808594 141.609375 C 47.875 140.5 47.992188 139.394531 48.160156 138.296875 C 48.332031 137.199219 48.550781 136.109375 48.824219 135.03125 C 49.097656 133.953125 49.421875 132.890625 49.792969 131.839844 C 50.164062 130.792969 50.585938 129.765625 51.054688 128.757812 C 51.523438 127.75 52.039062 126.765625 52.601562 125.804688 C 53.164062 124.84375 53.769531 123.914062 54.421875 123.011719 C 55.070312 122.109375 55.761719 121.238281 56.492188 120.398438 C 57.222656 119.5625 57.992188 118.761719 58.800781 117.996094 C 59.609375 117.230469 60.449219 116.503906 61.324219 115.820312 C 62.199219 115.132812 63.105469 114.488281 64.042969 113.890625 C 64.976562 113.289062 65.941406 112.734375 66.929688 112.222656 C 67.917969 111.710938 68.925781 111.25 69.957031 110.835938 C 70.992188 110.421875 72.039062 110.054688 73.105469 109.738281 C 74.171875 109.421875 75.25 109.15625 76.34375 108.941406 C 77.433594 108.726562 78.53125 108.566406 79.640625 108.453125 C 79.835938 108.425781 80.035156 108.429688 80.230469 108.472656 C 80.425781 108.511719 80.609375 108.585938 80.777344 108.691406 C 80.949219 108.796875 81.09375 108.929688 81.21875 109.089844 C 81.339844 109.246094 81.433594 109.421875 81.492188 109.609375 C 81.554688 109.800781 81.582031 109.996094 81.570312 110.199219 C 81.5625 110.398438 81.519531 110.589844 81.445312 110.773438 C 81.367188 110.960938 81.261719 111.125 81.125 111.273438 C 80.988281 111.417969 80.832031 111.539062 80.652344 111.628906 C 79.804688 112.105469 78.984375 112.628906 78.195312 113.199219 C 77.402344 113.769531 76.648438 114.382812 75.929688 115.039062 C 75.210938 115.695312 74.535156 116.390625 73.894531 117.128906 C 73.257812 117.863281 72.664062 118.632812 72.113281 119.4375 C 71.566406 120.242188 71.0625 121.074219 70.609375 121.9375 C 70.15625 122.800781 69.757812 123.683594 69.40625 124.59375 C 69.054688 125.5 68.757812 126.425781 68.511719 127.371094 C 68.269531 128.3125 68.078125 129.265625 67.945312 130.230469 C 67.8125 131.195312 67.734375 132.164062 67.710938 133.136719 C 67.691406 134.113281 67.722656 135.082031 67.816406 136.054688 C 67.90625 137.023438 68.050781 137.984375 68.25 138.9375 C 68.453125 139.890625 68.707031 140.828125 69.019531 141.75 C 69.328125 142.675781 69.6875 143.578125 70.101562 144.457031 C 70.515625 145.339844 70.980469 146.195312 71.492188 147.023438 C 72.003906 147.851562 72.5625 148.648438 73.167969 149.410156 C 73.773438 150.175781 74.417969 150.902344 75.105469 151.589844 C 75.796875 152.277344 76.519531 152.925781 77.285156 153.53125 C 78.046875 154.136719 78.84375 154.695312 79.671875 155.207031 C 80.496094 155.722656 81.351562 156.1875 82.234375 156.601562 C 83.113281 157.015625 84.015625 157.378906 84.941406 157.6875 C 85.863281 158 86.800781 158.253906 87.753906 158.457031 C 88.707031 158.660156 89.667969 158.804688 90.636719 158.898438 C 91.605469 158.988281 92.578125 159.023438 93.550781 159.003906 C 94.523438 158.980469 95.496094 158.90625 96.460938 158.773438 C 97.425781 158.640625 98.378906 158.453125 99.320312 158.207031 C 100.265625 157.964844 101.191406 157.667969 102.097656 157.320312 C 103.007812 156.96875 103.894531 156.566406 104.753906 156.113281 C 105.617188 155.664062 106.453125 155.164062 107.257812 154.613281 C 108.0625 154.066406 108.832031 153.472656 109.566406 152.835938 C 110.304688 152.199219 111 151.519531 111.660156 150.800781 C 112.316406 150.082031 112.929688 149.328125 113.503906 148.542969 C 114.074219 147.753906 114.597656 146.933594 115.074219 146.082031 C 115.296875 145.757812 115.597656 145.53125 115.976562 145.414062 C 116.355469 145.292969 116.730469 145.300781 117.101562 145.441406 C 117.492188 145.523438 117.816406 145.71875 118.070312 146.027344 C 118.324219 146.339844 118.453125 146.695312 118.453125 147.097656 Z M 118.453125 147.097656 " fill-opacity="1" fill-rule="nonzero"/></g><g fill="#ffffff" fill-opacity="1"><g transform="translate(48.567287, 187.706816)"><g><path d="M 14.875 -38.765625 L 14.875 -28.46875 L 32.421875 -28.46875 L 32.421875 -19.890625 L 14.875 -19.890625 L 14.875 0 L 5.15625 0 L 5.15625 -47.640625 L 35.796875 -47.640625 L 35.796875 -38.765625 Z M 14.875 -38.765625 "/></g></g></g><g fill="#ffffff" fill-opacity="1"><g transform="translate(86.564307, 187.706816)"><g><path d="M 26.78125 -27.4375 C 25.863281 -27.894531 24.648438 -28.125 23.140625 -28.125 C 21.484375 -28.125 19.914062 -27.726562 18.4375 -26.9375 C 16.957031 -26.144531 15.4375 -24.992188 13.875 -23.484375 L 13.875 0 L 4.984375 0 L 4.984375 -36.109375 L 13.875 -36.109375 L 13.875 -30.953125 C 15.382812 -32.597656 17.007812 -33.957031 18.75 -35.03125 C 20.5 -36.113281 22.453125 -36.65625 24.609375 -36.65625 C 26.441406 -36.65625 27.75 -36.414062 28.53125 -35.9375 Z M 26.78125 -27.4375 "/></g></g></g><g fill="#ffffff" fill-opacity="1"><g transform="translate(115.475082, 187.706816)"><g><path d="M 26.296875 0 L 26.296875 -3.75 C 22.785156 -0.539062 19.023438 1.0625 15.015625 1.0625 C 11.015625 1.0625 7.992188 0.015625 5.953125 -2.078125 C 3.910156 -4.179688 2.890625 -6.875 2.890625 -10.15625 C 2.890625 -12.726562 3.410156 -14.847656 4.453125 -16.515625 C 5.503906 -18.191406 7.054688 -19.503906 9.109375 -20.453125 C 11.160156 -21.410156 14.113281 -22.085938 17.96875 -22.484375 L 25.578125 -23.203125 L 25.578125 -24.8125 C 25.578125 -26.832031 24.96875 -28.21875 23.75 -28.96875 C 22.53125 -29.71875 20.753906 -30.09375 18.421875 -30.09375 C 16.492188 -30.09375 14.832031 -29.769531 13.4375 -29.125 C 12.050781 -28.476562 11.023438 -27.5625 10.359375 -26.375 L 3.4375 -30.8125 C 4.65625 -32.851562 6.5625 -34.414062 9.15625 -35.5 C 11.75 -36.59375 14.878906 -37.140625 18.546875 -37.140625 C 24.171875 -37.140625 28.226562 -36.15625 30.71875 -34.1875 C 33.207031 -32.226562 34.453125 -29.015625 34.453125 -24.546875 L 34.453125 0 Z M 25.578125 -16.765625 L 21.0625 -16.34375 C 17.875 -16.070312 15.570312 -15.460938 14.15625 -14.515625 C 12.75 -13.578125 12.046875 -12.171875 12.046875 -10.296875 C 12.046875 -8.640625 12.503906 -7.503906 13.421875 -6.890625 C 14.335938 -6.285156 15.554688 -5.984375 17.078125 -5.984375 C 18.148438 -5.984375 19.460938 -6.320312 21.015625 -7 C 22.566406 -7.675781 24.085938 -8.632812 25.578125 -9.875 Z M 25.578125 -16.765625 "/></g></g></g><g fill="#ffffff" fill-opacity="1"><g transform="translate(154.676718, 187.706816)"><g><path d="M 28.265625 0 L 28.265625 -19.890625 C 28.265625 -23.660156 27.925781 -26.175781 27.25 -27.4375 C 26.570312 -28.695312 25.289062 -29.328125 23.40625 -29.328125 C 20.769531 -29.328125 17.59375 -27.582031 13.875 -24.09375 L 13.875 0 L 4.984375 0 L 4.984375 -36.109375 L 13.875 -36.109375 L 13.875 -31.421875 C 15.757812 -33.304688 17.765625 -34.726562 19.890625 -35.6875 C 22.023438 -36.65625 24.113281 -37.140625 26.15625 -37.140625 C 29.851562 -37.140625 32.609375 -36.128906 34.421875 -34.109375 C 36.234375 -32.085938 37.140625 -28.75 37.140625 -24.09375 L 37.140625 0 Z M 28.265625 0 "/></g></g></g><g fill="#ffffff" fill-opacity="1"><g transform="translate(196.562924, 187.706816)"><g><path d="M 34.84375 -5.15625 C 33.457031 -3.113281 31.640625 -1.566406 29.390625 -0.515625 C 27.148438 0.535156 24.304688 1.0625 20.859375 1.0625 C 15.035156 1.0625 10.628906 -0.523438 7.640625 -3.703125 C 4.660156 -6.878906 3.171875 -11.585938 3.171875 -17.828125 C 3.171875 -23.910156 4.613281 -28.648438 7.5 -32.046875 C 10.394531 -35.441406 14.734375 -37.140625 20.515625 -37.140625 C 23.609375 -37.140625 26.363281 -36.632812 28.78125 -35.625 C 31.207031 -34.613281 33.054688 -33.054688 34.328125 -30.953125 L 27.71875 -26.234375 C 26.90625 -27.304688 25.957031 -28.097656 24.875 -28.609375 C 23.800781 -29.128906 22.414062 -29.390625 20.71875 -29.390625 C 17.6875 -29.390625 15.53125 -28.460938 14.25 -26.609375 C 12.96875 -24.753906 12.328125 -21.875 12.328125 -17.96875 C 12.328125 -14.070312 12.984375 -11.222656 14.296875 -9.421875 C 15.617188 -7.617188 17.875 -6.71875 21.0625 -6.71875 C 22.445312 -6.71875 23.710938 -6.910156 24.859375 -7.296875 C 26.003906 -7.691406 27.09375 -8.550781 28.125 -9.875 Z M 34.84375 -5.15625 "/></g></g></g><g fill="#ffffff" fill-opacity="1"><g transform="translate(233.011152, 187.706816)"><g><path d="M 26.296875 0 L 26.296875 -3.75 C 22.785156 -0.539062 19.023438 1.0625 15.015625 1.0625 C 11.015625 1.0625 7.992188 0.015625 5.953125 -2.078125 C 3.910156 -4.179688 2.890625 -6.875 2.890625 -10.15625 C 2.890625 -12.726562 3.410156 -14.847656 4.453125 -16.515625 C 5.503906 -18.191406 7.054688 -19.503906 9.109375 -20.453125 C 11.160156 -21.410156 14.113281 -22.085938 17.96875 -22.484375 L 25.578125 -23.203125 L 25.578125 -24.8125 C 25.578125 -26.832031 24.96875 -28.21875 23.75 -28.96875 C 22.53125 -29.71875 20.753906 -30.09375 18.421875 -30.09375 C 16.492188 -30.09375 14.832031 -29.769531 13.4375 -29.125 C 12.050781 -28.476562 11.023438 -27.5625 10.359375 -26.375 L 3.4375 -30.8125 C 4.65625 -32.851562 6.5625 -34.414062 9.15625 -35.5 C 11.75 -36.59375 14.878906 -37.140625 18.546875 -37.140625 C 24.171875 -37.140625 28.226562 -36.15625 30.71875 -34.1875 C 33.207031 -32.226562 34.453125 -29.015625 34.453125 -24.546875 L 34.453125 0 Z M 25.578125 -16.765625 L 21.0625 -16.34375 C 17.875 -16.070312 15.570312 -15.460938 14.15625 -14.515625 C 12.75 -13.578125 12.046875 -12.171875 12.046875 -10.296875 C 12.046875 -8.640625 12.503906 -7.503906 13.421875 -6.890625 C 14.335938 -6.285156 15.554688 -5.984375 17.078125 -5.984375 C 18.148438 -5.984375 19.460938 -6.320312 21.015625 -7 C 22.566406 -7.675781 24.085938 -8.632812 25.578125 -9.875 Z M 25.578125 -16.765625 "/></g></g></g><g fill="#ffffff" fill-opacity="1"><g transform="translate(272.212788, 187.706816)"><g><path d="M 14.390625 -45.953125 C 14.390625 -44.273438 13.972656 -43.101562 13.140625 -42.4375 C 12.316406 -41.78125 11.054688 -41.453125 9.359375 -41.453125 C 7.484375 -41.453125 6.207031 -41.835938 5.53125 -42.609375 C 4.851562 -43.390625 4.515625 -44.503906 4.515625 -45.953125 C 4.515625 -47.554688 4.878906 -48.707031 5.609375 -49.40625 C 6.347656 -50.113281 7.597656 -50.46875 9.359375 -50.46875 C 11.148438 -50.46875 12.4375 -50.128906 13.21875 -49.453125 C 14 -48.773438 14.390625 -47.609375 14.390625 -45.953125 Z M 4.984375 0 L 4.984375 -36.109375 L 13.875 -36.109375 L 13.875 0 Z M 4.984375 0 "/></g></g></g><g fill="#ffffff" fill-opacity="1"><g transform="translate(291.108045, 187.706816)"><g><path d="M 32.5625 -10.296875 C 32.5625 -7.910156 31.957031 -5.867188 30.75 -4.171875 C 29.550781 -2.472656 27.84375 -1.175781 25.625 -0.28125 C 23.414062 0.613281 20.882812 1.0625 18.03125 1.0625 C 10.488281 1.0625 5.347656 -1.035156 2.609375 -5.234375 L 9.21875 -9.875 C 10.300781 -8.40625 11.546875 -7.425781 12.953125 -6.9375 C 14.367188 -6.445312 15.878906 -6.203125 17.484375 -6.203125 C 21.710938 -6.203125 23.828125 -7.425781 23.828125 -9.875 C 23.828125 -10.957031 23.226562 -11.789062 22.03125 -12.375 C 20.832031 -12.957031 18.960938 -13.5625 16.421875 -14.1875 C 11.617188 -15.238281 8.242188 -16.726562 6.296875 -18.65625 C 4.347656 -20.582031 3.375 -23.082031 3.375 -26.15625 C 3.375 -29.351562 4.59375 -31.984375 7.03125 -34.046875 C 9.476562 -36.109375 13.078125 -37.140625 17.828125 -37.140625 C 21.066406 -37.140625 23.921875 -36.625 26.390625 -35.59375 C 28.859375 -34.5625 30.753906 -33.015625 32.078125 -30.953125 L 25.4375 -26.234375 C 23.851562 -28.660156 21.269531 -29.875 17.6875 -29.875 C 15.851562 -29.875 14.46875 -29.554688 13.53125 -28.921875 C 12.59375 -28.296875 12.125 -27.488281 12.125 -26.5 C 12.125 -25.5625 12.546875 -24.8125 13.390625 -24.25 C 14.242188 -23.6875 15.921875 -23.097656 18.421875 -22.484375 C 22.523438 -21.472656 25.453125 -20.46875 27.203125 -19.46875 C 28.960938 -18.46875 30.296875 -17.226562 31.203125 -15.75 C 32.109375 -14.269531 32.5625 -12.453125 32.5625 -10.296875 Z M 32.5625 -10.296875 "/></g></g></g></svg>