<svg xmlns="http://www.w3.org/2000/svg" xmlns:xlink="http://www.w3.org/1999/xlink" width="500" zoomAndPan="magnify" viewBox="0 0 375 374.999991" height="500" preserveAspectRatio="xMidYMid meet" version="1.0"><defs><g/><clipPath id="b8ccce34be"><path d="M 79.484375 58 L 295 58 L 295 281.421875 L 79.484375 281.421875 Z M 79.484375 58 " clip-rule="nonzero"/></clipPath><clipPath id="451d4bd17c"><path d="M 318 223 L 322.425781 223 L 322.425781 228 L 318 228 Z M 318 223 " clip-rule="nonzero"/></clipPath><clipPath id="4dbb19635b"><path d="M 274 179.566406 L 279 179.566406 L 279 184 L 274 184 Z M 274 179.566406 " clip-rule="nonzero"/></clipPath><clipPath id="b945c9def9"><path d="M 230.175781 223 L 235 223 L 235 228 L 230.175781 228 Z M 230.175781 223 " clip-rule="nonzero"/></clipPath><clipPath id="e88deff829"><path d="M 274 267 L 279 267 L 279 271.816406 L 274 271.816406 Z M 274 267 " clip-rule="nonzero"/></clipPath><clipPath id="305413c7ec"><path d="M 75 210.386719 L 188 210.386719 L 188 305 L 75 305 Z M 75 210.386719 " clip-rule="nonzero"/></clipPath><clipPath id="a1c8ca90ef"><path d="M 10.953125 323.125 L 364.203125 323.125 L 364.203125 337.042969 L 10.953125 337.042969 Z M 10.953125 323.125 " clip-rule="nonzero"/></clipPath><clipPath id="dad5e2f0fc"><path d="M 21.089844 101.476562 L 102.839844 101.476562 L 102.839844 179.476562 L 21.089844 179.476562 Z M 21.089844 101.476562 " clip-rule="nonzero"/></clipPath></defs><path fill="#dc3737" d="M 51.371094 93.96875 C 41.183594 93.949219 30.316406 93.152344 21.527344 98.6875 C 8.296875 107.027344 5.230469 126.96875 9.878906 142.667969 C 14.527344 158.363281 24.921875 171.179688 33.820312 184.601562 C 42.714844 198.019531 50.585938 213.714844 48.933594 230.089844 C 47.855469 240.796875 42.753906 250.78125 42.351562 261.542969 C 41.792969 276.316406 50.390625 290.101562 61.484375 298.867188 C 72.578125 307.632812 85.960938 312.269531 99.085938 316.769531 C 117.015625 322.917969 136.011719 329.125 154.363281 324.632812 C 185.75 316.945312 205.335938 280.644531 236.460938 271.832031 C 257.492188 265.878906 280.390625 273.589844 301.296875 267.152344 C 323.828125 260.214844 340.046875 237.109375 344.386719 212.390625 C 348.730469 187.667969 342.625 161.882812 331.867188 139.535156 C 321.105469 117.183594 305.914062 97.707031 290.847656 78.429688 C 278.285156 62.355469 264.847656 45.605469 246.457031 38.480469 C 224.449219 29.957031 199.429688 36.359375 178.21875 44.601562 C 164.199219 50.050781 152.675781 60.40625 140.019531 68.539062 C 126.457031 77.253906 111.0625 83.585938 95.792969 87.851562 C 81.308594 91.898438 66.34375 94 51.371094 93.96875 " fill-opacity="1" fill-rule="nonzero"/><g clip-path="url(#b8ccce34be)"><path fill="#a52929" d="M 232.21875 59.6875 C 232.21875 59.6875 234.925781 57.96875 235.171875 58.949219 C 235.417969 59.933594 238.613281 64.359375 241.316406 66.453125 C 244.023438 68.539062 246.972656 71.613281 250.046875 70.507812 C 253.125 69.398438 252.507812 69.03125 256.933594 69.152344 C 261.359375 69.277344 263.203125 71.492188 265.539062 68.910156 C 267.878906 66.324219 267.507812 63.746094 268.613281 66.820312 C 269.722656 69.894531 268.492188 70.238281 270.539062 70.742188 C 272.589844 71.246094 273.695312 71.859375 273.859375 71.53125 C 274.023438 71.207031 276.320312 71.492188 277.058594 70.835938 C 277.792969 70.179688 278.449219 70.421875 279.84375 72.679688 C 281.238281 74.933594 283.367188 74.769531 283.738281 76.695312 C 284.105469 78.621094 284.84375 78.210938 284.390625 79.363281 C 283.941406 80.507812 284.640625 80.546875 285.007812 81.65625 C 285.375 82.761719 284.761719 82.3125 284.558594 83.375 C 284.351562 84.441406 284.886719 84.441406 285.007812 85.34375 C 285.132812 86.246094 286.238281 84.691406 285.910156 86.941406 C 285.582031 89.195312 284.597656 88.949219 284.925781 90.917969 C 285.253906 92.886719 285.867188 94.277344 286.402344 95.546875 C 286.933594 96.816406 286.195312 97.269531 285.664062 99.398438 C 285.132812 101.53125 288.289062 104.011719 288.65625 104.996094 C 289.023438 105.976562 287.488281 104.074219 287.917969 105.917969 C 288.347656 107.761719 292.40625 111.695312 293.945312 112.125 C 295.480469 112.554688 292.894531 113.230469 292.160156 114.894531 C 291.421875 116.550781 293.574219 118.582031 291.421875 119.441406 C 289.269531 120.304688 277.40625 117.785156 273.535156 119.441406 C 269.660156 121.101562 269.90625 120.363281 268.859375 122.394531 C 267.816406 124.421875 261.667969 125.710938 259.269531 126.574219 C 256.875 127.433594 256.625 128.539062 257.488281 129.769531 C 258.347656 131 256.625 131.554688 257.300781 133.027344 C 257.976562 134.503906 260.296875 134.238281 260.375 135.792969 C 260.457031 137.351562 259.96875 139.074219 258 138.828125 C 256.03125 138.582031 253.410156 137.761719 249.71875 141.945312 C 246.03125 146.125 242.425781 143.335938 242.015625 145.140625 C 241.605469 146.941406 235.375 154.648438 234.230469 153.992188 C 233.082031 153.335938 232.507812 153.578125 231.277344 154.03125 C 230.050781 154.484375 229.636719 155.710938 225.050781 155.628906 C 220.460938 155.550781 221.441406 153.992188 220.539062 156.695312 C 219.636719 159.402344 221.359375 160.550781 216.769531 159.566406 C 212.183594 158.582031 215.050781 157.1875 211.195312 159.320312 C 207.34375 161.453125 205.542969 160.140625 203.636719 162.414062 C 201.730469 164.6875 200.316406 165.980469 197.546875 167.023438 C 194.78125 168.070312 193.246094 169.421875 192.632812 171.140625 C 192.015625 172.863281 191.523438 176.695312 191.6875 177.597656 C 191.851562 178.5 191.65625 213.007812 191.65625 213.007812 L 146.359375 213.007812 L 146.359375 251.039062 C 146.359375 251.039062 142.714844 253.582031 139.210938 253.707031 C 135.707031 253.828125 130.972656 258.007812 131.035156 259.054688 C 131.09375 260.097656 132.917969 281.203125 132.917969 281.203125 L 79.472656 281.203125 C 79.472656 281.203125 79.515625 274.605469 80.582031 272.722656 C 81.648438 270.835938 80.746094 268.910156 83.207031 268.253906 C 85.664062 267.597656 85.335938 262.84375 87.632812 260.265625 C 89.925781 257.679688 88.820312 256.039062 89.679688 254.609375 C 90.539062 253.171875 94.636719 243.683594 98.695312 240.179688 C 102.753906 236.679688 108.59375 235.628906 108.285156 231.265625 C 107.980469 226.902344 107.238281 225.671875 108.46875 221.984375 C 109.699219 218.292969 112.773438 214.851562 112.648438 210.917969 C 112.527344 206.980469 117.878906 207.96875 122.546875 204.339844 C 127.222656 200.710938 126.789062 202.1875 128.449219 196.226562 C 130.109375 190.261719 132.382812 185.097656 134.902344 184.238281 C 137.425781 183.375 143.636719 184.667969 146.523438 182.144531 C 149.414062 179.625 155.253906 177.964844 157.773438 172.925781 C 160.296875 167.886719 164.90625 169.914062 166.503906 168.070312 C 168.101562 166.226562 169.269531 164.074219 172.835938 159.03125 C 176.402344 153.992188 180.519531 149.6875 177.078125 144.464844 C 173.632812 139.238281 175.109375 130.875 176.585938 128.171875 C 178.0625 125.464844 182.980469 121.039062 183.46875 115.878906 C 183.964844 110.710938 182.980469 110.835938 185.867188 108.804688 C 188.757812 106.777344 189.0625 105.054688 192.753906 102.597656 C 196.445312 100.140625 201.113281 98.234375 204.988281 96.144531 C 208.859375 94.050781 213.347656 89.566406 215.992188 86.796875 C 218.632812 84.03125 222.878906 75.855469 224.722656 71.675781 C 226.566406 67.496094 228.777344 61.71875 232.21875 59.6875 " fill-opacity="1" fill-rule="nonzero"/></g><path fill="#a52929" d="M 273.417969 218.769531 L 275.894531 216.292969 L 269.714844 210.121094 L 269.601562 210.007812 L 269.851562 218.769531 Z M 273.417969 218.769531 " fill-opacity="1" fill-rule="nonzero"/><path fill="#a52929" d="M 279.148438 218.769531 L 282.628906 218.769531 L 282.636719 210.03125 L 282.636719 209.875 L 276.625 216.246094 Z M 279.148438 218.769531 " fill-opacity="1" fill-rule="nonzero"/><path fill="#a52929" d="M 280.789062 230.171875 L 280.789062 227.539062 L 282.65625 225.671875 L 280.789062 223.804688 L 280.789062 221.167969 L 278.148438 221.167969 L 276.285156 219.300781 L 274.417969 221.167969 L 271.78125 221.167969 L 271.78125 223.804688 L 269.914062 225.671875 L 271.78125 227.539062 L 271.78125 230.171875 L 274.414062 230.171875 L 276.285156 232.042969 L 278.152344 230.171875 Z M 280.789062 230.171875 " fill-opacity="1" fill-rule="nonzero"/><path fill="#a52929" d="M 291.949219 218.992188 L 283.1875 219.242188 L 283.1875 222.808594 L 285.664062 225.285156 L 291.835938 219.101562 Z M 291.949219 218.992188 " fill-opacity="1" fill-rule="nonzero"/><path fill="#a52929" d="M 269.378906 228.53125 L 266.90625 226.0625 L 260.730469 232.242188 L 260.617188 232.355469 L 269.378906 232.097656 Z M 269.378906 228.53125 " fill-opacity="1" fill-rule="nonzero"/><path fill="#a52929" d="M 269.378906 222.808594 L 269.378906 219.324219 L 260.640625 219.320312 L 260.484375 219.320312 L 266.855469 225.332031 Z M 269.378906 222.808594 " fill-opacity="1" fill-rule="nonzero"/><path fill="#a52929" d="M 285.710938 226.007812 L 283.1875 228.53125 L 283.1875 232.019531 L 291.925781 232.027344 L 292.082031 232.027344 Z M 285.710938 226.007812 " fill-opacity="1" fill-rule="nonzero"/><path fill="#a52929" d="M 279.148438 232.574219 L 276.671875 235.050781 L 282.855469 241.226562 L 282.964844 241.339844 L 282.714844 232.574219 Z M 279.148438 232.574219 " fill-opacity="1" fill-rule="nonzero"/><path fill="#a52929" d="M 269.9375 232.574219 L 269.929688 241.316406 L 269.929688 241.472656 L 275.945312 235.101562 L 273.417969 232.574219 Z M 269.9375 232.574219 " fill-opacity="1" fill-rule="nonzero"/><path fill="#a52929" d="M 269.003906 208.621094 L 269.15625 208.773438 L 269.15625 196.554688 L 260.734375 188.136719 L 260.734375 200.351562 Z M 269.003906 208.621094 " fill-opacity="1" fill-rule="nonzero"/><path fill="#a52929" d="M 291.832031 200.046875 L 291.832031 188.136719 L 283.195312 196.773438 L 283.195312 208.683594 Z M 291.832031 200.046875 " fill-opacity="1" fill-rule="nonzero"/><path fill="#a52929" d="M 301.605469 210.121094 L 293.335938 218.394531 L 293.183594 218.546875 L 305.402344 218.546875 L 313.820312 210.121094 Z M 301.605469 210.121094 " fill-opacity="1" fill-rule="nonzero"/><path fill="#a52929" d="M 313.820312 241.222656 L 305.183594 232.582031 L 293.273438 232.582031 L 301.910156 241.222656 Z M 313.820312 241.222656 " fill-opacity="1" fill-rule="nonzero"/><path fill="#a52929" d="M 283.410156 254.789062 L 291.832031 263.210938 L 291.832031 250.996094 L 283.5625 242.71875 L 283.410156 242.570312 Z M 283.410156 254.789062 " fill-opacity="1" fill-rule="nonzero"/><path fill="#a52929" d="M 260.734375 251.300781 L 260.734375 263.210938 L 269.375 254.574219 L 269.375 242.664062 Z M 260.734375 251.300781 " fill-opacity="1" fill-rule="nonzero"/><path fill="#a52929" d="M 259.386719 232.800781 L 247.167969 232.800781 L 238.746094 241.222656 L 250.960938 241.222656 L 259.238281 232.953125 Z M 259.386719 232.800781 " fill-opacity="1" fill-rule="nonzero"/><path fill="#a52929" d="M 259.292969 218.761719 L 250.65625 210.125 L 238.746094 210.125 L 247.382812 218.761719 Z M 259.292969 218.761719 " fill-opacity="1" fill-rule="nonzero"/><path fill="#a52929" d="M 253.699219 194.097656 L 250.636719 197.164062 L 248.039062 197.429688 L 247.773438 200.023438 L 244.558594 203.238281 L 250.882812 209.5625 L 260.179688 209.5625 L 260.179688 200.578125 Z M 253.699219 194.097656 " fill-opacity="1" fill-rule="nonzero"/><path fill="#a52929" d="M 276.285156 185.734375 L 274.261719 187.378906 L 269.714844 187.378906 L 269.714844 196.328125 L 276.285156 202.890625 L 282.636719 196.539062 L 282.636719 187.378906 L 278.304688 187.378906 Z M 276.285156 185.734375 " fill-opacity="1" fill-rule="nonzero"/><path fill="#a52929" d="M 304.792969 200.023438 L 304.527344 197.429688 L 301.929688 197.164062 L 298.71875 193.949219 L 292.386719 200.273438 L 292.386719 209.5625 L 301.378906 209.5625 L 307.851562 203.085938 Z M 304.792969 200.023438 " fill-opacity="1" fill-rule="nonzero"/><path fill="#a52929" d="M 314.578125 223.652344 L 314.578125 219.101562 L 305.636719 219.101562 L 299.0625 225.671875 L 305.417969 232.027344 L 314.578125 232.027344 L 314.578125 227.695312 L 316.222656 225.671875 Z M 314.578125 223.652344 " fill-opacity="1" fill-rule="nonzero"/><path fill="#a52929" d="M 301.929688 254.183594 L 304.527344 253.910156 L 304.792969 251.320312 L 308.007812 248.105469 L 301.683594 241.777344 L 292.386719 241.777344 L 292.386719 250.765625 L 298.871094 257.242188 Z M 301.929688 254.183594 " fill-opacity="1" fill-rule="nonzero"/><path fill="#a52929" d="M 269.929688 254.808594 L 269.929688 263.96875 L 274.261719 263.96875 L 276.285156 265.613281 L 278.304688 263.96875 L 282.855469 263.96875 L 282.855469 255.023438 L 276.285156 248.453125 Z M 269.929688 254.808594 " fill-opacity="1" fill-rule="nonzero"/><path fill="#a52929" d="M 247.773438 251.320312 L 248.039062 253.910156 L 250.636719 254.183594 L 253.847656 257.398438 L 260.179688 251.074219 L 260.179688 241.777344 L 251.191406 241.777344 L 244.714844 248.257812 Z M 247.773438 251.320312 " fill-opacity="1" fill-rule="nonzero"/><path fill="#a52929" d="M 247.148438 219.320312 L 237.988281 219.320312 L 237.988281 223.652344 L 236.34375 225.671875 L 237.988281 227.695312 L 237.988281 232.242188 L 246.9375 232.242188 L 253.503906 225.671875 Z M 247.148438 219.320312 " fill-opacity="1" fill-rule="nonzero"/><g clip-path="url(#451d4bd17c)"><path fill="#a52929" d="M 318.285156 225.671875 L 320.335938 227.730469 L 322.390625 225.671875 L 320.335938 223.617188 Z M 318.285156 225.671875 " fill-opacity="1" fill-rule="nonzero"/></g><path fill="#a52929" d="M 305.980469 195.976562 L 308.886719 195.980469 L 308.886719 193.070312 L 305.976562 193.070312 Z M 305.980469 195.976562 " fill-opacity="1" fill-rule="nonzero"/><g clip-path="url(#4dbb19635b)"><path fill="#a52929" d="M 276.285156 183.671875 L 278.339844 181.621094 L 276.285156 179.566406 L 274.226562 181.621094 Z M 276.285156 183.671875 " fill-opacity="1" fill-rule="nonzero"/></g><path fill="#a52929" d="M 246.585938 195.976562 L 246.589844 193.070312 L 243.679688 193.070312 L 243.679688 195.980469 Z M 246.585938 195.976562 " fill-opacity="1" fill-rule="nonzero"/><g clip-path="url(#b945c9def9)"><path fill="#a52929" d="M 234.28125 225.671875 L 232.234375 223.617188 L 230.175781 225.671875 L 232.234375 227.730469 Z M 234.28125 225.671875 " fill-opacity="1" fill-rule="nonzero"/></g><path fill="#a52929" d="M 246.585938 255.371094 L 243.679688 255.367188 L 243.679688 258.277344 L 246.589844 258.277344 Z M 246.585938 255.371094 " fill-opacity="1" fill-rule="nonzero"/><g clip-path="url(#e88deff829)"><path fill="#a52929" d="M 276.285156 267.675781 L 274.226562 269.726562 L 276.285156 271.78125 L 278.339844 269.726562 Z M 276.285156 267.675781 " fill-opacity="1" fill-rule="nonzero"/></g><path fill="#a52929" d="M 305.980469 255.371094 L 305.976562 258.277344 L 308.886719 258.277344 L 308.886719 255.367188 Z M 305.980469 255.371094 " fill-opacity="1" fill-rule="nonzero"/><path fill="#52331e" d="M 12.710938 325.074219 L 44.761719 289.457031 L 330.390625 289.457031 L 362.441406 325.074219 L 215.988281 325.074219 C 211.300781 334.125 200.171875 335.292969 187.578125 335.292969 C 174.980469 335.292969 163.851562 334.125 159.164062 325.074219 L 12.710938 325.074219 " fill-opacity="1" fill-rule="nonzero"/><path fill="#b8ac8d" d="M 180.726562 308.054688 C 180.453125 308.183594 180.183594 308.316406 179.921875 308.457031 C 179.746094 308.550781 179.609375 308.621094 179.480469 308.699219 C 137.519531 290.550781 71.222656 322.257812 22.753906 312.96875 C 23.335938 312.90625 24.003906 312.859375 24.660156 312.808594 C 100.875 307.136719 144.878906 273.945312 180.726562 308.054688 " fill-opacity="1" fill-rule="nonzero"/><path fill="#b8ac8d" d="M 172.882812 314.675781 C 172.667969 314.925781 172.4375 315.183594 172.214844 315.441406 C 172.128906 315.539062 172.046875 315.636719 171.964844 315.734375 C 171.644531 316.101562 171.320312 316.460938 170.992188 316.828125 L 168.53125 316.816406 L 120.195312 317.367188 L 90.933594 319.019531 L 53.089844 322.371094 L 21.214844 321.96875 L 18.308594 320.328125 L 18.105469 320.210938 L 22.042969 319.242188 L 27.992188 317.769531 L 91.683594 311.234375 L 163.210938 307.113281 L 172.882812 314.675781 " fill-opacity="1" fill-rule="nonzero"/><path fill="#fff6e0" d="M 23.222656 320.988281 L 20 316.242188 L 16.539062 320.085938 Z M 23.222656 320.988281 " fill-opacity="1" fill-rule="nonzero"/><path fill="#f0e3c3" d="M 171.964844 315.734375 C 171.644531 316.101562 171.320312 316.460938 170.992188 316.828125 C 169.398438 318.59375 167.671875 320.34375 165.519531 321.875 C 127.371094 313.3125 79.617188 326.054688 15.433594 323.007812 L 16.539062 320.089844 L 18.105469 320.210938 C 18.15625 320.214844 18.210938 320.222656 18.261719 320.222656 C 19.835938 320.339844 21.390625 320.449219 22.917969 320.542969 C 28.773438 320.90625 34.304688 321.09375 39.535156 321.132812 C 102.199219 321.671875 123.808594 301.859375 171.964844 315.734375 " fill-opacity="1" fill-rule="nonzero"/><path fill="#fff6e0" d="M 24.046875 309.328125 L 20.914062 312.808594 C 22.304688 312.933594 23.671875 313.046875 25.019531 313.148438 C 24.238281 313.085938 24.046875 309.328125 24.046875 309.328125 " fill-opacity="1" fill-rule="nonzero"/><path fill="#f0e3c3" d="M 179.878906 308.480469 C 179.746094 308.550781 179.609375 308.621094 179.480469 308.699219 C 176.894531 310.191406 174.917969 312.359375 172.882812 314.675781 C 172.667969 314.925781 172.4375 315.183594 172.214844 315.441406 C 154.964844 308.761719 139.71875 308.601562 123.59375 310.71875 C 100.492188 313.742188 73.96875 321.085938 39.535156 321.132812 C 34.203125 321.140625 28.679688 320.976562 22.949219 320.582031 C 21.402344 320.480469 19.84375 320.363281 18.261719 320.222656 C 18.210938 320.222656 18.15625 320.214844 18.105469 320.210938 L 19.328125 316.988281 L 20.917969 312.808594 C 21.507812 312.859375 22.085938 312.910156 22.675781 312.953125 C 23.464844 313.023438 24.214844 313.082031 24.953125 313.132812 C 99.113281 318.40625 126.769531 277.382812 179.878906 308.480469 " fill-opacity="1" fill-rule="nonzero"/><path fill="#f0e3c3" d="M 187.578125 305.832031 L 185.023438 306.847656 C 183.398438 307.0625 181.992188 307.480469 180.726562 308.054688 C 180.453125 308.183594 180.183594 308.316406 179.921875 308.457031 C 153.914062 290.246094 124.007812 294.097656 103.277344 301.117188 C 84.421875 307.503906 63.199219 315.148438 24.863281 313.082031 C 24.144531 313.042969 23.410156 313 22.675781 312.953125 L 24.042969 309.332031 L 25.480469 305.550781 C 64.957031 309.214844 86.867188 300.222656 106.089844 293.714844 C 128.644531 286.078125 160.136719 281.625 187.578125 305.832031 " fill-opacity="1" fill-rule="nonzero"/><path fill="#fff6e0" d="M 186.695312 266.371094 C 165.257812 247.460938 141.339844 251.160156 123.71875 257.125 C 108.699219 262.210938 91.582031 269.234375 60.738281 266.371094 L 25.480469 305.546875 C 64.960938 309.214844 86.871094 300.222656 106.089844 293.714844 C 128.644531 286.078125 160.136719 281.625 187.578125 305.832031 L 186.695312 266.371094 " fill-opacity="1" fill-rule="nonzero"/><path fill="#ebe3ce" d="M 43.15625 301.550781 C 40.738281 301.550781 38.265625 301.5 35.75 301.390625 L 62.738281 271.40625 C 66.78125 271.722656 70.742188 271.878906 74.546875 271.878906 C 95.773438 271.878906 109.601562 267.113281 121.804688 262.90625 C 122.980469 262.5 124.136719 262.101562 125.28125 261.714844 C 134.363281 258.640625 142.441406 257.144531 149.984375 257.144531 C 162.011719 257.144531 172.449219 260.898438 181.835938 268.605469 L 181.835938 295.613281 C 169.28125 287.03125 155.152344 282.691406 139.707031 282.691406 C 128.824219 282.691406 117.316406 284.796875 104.523438 289.125 C 103.039062 289.628906 101.539062 290.148438 100.015625 290.671875 C 85.222656 295.769531 68.464844 301.550781 43.15625 301.550781 " fill-opacity="1" fill-rule="nonzero"/><path fill="#9f947a" d="M 352.476562 312.953125 C 303.933594 322.257812 237.640625 290.550781 195.679688 308.699219 C 195.550781 308.621094 195.40625 308.550781 195.273438 308.480469 C 194.96875 308.316406 194.699219 308.183594 194.425781 308.054688 C 230.269531 273.945312 274.277344 307.136719 350.492188 312.808594 C 351.148438 312.859375 351.816406 312.90625 352.476562 312.953125 " fill-opacity="1" fill-rule="nonzero"/><path fill="#9f947a" d="M 357.046875 320.210938 L 356.84375 320.328125 L 353.9375 321.96875 L 322.0625 322.371094 L 284.21875 319.019531 L 254.957031 317.367188 L 206.621094 316.816406 L 204.160156 316.828125 C 203.832031 316.460938 203.511719 316.101562 203.1875 315.734375 C 203.105469 315.636719 203.023438 315.539062 202.9375 315.441406 C 202.714844 315.183594 202.484375 314.925781 202.269531 314.675781 L 211.941406 307.113281 L 283.46875 311.234375 L 347.160156 317.769531 L 353.109375 319.242188 L 357.046875 320.210938 " fill-opacity="1" fill-rule="nonzero"/><path fill="#dcd4c1" d="M 358.613281 320.085938 L 355.152344 316.242188 L 351.929688 320.988281 Z M 358.613281 320.085938 " fill-opacity="1" fill-rule="nonzero"/><path fill="#cfc4a8" d="M 359.71875 323.007812 C 295.535156 326.054688 247.78125 313.3125 209.632812 321.875 C 207.480469 320.34375 205.753906 318.59375 204.160156 316.828125 C 203.832031 316.460938 203.511719 316.101562 203.1875 315.734375 C 251.34375 301.859375 272.953125 321.671875 335.617188 321.132812 C 340.851562 321.09375 346.382812 320.90625 352.234375 320.542969 C 353.761719 320.449219 355.316406 320.339844 356.890625 320.222656 C 356.941406 320.222656 356.996094 320.214844 357.046875 320.210938 L 358.613281 320.089844 L 359.71875 323.007812 " fill-opacity="1" fill-rule="nonzero"/><path fill="#dcd4c1" d="M 350.132812 313.148438 C 351.484375 313.046875 352.847656 312.933594 354.238281 312.808594 L 351.105469 309.328125 C 351.105469 309.328125 350.914062 313.085938 350.132812 313.148438 " fill-opacity="1" fill-rule="nonzero"/><path fill="#cfc4a8" d="M 357.046875 320.210938 C 356.996094 320.214844 356.941406 320.222656 356.890625 320.222656 C 355.308594 320.363281 353.75 320.480469 352.203125 320.582031 C 346.472656 320.976562 340.949219 321.140625 335.617188 321.132812 C 301.183594 321.085938 274.660156 313.742188 251.558594 310.71875 C 235.433594 308.601562 220.1875 308.761719 202.9375 315.441406 C 202.714844 315.183594 202.484375 314.925781 202.269531 314.675781 C 200.234375 312.359375 198.261719 310.195312 195.679688 308.699219 C 195.550781 308.621094 195.40625 308.550781 195.273438 308.480469 C 248.382812 277.382812 276.039062 318.40625 350.195312 313.132812 C 350.9375 313.082031 351.6875 313.023438 352.4375 312.957031 C 353.035156 312.910156 353.632812 312.859375 354.238281 312.808594 L 355.824219 316.988281 L 357.046875 320.210938 " fill-opacity="1" fill-rule="nonzero"/><path fill="#cfc4a8" d="M 352.476562 312.953125 C 351.742188 313 351.007812 313.042969 350.289062 313.082031 C 311.953125 315.148438 290.734375 307.503906 271.875 301.117188 C 251.144531 294.097656 221.238281 290.246094 195.234375 308.457031 C 194.96875 308.316406 194.699219 308.183594 194.425781 308.054688 C 193.160156 307.480469 191.753906 307.0625 190.132812 306.847656 L 187.578125 305.832031 C 215.015625 281.625 246.507812 286.078125 269.0625 293.714844 C 288.285156 300.222656 310.195312 309.214844 349.671875 305.550781 L 351.109375 309.332031 L 352.476562 312.953125 " fill-opacity="1" fill-rule="nonzero"/><path fill="#dcd4c1" d="M 188.457031 266.371094 C 209.894531 247.460938 233.8125 251.160156 251.433594 257.125 C 266.453125 262.210938 283.570312 269.234375 314.417969 266.371094 L 349.671875 305.546875 C 310.191406 309.214844 288.28125 300.222656 269.0625 293.714844 C 246.507812 286.078125 215.015625 281.625 187.578125 305.832031 L 188.457031 266.371094 " fill-opacity="1" fill-rule="nonzero"/><path fill="#cbc4b2" d="M 331.996094 301.550781 C 334.414062 301.550781 336.886719 301.5 339.402344 301.390625 L 312.417969 271.40625 C 308.371094 271.722656 304.410156 271.878906 300.605469 271.878906 C 279.378906 271.878906 265.550781 267.113281 253.347656 262.90625 C 252.171875 262.5 251.015625 262.101562 249.871094 261.714844 C 240.789062 258.640625 232.710938 257.144531 225.167969 257.144531 C 213.140625 257.144531 202.703125 260.898438 193.316406 268.605469 L 193.316406 295.613281 C 205.871094 287.03125 220 282.691406 235.445312 282.691406 C 246.328125 282.691406 257.835938 284.796875 270.625 289.125 C 272.113281 289.628906 273.613281 290.148438 275.136719 290.671875 C 289.925781 295.769531 306.691406 301.550781 331.996094 301.550781 " fill-opacity="1" fill-rule="nonzero"/><path fill="#ddd5c2" d="M 187.578125 266.449219 C 172.890625 236.972656 153.460938 239.132812 129.378906 241.292969 C 113.195312 242.746094 94.910156 244.199219 74.554688 236.046875 L 46.152344 267.402344 C 71.847656 277.222656 94.628906 276.3125 114.789062 275.402344 C 144.367188 274.0625 168.3125 272.726562 187.582031 305.289062 L 187.578125 266.449219 " fill-opacity="1" fill-rule="nonzero"/><path fill="#ccc5b3" d="M 182.253906 290.050781 C 167.996094 273.664062 151.332031 269.90625 131.441406 269.90625 C 126.132812 269.90625 120.738281 270.152344 115.023438 270.414062 C 109.015625 270.6875 102.804688 270.96875 96.378906 270.96875 C 85.367188 270.96875 71.054688 270.25 54.878906 265.179688 L 75.972656 241.898438 C 86.410156 245.636719 97.179688 247.386719 109.550781 247.386719 C 143.957031 247.386719 165.816406 235.101562 182.578125 267.597656 L 182.253906 290.050781 " fill-opacity="1" fill-rule="nonzero"/><g clip-path="url(#305413c7ec)"><path fill="#f4ebd6" d="M 187.578125 266.449219 C 166.40625 216.253906 125.890625 248.710938 108.035156 210.460938 L 75.097656 226.398438 C 100.875 279.347656 156.917969 235.546875 187.578125 304.988281 L 187.578125 266.449219 " fill-opacity="1" fill-rule="nonzero"/></g><path fill="#e1d9c5" d="M 182.59375 285.6875 C 166.015625 261.738281 144.992188 257.53125 126.0625 253.75 C 108.292969 250.195312 92.78125 247.089844 81.925781 228.617188 L 105.871094 217.03125 C 115.382812 233.117188 129.71875 235.832031 142.480469 238.25 C 157.820312 241.15625 172.324219 243.898438 182.59375 267.464844 L 182.59375 285.6875 " fill-opacity="1" fill-rule="nonzero"/><path fill="#e5e5e5" d="M 322.722656 275.605469 L 314.417969 266.371094 L 322.722656 275.605469 M 300.605469 267.035156 L 300.605469 267.035156 M 300.605469 267.035156 C 304.835938 267.035156 309.363281 266.835938 314.230469 266.390625 C 309.363281 266.835938 304.835938 267.035156 300.605469 267.035156 M 314.351562 266.378906 C 314.375 266.375 314.394531 266.375 314.417969 266.371094 C 314.394531 266.375 314.375 266.375 314.351562 266.378906 " fill-opacity="1" fill-rule="nonzero"/><path fill="#c6bead" d="M 187.589844 305.285156 L 187.589844 305.277344 C 188.964844 302.101562 190.988281 298.78125 193.582031 295.433594 C 200.585938 290.6875 208.074219 287.261719 216.003906 285.160156 C 200.992188 292.15625 192.214844 300.375 187.589844 305.285156 M 322.722656 275.605469 C 320.195312 275.226562 317.714844 274.886719 315.269531 274.578125 L 312.417969 271.40625 C 308.371094 271.722656 304.410156 271.878906 300.605469 271.878906 C 279.378906 271.878906 265.550781 267.113281 253.347656 262.90625 C 252.171875 262.5 251.015625 262.101562 249.871094 261.714844 C 249.253906 261.503906 248.640625 261.300781 248.03125 261.109375 C 250.945312 260.296875 253.929688 259.59375 256.953125 259.019531 C 268.246094 262.890625 281.347656 267.035156 300.605469 267.035156 C 304.835938 267.035156 309.363281 266.835938 314.230469 266.390625 C 314.273438 266.386719 314.3125 266.382812 314.351562 266.378906 C 314.375 266.375 314.394531 266.375 314.417969 266.371094 L 322.722656 275.605469 " fill-opacity="1" fill-rule="nonzero"/><path fill="#b6b0a0" d="M 193.582031 295.433594 C 204.140625 281.808594 224.105469 267.753906 248.03125 261.109375 C 248.640625 261.300781 249.253906 261.503906 249.871094 261.714844 C 251.015625 262.101562 252.171875 262.5 253.347656 262.90625 C 265.550781 267.113281 279.378906 271.878906 300.605469 271.878906 C 304.410156 271.878906 308.371094 271.722656 312.417969 271.40625 L 315.269531 274.578125 C 303.140625 273.058594 292.066406 272.386719 281.960938 272.386719 C 252.320312 272.386719 231.03125 278.160156 216.003906 285.160156 C 208.074219 287.261719 200.585938 290.6875 193.582031 295.433594 " fill-opacity="1" fill-rule="nonzero"/><path fill="#e9e1cd" d="M 186.707031 265.714844 C 195.144531 242.84375 234.996094 211.433594 274.277344 227.652344 L 306.984375 262.210938 C 253.285156 243.914062 198.804688 279.347656 187.582031 305.289062 L 186.707031 265.714844 " fill-opacity="1" fill-rule="nonzero"/><path fill="#d7cfbc" d="M 192.574219 267.558594 C 195.601562 258.789062 203.324219 249.183594 213.390625 241.71875 C 225.1875 232.972656 238.859375 228.152344 251.886719 228.152344 C 258.566406 228.152344 265.128906 229.394531 271.402344 231.847656 L 291.785156 253.386719 C 286.71875 252.601562 281.570312 252.210938 276.375 252.210938 C 256.199219 252.210938 235.140625 258.296875 217.074219 269.351562 C 207.472656 275.226562 199.1875 282.261719 193.0625 289.5625 L 192.574219 267.558594 " fill-opacity="1" fill-rule="nonzero"/><path fill="#d1cab8" d="M 187.578125 304.988281 L 187.578125 271.398438 C 188.871094 262.683594 212.8125 230.015625 245.234375 225.039062 L 250.847656 228.164062 C 238.132812 228.410156 224.871094 233.203125 213.390625 241.71875 C 203.324219 249.183594 195.601562 258.789062 192.574219 267.558594 L 193.0625 289.5625 C 199.1875 282.261719 207.472656 275.226562 217.074219 269.351562 C 219.101562 268.109375 221.171875 266.929688 223.273438 265.816406 C 202.230469 280.621094 188.75 298.226562 187.578125 304.988281 " fill-opacity="1" fill-rule="nonzero"/><path fill="#c1baa9" d="M 193.0625 289.5625 L 192.574219 267.558594 C 195.601562 258.789062 203.324219 249.183594 213.390625 241.71875 C 224.871094 233.203125 238.132812 228.410156 250.847656 228.164062 L 278.140625 243.359375 C 257.148438 246.117188 238.285156 255.25 223.273438 265.816406 C 221.171875 266.929688 219.101562 268.109375 217.074219 269.351562 C 207.472656 275.226562 199.1875 282.261719 193.0625 289.5625 " fill-opacity="1" fill-rule="nonzero"/><path fill="#fff6e0" d="M 187.578125 266.449219 C 188.832031 256.449219 212.066406 218.972656 243.523438 213.261719 L 275.449219 234.28125 C 226.53125 241.871094 189.53125 291.695312 187.578125 304.988281 L 187.578125 266.449219 " fill-opacity="1" fill-rule="nonzero"/><path fill="#ebe3ce" d="M 192.566406 266.765625 C 193.214844 263.234375 198.164062 252.75 207.980469 241.507812 C 218.609375 229.335938 230.792969 221.246094 242.503906 218.539062 L 262.933594 231.992188 C 240.460938 238.515625 222.539062 252.507812 210.847656 263.953125 C 203.5 271.148438 197.484375 278.40625 192.980469 284.933594 L 192.566406 266.765625 " fill-opacity="1" fill-rule="nonzero"/><path fill="#dbb965" d="M 159.164062 326.824219 C 158.425781 326.824219 157.738281 326.359375 157.496094 325.621094 C 157.191406 324.703125 157.691406 323.714844 158.613281 323.410156 C 164.671875 321.421875 167.992188 317.613281 171.203125 313.933594 C 173.582031 311.207031 175.832031 308.628906 179 306.960938 C 179.179688 306.855469 179.464844 306.710938 179.976562 306.472656 C 184.902344 304.242188 191.332031 304.417969 196.019531 306.890625 L 196.5625 307.183594 C 199.574219 308.933594 201.730469 311.398438 204.015625 314.011719 C 207.207031 317.660156 210.507812 321.429688 216.539062 323.410156 C 217.460938 323.714844 217.960938 324.703125 217.65625 325.621094 C 217.355469 326.539062 216.359375 327.039062 215.441406 326.738281 C 208.492188 324.457031 204.707031 320.128906 201.367188 316.316406 C 199.339844 313.996094 197.421875 311.800781 195.011719 310.335938 L 194.78125 310.207031 C 194.675781 310.144531 194.570312 310.089844 194.460938 310.035156 L 194.214844 309.902344 C 190.527344 308.023438 185.304688 307.910156 181.453125 309.648438 C 181.4375 309.65625 181.148438 309.796875 180.9375 309.902344 L 180.691406 310.035156 C 178.078125 311.394531 176.027344 313.742188 173.859375 316.230469 C 170.496094 320.082031 166.691406 324.445312 159.714844 326.738281 C 159.53125 326.796875 159.347656 326.824219 159.164062 326.824219 " fill-opacity="1" fill-rule="nonzero"/><g clip-path="url(#a1c8ca90ef)"><path fill="#e06a14" d="M 187.578125 337.042969 C 176.242188 337.042969 163.753906 336.234375 158.128906 326.824219 L 12.707031 326.824219 C 11.738281 326.824219 10.953125 326.042969 10.953125 325.074219 C 10.953125 324.105469 11.738281 323.324219 12.707031 323.324219 L 159.164062 323.324219 C 159.820312 323.324219 160.425781 323.6875 160.726562 324.269531 C 164.722656 331.988281 173.960938 333.542969 187.578125 333.542969 C 201.191406 333.542969 210.429688 331.988281 214.425781 324.269531 C 214.730469 323.6875 215.332031 323.324219 215.988281 323.324219 L 362.441406 323.324219 C 363.414062 323.324219 364.203125 324.105469 364.203125 325.074219 C 364.203125 326.042969 363.414062 326.824219 362.441406 326.824219 L 217.023438 326.824219 C 211.398438 336.234375 198.910156 337.042969 187.578125 337.042969 " fill-opacity="1" fill-rule="nonzero"/></g><g clip-path="url(#dad5e2f0fc)"><path fill="#a52929" d="M 71.003906 154.859375 L 36.589844 178.929688 L 45.457031 151.769531 L 50.0625 155.105469 L 46.757812 165.027344 L 69.203125 148.851562 Z M 74.535156 139.140625 L 86.550781 179.515625 L 63.988281 162.683594 L 68.628906 159.394531 L 76.660156 165.417969 L 68.269531 138.914062 Z M 60.292969 131.125 L 102.582031 131.171875 L 79.539062 147.792969 L 77.695312 142.414062 L 86.261719 136.675781 L 58.308594 137.070312 Z M 48.339844 141.917969 L 61.730469 101.480469 L 70.945312 129.28125 L 65.257812 129.351562 L 61.863281 118.707031 L 53.367188 145.664062 Z M 55.199219 156.449219 L 21.085938 131.410156 L 49.882812 131.1875 L 48.203125 136.621094 L 37.515625 136.578125 L 60.3125 152.8125 Z M 55.199219 156.449219 " fill-opacity="1" fill-rule="evenodd"/></g><g fill="#ffffff" fill-opacity="1"><g transform="translate(88.418318, 176.582983)"><g><path d="M 16.828125 0.265625 C 13.535156 0.265625 10.992188 -0.0664062 9.203125 -0.734375 C 7.421875 -1.410156 6.164062 -2.460938 5.4375 -3.890625 C 4.71875 -5.328125 4.320312 -7.144531 4.25 -9.34375 L 3.140625 -38.875 L 10.5625 -38.875 L 11.6875 -12.90625 C 11.757812 -11.28125 11.9375 -10.054688 12.21875 -9.234375 C 12.5 -8.421875 13.03125 -7.875 13.8125 -7.59375 C 14.59375 -7.3125 15.773438 -7.171875 17.359375 -7.171875 C 18.671875 -7.171875 19.628906 -6.820312 20.234375 -6.125 C 20.835938 -5.4375 21.140625 -4.582031 21.140625 -3.5625 C 21.140625 -2.457031 20.765625 -1.539062 20.015625 -0.8125 C 19.273438 -0.09375 18.210938 0.265625 16.828125 0.265625 Z M 16.828125 0.265625 "/></g></g></g><g fill="#ffffff" fill-opacity="1"><g transform="translate(105.307129, 176.582983)"><g><path d="M 0 0.265625 L 0.53125 -7.171875 C 1.800781 -7.171875 2.894531 -7.289062 3.8125 -7.53125 C 4.738281 -7.78125 5.519531 -8.285156 6.15625 -9.046875 C 6.789062 -9.816406 7.328125 -10.941406 7.765625 -12.421875 C 8.210938 -13.910156 8.613281 -15.894531 8.96875 -18.375 L 15.9375 -17.203125 C 15.789062 -16.390625 15.628906 -15.414062 15.453125 -14.28125 C 15.273438 -13.15625 15.1875 -12.113281 15.1875 -11.15625 C 15.1875 -9.875 15.71875 -8.890625 16.78125 -8.203125 C 17.84375 -7.515625 19.664062 -7.171875 22.25 -7.171875 C 23.5625 -7.171875 24.507812 -6.820312 25.09375 -6.125 C 25.675781 -5.4375 25.96875 -4.582031 25.96875 -3.5625 C 25.96875 -2.457031 25.601562 -1.539062 24.875 -0.8125 C 24.15625 -0.09375 23.101562 0.265625 21.71875 0.265625 C 19.238281 0.265625 17.125 -0.0507812 15.375 -0.6875 C 13.625 -1.320312 12.34375 -2.457031 11.53125 -4.09375 C 10.570312 -2.8125 9.445312 -1.859375 8.15625 -1.234375 C 6.863281 -0.617188 5.515625 -0.210938 4.109375 -0.015625 C 2.710938 0.171875 1.34375 0.265625 0 0.265625 Z M 14.8125 12.59375 C 13.789062 12.59375 12.914062 12.238281 12.1875 11.53125 C 11.457031 10.820312 11.09375 9.953125 11.09375 8.921875 C 11.09375 7.890625 11.457031 7.003906 12.1875 6.265625 C 12.914062 5.523438 13.789062 5.15625 14.8125 5.15625 C 15.800781 5.15625 16.648438 5.523438 17.359375 6.265625 C 18.066406 7.003906 18.421875 7.890625 18.421875 8.921875 C 18.421875 9.953125 18.066406 10.820312 17.359375 11.53125 C 16.648438 12.238281 15.800781 12.59375 14.8125 12.59375 Z M 5.625 12.59375 C 4.601562 12.59375 3.726562 12.238281 3 11.53125 C 2.269531 10.820312 1.90625 9.953125 1.90625 8.921875 C 1.90625 7.890625 2.269531 7.003906 3 6.265625 C 3.726562 5.523438 4.601562 5.15625 5.625 5.15625 C 6.613281 5.15625 7.460938 5.523438 8.171875 6.265625 C 8.878906 7.003906 9.234375 7.890625 9.234375 8.921875 C 9.234375 9.953125 8.878906 10.820312 8.171875 11.53125 C 7.460938 12.238281 6.613281 12.59375 5.625 12.59375 Z M 5.625 12.59375 "/></g></g></g><g fill="#ffffff" fill-opacity="1"><g transform="translate(127.028895, 176.582983)"><g><path d="M 0 0.265625 L 0.53125 -7.109375 C 3.4375 -7.109375 5.789062 -7.125 7.59375 -7.15625 C 9.394531 -7.195312 10.800781 -7.28125 11.8125 -7.40625 C 12.820312 -7.53125 13.570312 -7.6875 14.0625 -7.875 C 14.5625 -8.070312 14.988281 -8.296875 15.34375 -8.546875 C 15.632812 -8.765625 15.894531 -9.03125 16.125 -9.34375 C 16.351562 -9.664062 16.554688 -10.054688 16.734375 -10.515625 C 15.273438 -9.984375 13.769531 -9.71875 12.21875 -9.71875 C 9.382812 -9.71875 7.148438 -10.3125 5.515625 -11.5 C 3.890625 -12.6875 3.078125 -14.785156 3.078125 -17.796875 C 3.078125 -19.347656 3.34375 -20.894531 3.875 -22.4375 C 4.40625 -23.976562 5.164062 -25.375 6.15625 -26.625 C 7.144531 -27.882812 8.3125 -28.894531 9.65625 -29.65625 C 11.007812 -30.414062 12.5 -30.796875 14.125 -30.796875 C 16.53125 -30.796875 18.519531 -30.097656 20.09375 -28.703125 C 21.675781 -27.304688 22.847656 -25.429688 23.609375 -23.078125 C 24.367188 -20.722656 24.75 -18.113281 24.75 -15.25 C 24.75 -12.726562 24.375 -10.535156 23.625 -8.671875 C 22.882812 -6.816406 22.003906 -5.359375 20.984375 -4.296875 C 20.128906 -3.410156 19.148438 -2.664062 18.046875 -2.0625 C 16.953125 -1.46875 15.617188 -1 14.046875 -0.65625 C 12.472656 -0.320312 10.539062 -0.0859375 8.25 0.046875 C 5.96875 0.191406 3.21875 0.265625 0 0.265625 Z M 10.40625 -19.21875 C 10.40625 -17.695312 11.59375 -16.9375 13.96875 -16.9375 C 15.101562 -16.9375 16.234375 -17.113281 17.359375 -17.46875 C 17.179688 -19.414062 16.773438 -20.898438 16.140625 -21.921875 C 15.503906 -22.953125 14.691406 -23.46875 13.703125 -23.46875 C 12.847656 -23.46875 12.082031 -23.0625 11.40625 -22.25 C 10.738281 -21.4375 10.40625 -20.425781 10.40625 -19.21875 Z M 14.015625 -35.734375 C 12.921875 -35.734375 11.988281 -36.101562 11.21875 -36.84375 C 10.457031 -37.59375 10.078125 -38.515625 10.078125 -39.609375 C 10.078125 -40.710938 10.457031 -41.648438 11.21875 -42.421875 C 11.988281 -43.203125 12.921875 -43.59375 14.015625 -43.59375 C 15.078125 -43.59375 15.988281 -43.203125 16.75 -42.421875 C 17.507812 -41.648438 17.890625 -40.710938 17.890625 -39.609375 C 17.890625 -38.515625 17.507812 -37.59375 16.75 -36.84375 C 15.988281 -36.101562 15.078125 -35.734375 14.015625 -35.734375 Z M 14.015625 -35.734375 "/></g></g></g><g fill="#ffffff" fill-opacity="1"><g transform="translate(153.849169, 176.582983)"><g><path d="M 4.25 0 L 3.140625 -38.875 L 10.5625 -38.875 L 11.6875 0 Z M 4.25 0 "/></g></g></g><g fill="#ffffff" fill-opacity="1"><g transform="translate(168.34805, 176.582983)"><g><path d="M 0.84375 12.265625 L -1.859375 5.6875 C 0.648438 4.800781 2.878906 3.765625 4.828125 2.578125 C 6.773438 1.390625 8.304688 0.0234375 9.421875 -1.515625 C 10.535156 -3.054688 11.09375 -4.78125 11.09375 -6.6875 C 11.09375 -8.175781 10.753906 -9.804688 10.078125 -11.578125 C 9.410156 -13.347656 8.597656 -15.15625 7.640625 -17 L 14.609375 -20.34375 C 15.210938 -19.238281 15.757812 -18.054688 16.25 -16.796875 C 16.75 -15.546875 17.15625 -14.425781 17.46875 -13.4375 C 17.789062 -12.445312 18.003906 -11.773438 18.109375 -11.421875 C 18.609375 -9.722656 19.289062 -8.585938 20.15625 -8.015625 C 21.019531 -7.453125 22.425781 -7.171875 24.375 -7.171875 C 25.6875 -7.171875 26.640625 -6.820312 27.234375 -6.125 C 27.835938 -5.4375 28.140625 -4.582031 28.140625 -3.5625 C 28.140625 -2.457031 27.769531 -1.539062 27.03125 -0.8125 C 26.289062 -0.09375 25.226562 0.265625 23.84375 0.265625 C 21.15625 0.265625 19.101562 -0.457031 17.6875 -1.90625 C 17.082031 0.28125 15.9375 2.300781 14.25 4.15625 C 12.570312 6.019531 10.566406 7.640625 8.234375 9.015625 C 5.898438 10.398438 3.4375 11.484375 0.84375 12.265625 Z M 0.84375 12.265625 "/></g></g></g><g fill="#ffffff" fill-opacity="1"><g transform="translate(192.247305, 176.582983)"><g><path d="M -0.21875 0.265625 L 0.3125 -7.171875 C 2.019531 -7.171875 3.609375 -7.25 5.078125 -7.40625 C 6.546875 -7.5625 7.898438 -7.785156 9.140625 -8.078125 C 8.390625 -8.921875 7.609375 -9.734375 6.796875 -10.515625 C 5.984375 -11.296875 5.257812 -11.953125 4.625 -12.484375 C 4.445312 -12.617188 4.242188 -12.992188 4.015625 -13.609375 C 3.785156 -14.234375 3.582031 -14.878906 3.40625 -15.546875 C 3.226562 -16.222656 3.140625 -16.722656 3.140625 -17.046875 C 3.140625 -17.859375 3.519531 -18.722656 4.28125 -19.640625 C 5.039062 -20.566406 6.066406 -21.425781 7.359375 -22.21875 C 8.648438 -23.019531 10.082031 -23.675781 11.65625 -24.1875 C 13.226562 -24.707031 14.832031 -24.96875 16.46875 -24.96875 C 19.71875 -24.96875 22.179688 -24.257812 23.859375 -22.84375 C 25.546875 -21.425781 26.390625 -19.566406 26.390625 -17.265625 C 26.390625 -15.671875 26.0625 -14.078125 25.40625 -12.484375 C 24.757812 -10.890625 23.78125 -9.382812 22.46875 -7.96875 C 23.5625 -7.71875 24.726562 -7.519531 25.96875 -7.375 C 27.207031 -7.238281 28.484375 -7.171875 29.796875 -7.171875 C 31.109375 -7.171875 32.0625 -6.820312 32.65625 -6.125 C 33.257812 -5.4375 33.5625 -4.582031 33.5625 -3.5625 C 33.5625 -2.457031 33.1875 -1.539062 32.4375 -0.8125 C 31.695312 -0.09375 30.640625 0.265625 29.265625 0.265625 C 26.253906 0.265625 23.597656 0.0078125 21.296875 -0.5 C 18.992188 -1.019531 16.941406 -1.753906 15.140625 -2.703125 C 13.117188 -1.785156 10.820312 -1.0625 8.25 -0.53125 C 5.6875 0 2.863281 0.265625 -0.21875 0.265625 Z M 10.03125 -17.15625 C 10.914062 -16.445312 11.914062 -15.539062 13.03125 -14.4375 C 14.15625 -13.34375 15.191406 -12.226562 16.140625 -11.09375 C 18.085938 -12.550781 19.0625 -14.128906 19.0625 -15.828125 C 19.0625 -16.535156 18.796875 -17.160156 18.265625 -17.703125 C 17.734375 -18.253906 16.78125 -18.53125 15.40625 -18.53125 C 14.695312 -18.53125 13.828125 -18.414062 12.796875 -18.1875 C 11.773438 -17.957031 10.851562 -17.613281 10.03125 -17.15625 Z M 15.875 -29.90625 C 14.78125 -29.90625 13.847656 -30.273438 13.078125 -31.015625 C 12.316406 -31.765625 11.9375 -32.6875 11.9375 -33.78125 C 11.9375 -34.882812 12.316406 -35.820312 13.078125 -36.59375 C 13.847656 -37.375 14.78125 -37.765625 15.875 -37.765625 C 16.9375 -37.765625 17.847656 -37.375 18.609375 -36.59375 C 19.367188 -35.820312 19.75 -34.882812 19.75 -33.78125 C 19.75 -32.6875 19.367188 -31.765625 18.609375 -31.015625 C 17.847656 -30.273438 16.9375 -29.90625 15.875 -29.90625 Z M 15.875 -29.90625 "/></g></g></g><g fill="#ffffff" fill-opacity="1"><g transform="translate(221.563725, 176.582983)"><g><path d="M 0 0.265625 L 0.53125 -7.171875 C 4.351562 -7.171875 8.066406 -7.59375 11.671875 -8.4375 C 15.285156 -9.289062 18.492188 -10.65625 21.296875 -12.53125 C 19.671875 -13.488281 17.875 -14.234375 15.90625 -14.765625 C 13.9375 -15.296875 11.785156 -15.5625 9.453125 -15.5625 C 8.566406 -15.5625 7.65625 -15.515625 6.71875 -15.421875 C 5.78125 -15.335938 4.832031 -15.191406 3.875 -14.984375 L 2.8125 -22.25 C 3.84375 -22.5 4.921875 -22.691406 6.046875 -22.828125 C 7.179688 -22.972656 8.210938 -23.046875 9.140625 -23.046875 C 11.546875 -23.046875 13.703125 -22.726562 15.609375 -22.09375 C 17.523438 -21.457031 19.269531 -20.710938 20.84375 -19.859375 C 22.414062 -19.015625 23.882812 -18.269531 25.25 -17.625 C 26.613281 -16.988281 27.953125 -16.671875 29.265625 -16.671875 L 31.234375 -16.671875 L 32.078125 -9.609375 C 31.296875 -9.578125 30.550781 -9.472656 29.84375 -9.296875 C 29.132812 -9.117188 28.445312 -8.90625 27.78125 -8.65625 C 28.664062 -8.09375 29.726562 -7.703125 30.96875 -7.484375 C 32.207031 -7.273438 33.640625 -7.171875 35.265625 -7.171875 C 36.609375 -7.171875 37.5625 -6.820312 38.125 -6.125 C 38.695312 -5.4375 38.984375 -4.582031 38.984375 -3.5625 C 38.984375 -2.457031 38.617188 -1.539062 37.890625 -0.8125 C 37.171875 -0.09375 36.117188 0.265625 34.734375 0.265625 C 31.898438 0.265625 29.398438 -0.140625 27.234375 -0.953125 C 25.078125 -1.765625 23.347656 -3.359375 22.046875 -5.734375 C 20.410156 -4.816406 18.609375 -3.894531 16.640625 -2.96875 C 14.679688 -2.050781 12.351562 -1.28125 9.65625 -0.65625 C 6.96875 -0.0390625 3.75 0.265625 0 0.265625 Z M 15.03125 12.21875 C 14.007812 12.21875 13.132812 11.863281 12.40625 11.15625 C 11.675781 10.445312 11.3125 9.578125 11.3125 8.546875 C 11.3125 7.523438 11.675781 6.632812 12.40625 5.875 C 13.132812 5.113281 14.007812 4.734375 15.03125 4.734375 C 16.019531 4.734375 16.882812 5.113281 17.625 5.875 C 18.375 6.632812 18.75 7.523438 18.75 8.546875 C 18.75 9.578125 18.375 10.445312 17.625 11.15625 C 16.882812 11.863281 16.019531 12.21875 15.03125 12.21875 Z M 15.03125 12.21875 "/></g></g></g><g fill="#ffffff" fill-opacity="1"><g transform="translate(256.297311, 176.582983)"><g><path d="M 0 0.265625 L 0.53125 -7.171875 C 2.15625 -7.171875 3.320312 -7.335938 4.03125 -7.671875 C 4.738281 -8.003906 5.160156 -8.640625 5.296875 -9.578125 C 5.441406 -10.523438 5.484375 -11.898438 5.421875 -13.703125 L 4.46875 -38.875 L 11.953125 -38.875 L 13.015625 -13.171875 C 13.085938 -11.117188 13.003906 -9.269531 12.765625 -7.625 C 12.535156 -5.976562 11.988281 -4.566406 11.125 -3.390625 C 10.257812 -2.222656 8.929688 -1.320312 7.140625 -0.6875 C 5.359375 -0.0507812 2.976562 0.265625 0 0.265625 Z M 0 0.265625 "/></g></g></g><g fill="#ffffff" fill-opacity="1"><g transform="translate(272.070822, 176.582983)"><g><path d="M 4.25 0 L 3.140625 -38.875 L 10.5625 -38.875 L 11.6875 0 Z M 4.25 0 "/></g></g></g></svg>