<svg xmlns="http://www.w3.org/2000/svg" xmlns:xlink="http://www.w3.org/1999/xlink" width="500" zoomAndPan="magnify" viewBox="0 0 375 374.999991" height="500" preserveAspectRatio="xMidYMid meet" version="1.0"><defs><g/><clipPath id="898c62dbb0"><path d="M 49 102.328125 L 191.625 102.328125 L 191.625 273 L 49 273 Z M 49 102.328125 " clip-rule="nonzero"/></clipPath><clipPath id="0d72afb5e3"><path d="M 75 210.386719 L 188 210.386719 L 188 305 L 75 305 Z M 75 210.386719 " clip-rule="nonzero"/></clipPath><clipPath id="87d5b73ef3"><path d="M 10.953125 323.125 L 364.203125 323.125 L 364.203125 337.042969 L 10.953125 337.042969 Z M 10.953125 323.125 " clip-rule="nonzero"/></clipPath><clipPath id="648c89db20"><path d="M 211.121094 55.003906 L 282 55.003906 L 282 126 L 211.121094 126 Z M 211.121094 55.003906 " clip-rule="nonzero"/></clipPath></defs><path fill="#f8b739" d="M 51.371094 93.96875 C 41.183594 93.949219 30.316406 93.152344 21.527344 98.6875 C 8.296875 107.027344 5.230469 126.96875 9.878906 142.667969 C 14.527344 158.363281 24.921875 171.179688 33.820312 184.601562 C 42.714844 198.019531 50.585938 213.714844 48.933594 230.089844 C 47.855469 240.796875 42.753906 250.78125 42.351562 261.542969 C 41.792969 276.316406 50.390625 290.101562 61.484375 298.867188 C 72.578125 307.632812 85.960938 312.269531 99.085938 316.769531 C 117.015625 322.917969 136.011719 329.125 154.363281 324.632812 C 185.75 316.945312 205.335938 280.644531 236.460938 271.832031 C 257.492188 265.878906 280.390625 273.589844 301.296875 267.152344 C 323.828125 260.214844 340.046875 237.109375 344.386719 212.390625 C 348.730469 187.667969 342.625 161.882812 331.867188 139.535156 C 321.105469 117.183594 305.914062 97.707031 290.847656 78.429688 C 278.285156 62.355469 264.847656 45.605469 246.457031 38.480469 C 224.449219 29.957031 199.429688 36.359375 178.21875 44.601562 C 164.199219 50.050781 152.675781 60.40625 140.019531 68.539062 C 126.457031 77.253906 111.0625 83.585938 95.792969 87.851562 C 81.308594 91.898438 66.34375 94 51.371094 93.96875 " fill-opacity="1" fill-rule="nonzero"/><g clip-path="url(#898c62dbb0)"><path fill="#c4912e" d="M 68.171875 102.578125 C 67.140625 104.371094 65.691406 107.207031 67.480469 109.144531 C 68.167969 111.902344 59.003906 116.417969 59.59375 121.714844 C 59.375 124.6875 60.964844 127.039062 60.441406 130.171875 C 60.695312 133.945312 60.542969 137.730469 60.585938 141.511719 C 55.425781 142.894531 59.613281 147.804688 59.792969 151.148438 C 61.460938 154.003906 60.003906 156.78125 57.613281 157.796875 C 57.363281 160.324219 59.335938 164.835938 59.925781 165.929688 C 60.683594 166.925781 60.011719 170.316406 59.25 171.191406 C 61.417969 173.109375 60.046875 177.296875 60.585938 180.246094 C 60.660156 184.179688 60.0625 188.050781 60.253906 191.996094 C 59.398438 195.003906 60.332031 198.75 59.613281 201.957031 C 59.703125 209 59.039062 215.957031 59.265625 223.011719 C 58.53125 231.109375 59.328125 239.324219 58.273438 247.429688 C 55.117188 248.011719 51.355469 247.960938 49.035156 250.398438 C 50.652344 253.566406 46.910156 260.398438 51.921875 260.957031 C 56.445312 261.472656 53.910156 266.539062 54.789062 269.535156 C 53.746094 273.925781 58.859375 271.613281 61.371094 272.175781 L 122.285156 272.175781 C 125.035156 271.351562 128.195312 272.605469 131.523438 272.175781 C 134.652344 271.71875 136.875 272.328125 140.359375 272.175781 L 191.902344 272.175781 C 191.945312 263.9375 191.847656 255.40625 191.902344 247.429688 C 186.789062 246.359375 179.972656 246.609375 174.746094 245.777344 C 171.300781 245.871094 167.445312 245.550781 164.515625 245.117188 C 161.117188 244.792969 164.996094 240.605469 164.515625 238.519531 C 164.863281 235.167969 166.441406 233.097656 165.835938 229.609375 C 166.328125 220.910156 159.59375 214.398438 153.863281 208.730469 C 146.6875 202.488281 138.769531 196.832031 129.871094 193.316406 C 130.398438 192.394531 122.300781 190.957031 126.242188 186.714844 C 129.414062 184.574219 125.871094 178.714844 123.460938 179.550781 C 119.863281 183.289062 122.902344 184.84375 122.882812 184.179688 C 120.601562 185.933594 126.125 188.683594 122.285156 191.667969 C 126.816406 191.253906 117.722656 192.550781 116.328125 194.3125 C 104.785156 199.679688 95.261719 208.601562 87.308594 218.390625 C 85.496094 221.128906 84.242188 223.730469 84.410156 227.101562 C 83.738281 232.800781 86.269531 238.570312 87.308594 243.140625 C 88 246.363281 84.082031 244.96875 82.027344 245.449219 C 78.316406 246.53125 78.460938 243.460938 78.730469 240.714844 C 78.765625 234.734375 77.984375 229.097656 78.320312 223.296875 C 78.007812 218.882812 78.179688 213.921875 77.65625 209.894531 C 77.867188 197.867188 76.484375 185.882812 76.75 173.847656 C 78.054688 171.027344 77.171875 168.371094 77.628906 164.613281 C 78.410156 162.507812 79.636719 159.363281 78.730469 156.691406 C 74.054688 156.125 77.472656 151.183594 77.839844 148.367188 C 79.949219 144.714844 77.445312 142.582031 76.417969 139.964844 C 76.472656 134.65625 76.238281 129.234375 77.078125 124.023438 C 79.164062 118.128906 71.066406 113.636719 69.160156 108.949219 C 71.664062 107.265625 69.132812 104.734375 68.832031 102.792969 C 69.019531 102.316406 68.328125 102.710938 68.171875 102.578125 Z M 68.265625 147.820312 C 70.769531 150.734375 70.902344 157.691406 66.867188 155.054688 C 66.757812 152.59375 66.882812 149.945312 68.265625 147.820312 Z M 73.78125 149.429688 C 74.179688 151.386719 74.410156 158.667969 72.460938 154.480469 C 72.238281 152.582031 73.175781 150.96875 73.78125 149.429688 Z M 124.265625 172.527344 C 123.753906 174.53125 122.765625 176.597656 123.933594 178.136719 C 126.082031 179.046875 124.964844 173.640625 124.265625 172.527344 Z M 76.421875 172.855469 C 76.867188 172.753906 76.28125 173.226562 76.421875 172.855469 Z M 75.761719 174.011719 C 74.578125 174.3125 75.4375 174.09375 75.761719 174.011719 Z M 76.421875 185.394531 C 76.589844 185.921875 75.382812 187.460938 76.421875 185.394531 Z M 125.585938 187.046875 C 124.210938 187.5625 125.140625 188.1875 125.585938 187.046875 Z M 76.421875 196.285156 C 76.226562 198.214844 76 196.484375 76.421875 196.285156 Z M 79.390625 246.4375 C 79.882812 246.125 80.625 247.574219 79.390625 246.4375 Z M 80.050781 247.097656 C 80.578125 247.382812 79.75 248.417969 80.050781 247.097656 Z M 80.050781 247.097656 " fill-opacity="1" fill-rule="nonzero"/></g><path fill="#52331e" d="M 12.710938 325.074219 L 44.761719 289.457031 L 330.390625 289.457031 L 362.441406 325.074219 L 215.988281 325.074219 C 211.300781 334.125 200.171875 335.292969 187.578125 335.292969 C 174.980469 335.292969 163.851562 334.125 159.164062 325.074219 L 12.710938 325.074219 " fill-opacity="1" fill-rule="nonzero"/><path fill="#b8ac8d" d="M 180.726562 308.054688 C 180.453125 308.183594 180.183594 308.316406 179.921875 308.457031 C 179.746094 308.550781 179.609375 308.621094 179.480469 308.699219 C 137.519531 290.550781 71.222656 322.257812 22.753906 312.96875 C 23.335938 312.90625 24.003906 312.859375 24.660156 312.808594 C 100.875 307.136719 144.878906 273.945312 180.726562 308.054688 " fill-opacity="1" fill-rule="nonzero"/><path fill="#b8ac8d" d="M 172.882812 314.675781 C 172.667969 314.925781 172.4375 315.183594 172.214844 315.441406 C 172.128906 315.539062 172.046875 315.636719 171.964844 315.734375 C 171.644531 316.101562 171.320312 316.460938 170.992188 316.828125 L 168.53125 316.816406 L 120.195312 317.367188 L 90.933594 319.019531 L 53.089844 322.371094 L 21.214844 321.96875 L 18.308594 320.328125 L 18.105469 320.210938 L 22.042969 319.242188 L 27.992188 317.769531 L 91.683594 311.234375 L 163.210938 307.113281 L 172.882812 314.675781 " fill-opacity="1" fill-rule="nonzero"/><path fill="#fff6e0" d="M 23.222656 320.988281 L 20 316.242188 L 16.539062 320.085938 Z M 23.222656 320.988281 " fill-opacity="1" fill-rule="nonzero"/><path fill="#f0e3c3" d="M 171.964844 315.734375 C 171.644531 316.101562 171.320312 316.460938 170.992188 316.828125 C 169.398438 318.59375 167.671875 320.34375 165.519531 321.875 C 127.371094 313.3125 79.617188 326.054688 15.433594 323.007812 L 16.539062 320.089844 L 18.105469 320.210938 C 18.15625 320.214844 18.210938 320.222656 18.261719 320.222656 C 19.835938 320.339844 21.390625 320.449219 22.917969 320.542969 C 28.773438 320.90625 34.304688 321.09375 39.535156 321.132812 C 102.199219 321.671875 123.808594 301.859375 171.964844 315.734375 " fill-opacity="1" fill-rule="nonzero"/><path fill="#fff6e0" d="M 24.046875 309.328125 L 20.914062 312.808594 C 22.304688 312.933594 23.671875 313.046875 25.019531 313.148438 C 24.238281 313.085938 24.046875 309.328125 24.046875 309.328125 " fill-opacity="1" fill-rule="nonzero"/><path fill="#f0e3c3" d="M 179.878906 308.480469 C 179.746094 308.550781 179.609375 308.621094 179.480469 308.699219 C 176.894531 310.191406 174.917969 312.359375 172.882812 314.675781 C 172.667969 314.925781 172.4375 315.183594 172.214844 315.441406 C 154.964844 308.761719 139.71875 308.601562 123.59375 310.71875 C 100.492188 313.742188 73.96875 321.085938 39.535156 321.132812 C 34.203125 321.140625 28.679688 320.976562 22.949219 320.582031 C 21.402344 320.480469 19.84375 320.363281 18.261719 320.222656 C 18.210938 320.222656 18.15625 320.214844 18.105469 320.210938 L 19.328125 316.988281 L 20.917969 312.808594 C 21.507812 312.859375 22.085938 312.910156 22.675781 312.953125 C 23.464844 313.023438 24.214844 313.082031 24.953125 313.132812 C 99.113281 318.40625 126.769531 277.382812 179.878906 308.480469 " fill-opacity="1" fill-rule="nonzero"/><path fill="#f0e3c3" d="M 187.578125 305.832031 L 185.023438 306.847656 C 183.398438 307.0625 181.992188 307.480469 180.726562 308.054688 C 180.453125 308.183594 180.183594 308.316406 179.921875 308.457031 C 153.914062 290.246094 124.007812 294.097656 103.277344 301.117188 C 84.421875 307.503906 63.199219 315.148438 24.863281 313.082031 C 24.144531 313.042969 23.410156 313 22.675781 312.953125 L 24.042969 309.332031 L 25.480469 305.550781 C 64.957031 309.214844 86.867188 300.222656 106.089844 293.714844 C 128.644531 286.078125 160.136719 281.625 187.578125 305.832031 " fill-opacity="1" fill-rule="nonzero"/><path fill="#fff6e0" d="M 186.695312 266.371094 C 165.257812 247.460938 141.339844 251.160156 123.71875 257.125 C 108.699219 262.210938 91.582031 269.234375 60.738281 266.371094 L 25.480469 305.546875 C 64.960938 309.214844 86.871094 300.222656 106.089844 293.714844 C 128.644531 286.078125 160.136719 281.625 187.578125 305.832031 L 186.695312 266.371094 " fill-opacity="1" fill-rule="nonzero"/><path fill="#ebe3ce" d="M 43.15625 301.550781 C 40.738281 301.550781 38.265625 301.5 35.75 301.390625 L 62.738281 271.40625 C 66.78125 271.722656 70.742188 271.878906 74.546875 271.878906 C 95.773438 271.878906 109.601562 267.113281 121.804688 262.90625 C 122.980469 262.5 124.136719 262.101562 125.28125 261.714844 C 134.363281 258.640625 142.441406 257.144531 149.984375 257.144531 C 162.011719 257.144531 172.449219 260.898438 181.835938 268.605469 L 181.835938 295.613281 C 169.28125 287.03125 155.152344 282.691406 139.707031 282.691406 C 128.824219 282.691406 117.316406 284.796875 104.523438 289.125 C 103.039062 289.628906 101.539062 290.148438 100.015625 290.671875 C 85.222656 295.769531 68.464844 301.550781 43.15625 301.550781 " fill-opacity="1" fill-rule="nonzero"/><path fill="#9f947a" d="M 352.476562 312.953125 C 303.933594 322.257812 237.640625 290.550781 195.679688 308.699219 C 195.550781 308.621094 195.40625 308.550781 195.273438 308.480469 C 194.96875 308.316406 194.699219 308.183594 194.425781 308.054688 C 230.269531 273.945312 274.277344 307.136719 350.492188 312.808594 C 351.148438 312.859375 351.816406 312.90625 352.476562 312.953125 " fill-opacity="1" fill-rule="nonzero"/><path fill="#9f947a" d="M 357.046875 320.210938 L 356.84375 320.328125 L 353.9375 321.96875 L 322.0625 322.371094 L 284.21875 319.019531 L 254.957031 317.367188 L 206.621094 316.816406 L 204.160156 316.828125 C 203.832031 316.460938 203.511719 316.101562 203.1875 315.734375 C 203.105469 315.636719 203.023438 315.539062 202.9375 315.441406 C 202.714844 315.183594 202.484375 314.925781 202.269531 314.675781 L 211.941406 307.113281 L 283.46875 311.234375 L 347.160156 317.769531 L 353.109375 319.242188 L 357.046875 320.210938 " fill-opacity="1" fill-rule="nonzero"/><path fill="#dcd4c1" d="M 358.613281 320.085938 L 355.152344 316.242188 L 351.929688 320.988281 Z M 358.613281 320.085938 " fill-opacity="1" fill-rule="nonzero"/><path fill="#cfc4a8" d="M 359.71875 323.007812 C 295.535156 326.054688 247.78125 313.3125 209.632812 321.875 C 207.480469 320.34375 205.753906 318.59375 204.160156 316.828125 C 203.832031 316.460938 203.511719 316.101562 203.1875 315.734375 C 251.34375 301.859375 272.953125 321.671875 335.617188 321.132812 C 340.851562 321.09375 346.382812 320.90625 352.234375 320.542969 C 353.761719 320.449219 355.316406 320.339844 356.890625 320.222656 C 356.941406 320.222656 356.996094 320.214844 357.046875 320.210938 L 358.613281 320.089844 L 359.71875 323.007812 " fill-opacity="1" fill-rule="nonzero"/><path fill="#dcd4c1" d="M 350.132812 313.148438 C 351.484375 313.046875 352.847656 312.933594 354.238281 312.808594 L 351.105469 309.328125 C 351.105469 309.328125 350.914062 313.085938 350.132812 313.148438 " fill-opacity="1" fill-rule="nonzero"/><path fill="#cfc4a8" d="M 357.046875 320.210938 C 356.996094 320.214844 356.941406 320.222656 356.890625 320.222656 C 355.308594 320.363281 353.75 320.480469 352.203125 320.582031 C 346.472656 320.976562 340.949219 321.140625 335.617188 321.132812 C 301.183594 321.085938 274.660156 313.742188 251.558594 310.71875 C 235.433594 308.601562 220.1875 308.761719 202.9375 315.441406 C 202.714844 315.183594 202.484375 314.925781 202.269531 314.675781 C 200.234375 312.359375 198.261719 310.195312 195.679688 308.699219 C 195.550781 308.621094 195.40625 308.550781 195.273438 308.480469 C 248.382812 277.382812 276.039062 318.40625 350.195312 313.132812 C 350.9375 313.082031 351.6875 313.023438 352.4375 312.957031 C 353.035156 312.910156 353.632812 312.859375 354.238281 312.808594 L 355.824219 316.988281 L 357.046875 320.210938 " fill-opacity="1" fill-rule="nonzero"/><path fill="#cfc4a8" d="M 352.476562 312.953125 C 351.742188 313 351.007812 313.042969 350.289062 313.082031 C 311.953125 315.148438 290.734375 307.503906 271.875 301.117188 C 251.144531 294.097656 221.238281 290.246094 195.234375 308.457031 C 194.96875 308.316406 194.699219 308.183594 194.425781 308.054688 C 193.160156 307.480469 191.753906 307.0625 190.132812 306.847656 L 187.578125 305.832031 C 215.015625 281.625 246.507812 286.078125 269.0625 293.714844 C 288.285156 300.222656 310.195312 309.214844 349.671875 305.550781 L 351.109375 309.332031 L 352.476562 312.953125 " fill-opacity="1" fill-rule="nonzero"/><path fill="#dcd4c1" d="M 188.457031 266.371094 C 209.894531 247.460938 233.8125 251.160156 251.433594 257.125 C 266.453125 262.210938 283.570312 269.234375 314.417969 266.371094 L 349.671875 305.546875 C 310.191406 309.214844 288.28125 300.222656 269.0625 293.714844 C 246.507812 286.078125 215.015625 281.625 187.578125 305.832031 L 188.457031 266.371094 " fill-opacity="1" fill-rule="nonzero"/><path fill="#cbc4b2" d="M 331.996094 301.550781 C 334.414062 301.550781 336.886719 301.5 339.402344 301.390625 L 312.417969 271.40625 C 308.371094 271.722656 304.410156 271.878906 300.605469 271.878906 C 279.378906 271.878906 265.550781 267.113281 253.347656 262.90625 C 252.171875 262.5 251.015625 262.101562 249.871094 261.714844 C 240.789062 258.640625 232.710938 257.144531 225.167969 257.144531 C 213.140625 257.144531 202.703125 260.898438 193.316406 268.605469 L 193.316406 295.613281 C 205.871094 287.03125 220 282.691406 235.445312 282.691406 C 246.328125 282.691406 257.835938 284.796875 270.625 289.125 C 272.113281 289.628906 273.613281 290.148438 275.136719 290.671875 C 289.925781 295.769531 306.691406 301.550781 331.996094 301.550781 " fill-opacity="1" fill-rule="nonzero"/><path fill="#ddd5c2" d="M 187.578125 266.449219 C 172.890625 236.972656 153.460938 239.132812 129.378906 241.292969 C 113.195312 242.746094 94.910156 244.199219 74.554688 236.046875 L 46.152344 267.402344 C 71.847656 277.222656 94.628906 276.3125 114.789062 275.402344 C 144.367188 274.0625 168.3125 272.726562 187.582031 305.289062 L 187.578125 266.449219 " fill-opacity="1" fill-rule="nonzero"/><path fill="#ccc5b3" d="M 182.253906 290.050781 C 167.996094 273.664062 151.332031 269.90625 131.441406 269.90625 C 126.132812 269.90625 120.738281 270.152344 115.023438 270.414062 C 109.015625 270.6875 102.804688 270.96875 96.378906 270.96875 C 85.367188 270.96875 71.054688 270.25 54.878906 265.179688 L 75.972656 241.898438 C 86.410156 245.636719 97.179688 247.386719 109.550781 247.386719 C 143.957031 247.386719 165.816406 235.101562 182.578125 267.597656 L 182.253906 290.050781 " fill-opacity="1" fill-rule="nonzero"/><g clip-path="url(#0d72afb5e3)"><path fill="#f4ebd6" d="M 187.578125 266.449219 C 166.40625 216.253906 125.890625 248.710938 108.035156 210.460938 L 75.097656 226.398438 C 100.875 279.347656 156.917969 235.546875 187.578125 304.988281 L 187.578125 266.449219 " fill-opacity="1" fill-rule="nonzero"/></g><path fill="#e1d9c5" d="M 182.59375 285.6875 C 166.015625 261.738281 144.992188 257.53125 126.0625 253.75 C 108.292969 250.195312 92.78125 247.089844 81.925781 228.617188 L 105.871094 217.03125 C 115.382812 233.117188 129.71875 235.832031 142.480469 238.25 C 157.820312 241.15625 172.324219 243.898438 182.59375 267.464844 L 182.59375 285.6875 " fill-opacity="1" fill-rule="nonzero"/><path fill="#e5e5e5" d="M 322.722656 275.605469 L 314.417969 266.371094 L 322.722656 275.605469 M 300.605469 267.035156 L 300.605469 267.035156 M 300.605469 267.035156 C 304.835938 267.035156 309.363281 266.835938 314.230469 266.390625 C 309.363281 266.835938 304.835938 267.035156 300.605469 267.035156 M 314.351562 266.378906 C 314.375 266.375 314.394531 266.375 314.417969 266.371094 C 314.394531 266.375 314.375 266.375 314.351562 266.378906 " fill-opacity="1" fill-rule="nonzero"/><path fill="#c6bead" d="M 187.589844 305.285156 L 187.589844 305.277344 C 188.964844 302.101562 190.988281 298.78125 193.582031 295.433594 C 200.585938 290.6875 208.074219 287.261719 216.003906 285.160156 C 200.992188 292.15625 192.214844 300.375 187.589844 305.285156 M 322.722656 275.605469 C 320.195312 275.226562 317.714844 274.886719 315.269531 274.578125 L 312.417969 271.40625 C 308.371094 271.722656 304.410156 271.878906 300.605469 271.878906 C 279.378906 271.878906 265.550781 267.113281 253.347656 262.90625 C 252.171875 262.5 251.015625 262.101562 249.871094 261.714844 C 249.253906 261.503906 248.640625 261.300781 248.03125 261.109375 C 250.945312 260.296875 253.929688 259.59375 256.953125 259.019531 C 268.246094 262.890625 281.347656 267.035156 300.605469 267.035156 C 304.835938 267.035156 309.363281 266.835938 314.230469 266.390625 C 314.273438 266.386719 314.3125 266.382812 314.351562 266.378906 C 314.375 266.375 314.394531 266.375 314.417969 266.371094 L 322.722656 275.605469 " fill-opacity="1" fill-rule="nonzero"/><path fill="#b6b0a0" d="M 193.582031 295.433594 C 204.140625 281.808594 224.105469 267.753906 248.03125 261.109375 C 248.640625 261.300781 249.253906 261.503906 249.871094 261.714844 C 251.015625 262.101562 252.171875 262.5 253.347656 262.90625 C 265.550781 267.113281 279.378906 271.878906 300.605469 271.878906 C 304.410156 271.878906 308.371094 271.722656 312.417969 271.40625 L 315.269531 274.578125 C 303.140625 273.058594 292.066406 272.386719 281.960938 272.386719 C 252.320312 272.386719 231.03125 278.160156 216.003906 285.160156 C 208.074219 287.261719 200.585938 290.6875 193.582031 295.433594 " fill-opacity="1" fill-rule="nonzero"/><path fill="#e9e1cd" d="M 186.707031 265.714844 C 195.144531 242.84375 234.996094 211.433594 274.277344 227.652344 L 306.984375 262.210938 C 253.285156 243.914062 198.804688 279.347656 187.582031 305.289062 L 186.707031 265.714844 " fill-opacity="1" fill-rule="nonzero"/><path fill="#d7cfbc" d="M 192.574219 267.558594 C 195.601562 258.789062 203.324219 249.183594 213.390625 241.71875 C 225.1875 232.972656 238.859375 228.152344 251.886719 228.152344 C 258.566406 228.152344 265.128906 229.394531 271.402344 231.847656 L 291.785156 253.386719 C 286.71875 252.601562 281.570312 252.210938 276.375 252.210938 C 256.199219 252.210938 235.140625 258.296875 217.074219 269.351562 C 207.472656 275.226562 199.1875 282.261719 193.0625 289.5625 L 192.574219 267.558594 " fill-opacity="1" fill-rule="nonzero"/><path fill="#d1cab8" d="M 187.578125 304.988281 L 187.578125 271.398438 C 188.871094 262.683594 212.8125 230.015625 245.234375 225.039062 L 250.847656 228.164062 C 238.132812 228.410156 224.871094 233.203125 213.390625 241.71875 C 203.324219 249.183594 195.601562 258.789062 192.574219 267.558594 L 193.0625 289.5625 C 199.1875 282.261719 207.472656 275.226562 217.074219 269.351562 C 219.101562 268.109375 221.171875 266.929688 223.273438 265.816406 C 202.230469 280.621094 188.75 298.226562 187.578125 304.988281 " fill-opacity="1" fill-rule="nonzero"/><path fill="#c1baa9" d="M 193.0625 289.5625 L 192.574219 267.558594 C 195.601562 258.789062 203.324219 249.183594 213.390625 241.71875 C 224.871094 233.203125 238.132812 228.410156 250.847656 228.164062 L 278.140625 243.359375 C 257.148438 246.117188 238.285156 255.25 223.273438 265.816406 C 221.171875 266.929688 219.101562 268.109375 217.074219 269.351562 C 207.472656 275.226562 199.1875 282.261719 193.0625 289.5625 " fill-opacity="1" fill-rule="nonzero"/><path fill="#fff6e0" d="M 187.578125 266.449219 C 188.832031 256.449219 212.066406 218.972656 243.523438 213.261719 L 275.449219 234.28125 C 226.53125 241.871094 189.53125 291.695312 187.578125 304.988281 L 187.578125 266.449219 " fill-opacity="1" fill-rule="nonzero"/><path fill="#ebe3ce" d="M 192.566406 266.765625 C 193.214844 263.234375 198.164062 252.75 207.980469 241.507812 C 218.609375 229.335938 230.792969 221.246094 242.503906 218.539062 L 262.933594 231.992188 C 240.460938 238.515625 222.539062 252.507812 210.847656 263.953125 C 203.5 271.148438 197.484375 278.40625 192.980469 284.933594 L 192.566406 266.765625 " fill-opacity="1" fill-rule="nonzero"/><path fill="#dbb965" d="M 159.164062 326.824219 C 158.425781 326.824219 157.738281 326.359375 157.496094 325.621094 C 157.191406 324.703125 157.691406 323.714844 158.613281 323.410156 C 164.671875 321.421875 167.992188 317.613281 171.203125 313.933594 C 173.582031 311.207031 175.832031 308.628906 179 306.960938 C 179.179688 306.855469 179.464844 306.710938 179.976562 306.472656 C 184.902344 304.242188 191.332031 304.417969 196.019531 306.890625 L 196.5625 307.183594 C 199.574219 308.933594 201.730469 311.398438 204.015625 314.011719 C 207.207031 317.660156 210.507812 321.429688 216.539062 323.410156 C 217.460938 323.714844 217.960938 324.703125 217.65625 325.621094 C 217.355469 326.539062 216.359375 327.039062 215.441406 326.738281 C 208.492188 324.457031 204.707031 320.128906 201.367188 316.316406 C 199.339844 313.996094 197.421875 311.800781 195.011719 310.335938 L 194.78125 310.207031 C 194.675781 310.144531 194.570312 310.089844 194.460938 310.035156 L 194.214844 309.902344 C 190.527344 308.023438 185.304688 307.910156 181.453125 309.648438 C 181.4375 309.65625 181.148438 309.796875 180.9375 309.902344 L 180.691406 310.035156 C 178.078125 311.394531 176.027344 313.742188 173.859375 316.230469 C 170.496094 320.082031 166.691406 324.445312 159.714844 326.738281 C 159.53125 326.796875 159.347656 326.824219 159.164062 326.824219 " fill-opacity="1" fill-rule="nonzero"/><g clip-path="url(#87d5b73ef3)"><path fill="#e06a14" d="M 187.578125 337.042969 C 176.242188 337.042969 163.753906 336.234375 158.128906 326.824219 L 12.707031 326.824219 C 11.738281 326.824219 10.953125 326.042969 10.953125 325.074219 C 10.953125 324.105469 11.738281 323.324219 12.707031 323.324219 L 159.164062 323.324219 C 159.820312 323.324219 160.425781 323.6875 160.726562 324.269531 C 164.722656 331.988281 173.960938 333.542969 187.578125 333.542969 C 201.191406 333.542969 210.429688 331.988281 214.425781 324.269531 C 214.730469 323.6875 215.332031 323.324219 215.988281 323.324219 L 362.441406 323.324219 C 363.414062 323.324219 364.203125 324.105469 364.203125 325.074219 C 364.203125 326.042969 363.414062 326.824219 362.441406 326.824219 L 217.023438 326.824219 C 211.398438 336.234375 198.910156 337.042969 187.578125 337.042969 " fill-opacity="1" fill-rule="nonzero"/></g><g clip-path="url(#648c89db20)"><path fill="#c4912e" d="M 271.015625 65.257812 C 264.328125 58.566406 255.613281 55.167969 246.855469 55.003906 C 252.035156 56.230469 256.953125 58.828125 260.988281 62.867188 C 272.59375 74.464844 272.585938 93.277344 260.988281 104.875 C 249.390625 116.476562 230.582031 116.476562 218.980469 104.878906 C 214.945312 100.835938 212.347656 95.917969 211.121094 90.742188 C 211.285156 99.5 214.683594 108.214844 221.367188 114.898438 C 235.078125 128.605469 257.304688 128.605469 271.015625 114.898438 C 284.722656 101.1875 284.722656 78.960938 271.015625 65.257812 Z M 271.015625 65.257812 " fill-opacity="1" fill-rule="nonzero"/></g><path fill="#c4912e" d="M 242.84375 66.078125 L 241.074219 76.121094 L 249.125 82.375 L 239.035156 83.792969 L 235.574219 93.382812 L 231.105469 84.21875 L 220.914062 83.894531 L 228.25 76.8125 L 225.410156 67.023438 L 234.410156 71.808594 Z M 242.84375 66.078125 " fill-opacity="1" fill-rule="nonzero"/><g fill="#ffffff" fill-opacity="1"><g transform="translate(115.503909, 134.903251)"><g><path d="M 29.53125 0.265625 C 26.875 0.265625 24.609375 -0.0859375 22.734375 -0.796875 C 20.859375 -1.503906 19.441406 -2.707031 18.484375 -4.40625 C 16.253906 -3.976562 14.109375 -3.84375 12.046875 -4 C 9.992188 -4.164062 8.171875 -4.609375 6.578125 -5.328125 C 4.992188 -6.054688 3.738281 -7.101562 2.8125 -8.46875 C 1.894531 -9.832031 1.4375 -11.523438 1.4375 -13.546875 C 1.4375 -15.910156 2.082031 -17.988281 3.375 -19.78125 C 4.664062 -21.570312 6.4375 -23.085938 8.6875 -24.328125 C 10.9375 -25.566406 13.472656 -26.519531 16.296875 -27.1875 L 16.140625 -31.234375 L 23.640625 -31.234375 L 24.53125 -12.421875 C 24.644531 -10.234375 25.132812 -8.8125 26 -8.15625 C 26.863281 -7.5 28.21875 -7.171875 30.0625 -7.171875 C 31.40625 -7.171875 32.359375 -6.820312 32.921875 -6.125 C 33.492188 -5.4375 33.78125 -4.582031 33.78125 -3.5625 C 33.78125 -2.457031 33.414062 -1.539062 32.6875 -0.8125 C 31.957031 -0.09375 30.90625 0.265625 29.53125 0.265625 Z M 8.875 -14.234375 C 8.875 -13.421875 9.269531 -12.78125 10.0625 -12.3125 C 10.863281 -11.851562 11.882812 -11.5625 13.125 -11.4375 C 14.363281 -11.320312 15.65625 -11.382812 17 -11.625 L 16.671875 -19.8125 C 14.265625 -19.414062 12.363281 -18.703125 10.96875 -17.671875 C 9.570312 -16.648438 8.875 -15.503906 8.875 -14.234375 Z M 10.78125 -36.75 C 9.757812 -36.75 8.882812 -37.109375 8.15625 -37.828125 C 7.425781 -38.554688 7.0625 -39.414062 7.0625 -40.40625 C 7.0625 -41.4375 7.425781 -42.320312 8.15625 -43.0625 C 8.882812 -43.8125 9.757812 -44.1875 10.78125 -44.1875 C 11.769531 -44.1875 12.617188 -43.8125 13.328125 -43.0625 C 14.035156 -42.320312 14.390625 -41.4375 14.390625 -40.40625 C 14.390625 -39.414062 14.035156 -38.554688 13.328125 -37.828125 C 12.617188 -37.109375 11.769531 -36.75 10.78125 -36.75 Z M 19.96875 -36.6875 C 18.945312 -36.6875 18.070312 -37.039062 17.34375 -37.75 C 16.613281 -38.457031 16.25 -39.328125 16.25 -40.359375 C 16.25 -41.378906 16.613281 -42.257812 17.34375 -43 C 18.070312 -43.75 18.945312 -44.125 19.96875 -44.125 C 20.957031 -44.125 21.804688 -43.75 22.515625 -43 C 23.222656 -42.257812 23.578125 -41.378906 23.578125 -40.359375 C 23.578125 -39.328125 23.222656 -38.457031 22.515625 -37.75 C 21.804688 -37.039062 20.957031 -36.6875 19.96875 -36.6875 Z M 19.96875 -36.6875 "/></g></g></g><g fill="#ffffff" fill-opacity="1"><g transform="translate(145.03277, 134.903251)"><g><path d="M 0 0.265625 L 0.53125 -7.171875 C 1.800781 -7.171875 2.894531 -7.289062 3.8125 -7.53125 C 4.738281 -7.78125 5.519531 -8.285156 6.15625 -9.046875 C 6.789062 -9.816406 7.328125 -10.941406 7.765625 -12.421875 C 8.210938 -13.910156 8.613281 -15.894531 8.96875 -18.375 L 15.9375 -17.203125 C 15.789062 -16.390625 15.628906 -15.414062 15.453125 -14.28125 C 15.273438 -13.15625 15.1875 -12.113281 15.1875 -11.15625 C 15.1875 -9.875 15.71875 -8.890625 16.78125 -8.203125 C 17.84375 -7.515625 19.664062 -7.171875 22.25 -7.171875 C 23.5625 -7.171875 24.507812 -6.820312 25.09375 -6.125 C 25.675781 -5.4375 25.96875 -4.582031 25.96875 -3.5625 C 25.96875 -2.457031 25.601562 -1.539062 24.875 -0.8125 C 24.15625 -0.09375 23.101562 0.265625 21.71875 0.265625 C 19.238281 0.265625 17.125 -0.0507812 15.375 -0.6875 C 13.625 -1.320312 12.34375 -2.457031 11.53125 -4.09375 C 10.570312 -2.8125 9.445312 -1.859375 8.15625 -1.234375 C 6.863281 -0.617188 5.515625 -0.210938 4.109375 -0.015625 C 2.710938 0.171875 1.34375 0.265625 0 0.265625 Z M 14.8125 12.59375 C 13.789062 12.59375 12.914062 12.238281 12.1875 11.53125 C 11.457031 10.820312 11.09375 9.953125 11.09375 8.921875 C 11.09375 7.890625 11.457031 7.003906 12.1875 6.265625 C 12.914062 5.523438 13.789062 5.15625 14.8125 5.15625 C 15.800781 5.15625 16.648438 5.523438 17.359375 6.265625 C 18.066406 7.003906 18.421875 7.890625 18.421875 8.921875 C 18.421875 9.953125 18.066406 10.820312 17.359375 11.53125 C 16.648438 12.238281 15.800781 12.59375 14.8125 12.59375 Z M 5.625 12.59375 C 4.601562 12.59375 3.726562 12.238281 3 11.53125 C 2.269531 10.820312 1.90625 9.953125 1.90625 8.921875 C 1.90625 7.890625 2.269531 7.003906 3 6.265625 C 3.726562 5.523438 4.601562 5.15625 5.625 5.15625 C 6.613281 5.15625 7.460938 5.523438 8.171875 6.265625 C 8.878906 7.003906 9.234375 7.890625 9.234375 8.921875 C 9.234375 9.953125 8.878906 10.820312 8.171875 11.53125 C 7.460938 12.238281 6.613281 12.59375 5.625 12.59375 Z M 5.625 12.59375 "/></g></g></g><g fill="#ffffff" fill-opacity="1"><g transform="translate(166.754536, 134.903251)"><g><path d="M 0 0.265625 L 0.53125 -7.171875 C 2.832031 -7.171875 4.441406 -7.425781 5.359375 -7.9375 C 6.285156 -8.445312 6.75 -9.535156 6.75 -11.203125 C 6.75 -12.191406 6.613281 -13.375 6.34375 -14.75 C 6.082031 -16.132812 5.738281 -17.5625 5.3125 -19.03125 C 4.882812 -20.507812 4.457031 -21.882812 4.03125 -23.15625 L 11.359375 -25.171875 C 11.785156 -23.972656 12.210938 -22.578125 12.640625 -20.984375 C 13.066406 -19.390625 13.429688 -17.738281 13.734375 -16.03125 C 14.035156 -14.332031 14.1875 -12.722656 14.1875 -11.203125 C 14.1875 -8.796875 13.8125 -6.835938 13.0625 -5.328125 C 12.320312 -3.828125 11.285156 -2.671875 9.953125 -1.859375 C 8.628906 -1.046875 7.117188 -0.488281 5.421875 -0.1875 C 3.722656 0.113281 1.914062 0.265625 0 0.265625 Z M 6.53125 12.484375 C 5.507812 12.484375 4.632812 12.128906 3.90625 11.421875 C 3.175781 10.710938 2.8125 9.84375 2.8125 8.8125 C 2.8125 7.789062 3.175781 6.898438 3.90625 6.140625 C 4.632812 5.378906 5.507812 5 6.53125 5 C 7.519531 5 8.382812 5.378906 9.125 6.140625 C 9.875 6.898438 10.25 7.789062 10.25 8.8125 C 10.25 9.84375 9.875 10.710938 9.125 11.421875 C 8.382812 12.128906 7.519531 12.484375 6.53125 12.484375 Z M 6.53125 12.484375 "/></g></g></g><g fill="#ffffff" fill-opacity="1"><g transform="translate(183.590235, 134.903251)"><g><path d="M 0.84375 12.265625 L -1.859375 5.6875 C 0.648438 4.800781 2.878906 3.765625 4.828125 2.578125 C 6.773438 1.390625 8.304688 0.0234375 9.421875 -1.515625 C 10.535156 -3.054688 11.09375 -4.78125 11.09375 -6.6875 C 11.09375 -8.175781 10.753906 -9.804688 10.078125 -11.578125 C 9.410156 -13.347656 8.597656 -15.15625 7.640625 -17 L 14.609375 -20.34375 C 15.210938 -19.238281 15.757812 -18.054688 16.25 -16.796875 C 16.75 -15.546875 17.15625 -14.425781 17.46875 -13.4375 C 17.789062 -12.445312 18.003906 -11.773438 18.109375 -11.421875 C 18.609375 -9.722656 19.289062 -8.585938 20.15625 -8.015625 C 21.019531 -7.453125 22.425781 -7.171875 24.375 -7.171875 C 25.6875 -7.171875 26.640625 -6.820312 27.234375 -6.125 C 27.835938 -5.4375 28.140625 -4.582031 28.140625 -3.5625 C 28.140625 -2.457031 27.769531 -1.539062 27.03125 -0.8125 C 26.289062 -0.09375 25.226562 0.265625 23.84375 0.265625 C 21.15625 0.265625 19.101562 -0.457031 17.6875 -1.90625 C 17.082031 0.28125 15.9375 2.300781 14.25 4.15625 C 12.570312 6.019531 10.566406 7.640625 8.234375 9.015625 C 5.898438 10.398438 3.4375 11.484375 0.84375 12.265625 Z M 0.84375 12.265625 "/></g></g></g><g fill="#ffffff" fill-opacity="1"><g transform="translate(207.489489, 134.903251)"><g><path d="M 0 0.265625 L 0.53125 -7.171875 C 1.800781 -7.171875 2.894531 -7.289062 3.8125 -7.53125 C 4.738281 -7.78125 5.519531 -8.285156 6.15625 -9.046875 C 6.789062 -9.816406 7.328125 -10.941406 7.765625 -12.421875 C 8.210938 -13.910156 8.613281 -15.894531 8.96875 -18.375 L 15.9375 -17.203125 C 15.789062 -16.390625 15.628906 -15.414062 15.453125 -14.28125 C 15.273438 -13.15625 15.1875 -12.113281 15.1875 -11.15625 C 15.1875 -9.875 15.71875 -8.890625 16.78125 -8.203125 C 17.84375 -7.515625 19.664062 -7.171875 22.25 -7.171875 C 23.5625 -7.171875 24.507812 -6.820312 25.09375 -6.125 C 25.675781 -5.4375 25.96875 -4.582031 25.96875 -3.5625 C 25.96875 -2.457031 25.601562 -1.539062 24.875 -0.8125 C 24.15625 -0.09375 23.101562 0.265625 21.71875 0.265625 C 19.238281 0.265625 17.125 -0.0507812 15.375 -0.6875 C 13.625 -1.320312 12.34375 -2.457031 11.53125 -4.09375 C 10.570312 -2.8125 9.445312 -1.859375 8.15625 -1.234375 C 6.863281 -0.617188 5.515625 -0.210938 4.109375 -0.015625 C 2.710938 0.171875 1.34375 0.265625 0 0.265625 Z M 7.859375 -23.21875 C 6.835938 -23.21875 5.960938 -23.578125 5.234375 -24.296875 C 4.503906 -25.023438 4.140625 -25.882812 4.140625 -26.875 C 4.140625 -27.90625 4.503906 -28.789062 5.234375 -29.53125 C 5.960938 -30.28125 6.835938 -30.65625 7.859375 -30.65625 C 8.847656 -30.65625 9.695312 -30.28125 10.40625 -29.53125 C 11.113281 -28.789062 11.46875 -27.90625 11.46875 -26.875 C 11.46875 -25.882812 11.113281 -25.023438 10.40625 -24.296875 C 9.695312 -23.578125 8.847656 -23.21875 7.859375 -23.21875 Z M 17.046875 -23.15625 C 16.023438 -23.15625 15.148438 -23.507812 14.421875 -24.21875 C 13.691406 -24.925781 13.328125 -25.796875 13.328125 -26.828125 C 13.328125 -27.847656 13.691406 -28.726562 14.421875 -29.46875 C 15.148438 -30.21875 16.023438 -30.59375 17.046875 -30.59375 C 18.035156 -30.59375 18.882812 -30.21875 19.59375 -29.46875 C 20.300781 -28.726562 20.65625 -27.847656 20.65625 -26.828125 C 20.65625 -25.796875 20.300781 -24.925781 19.59375 -24.21875 C 18.882812 -23.507812 18.035156 -23.15625 17.046875 -23.15625 Z M 17.046875 -23.15625 "/></g></g></g><g fill="#ffffff" fill-opacity="1"><g transform="translate(229.211255, 134.903251)"><g><path d="M 0 0.265625 L 0.53125 -7.171875 C 2.15625 -7.171875 3.320312 -7.335938 4.03125 -7.671875 C 4.738281 -8.003906 5.160156 -8.640625 5.296875 -9.578125 C 5.441406 -10.523438 5.484375 -11.898438 5.421875 -13.703125 L 4.46875 -38.875 L 11.953125 -38.875 L 13.015625 -13.171875 C 13.085938 -11.117188 13.003906 -9.269531 12.765625 -7.625 C 12.535156 -5.976562 11.988281 -4.566406 11.125 -3.390625 C 10.257812 -2.222656 8.929688 -1.320312 7.140625 -0.6875 C 5.359375 -0.0507812 2.976562 0.265625 0 0.265625 Z M 0 0.265625 "/></g></g></g><g fill="#ffffff" fill-opacity="1"><g transform="translate(244.984766, 134.903251)"><g><path d="M 4.25 0 L 3.140625 -38.875 L 10.5625 -38.875 L 11.6875 0 Z M 4.25 0 "/></g></g></g><g fill="#ffffff" fill-opacity="1"><g transform="translate(72.689669, 208.907679)"><g><path d="M 29.53125 0.265625 C 26.875 0.265625 24.609375 -0.0859375 22.734375 -0.796875 C 20.859375 -1.503906 19.441406 -2.707031 18.484375 -4.40625 C 16.253906 -3.976562 14.109375 -3.84375 12.046875 -4 C 9.992188 -4.164062 8.171875 -4.609375 6.578125 -5.328125 C 4.992188 -6.054688 3.738281 -7.101562 2.8125 -8.46875 C 1.894531 -9.832031 1.4375 -11.523438 1.4375 -13.546875 C 1.4375 -15.910156 2.082031 -17.988281 3.375 -19.78125 C 4.664062 -21.570312 6.4375 -23.085938 8.6875 -24.328125 C 10.9375 -25.566406 13.472656 -26.519531 16.296875 -27.1875 L 16.140625 -31.234375 L 23.640625 -31.234375 L 24.53125 -12.421875 C 24.644531 -10.234375 25.132812 -8.8125 26 -8.15625 C 26.863281 -7.5 28.21875 -7.171875 30.0625 -7.171875 C 31.40625 -7.171875 32.359375 -6.820312 32.921875 -6.125 C 33.492188 -5.4375 33.78125 -4.582031 33.78125 -3.5625 C 33.78125 -2.457031 33.414062 -1.539062 32.6875 -0.8125 C 31.957031 -0.09375 30.90625 0.265625 29.53125 0.265625 Z M 8.875 -14.234375 C 8.875 -13.421875 9.269531 -12.78125 10.0625 -12.3125 C 10.863281 -11.851562 11.882812 -11.5625 13.125 -11.4375 C 14.363281 -11.320312 15.65625 -11.382812 17 -11.625 L 16.671875 -19.8125 C 14.265625 -19.414062 12.363281 -18.703125 10.96875 -17.671875 C 9.570312 -16.648438 8.875 -15.503906 8.875 -14.234375 Z M 10.78125 -36.75 C 9.757812 -36.75 8.882812 -37.109375 8.15625 -37.828125 C 7.425781 -38.554688 7.0625 -39.414062 7.0625 -40.40625 C 7.0625 -41.4375 7.425781 -42.320312 8.15625 -43.0625 C 8.882812 -43.8125 9.757812 -44.1875 10.78125 -44.1875 C 11.769531 -44.1875 12.617188 -43.8125 13.328125 -43.0625 C 14.035156 -42.320312 14.390625 -41.4375 14.390625 -40.40625 C 14.390625 -39.414062 14.035156 -38.554688 13.328125 -37.828125 C 12.617188 -37.109375 11.769531 -36.75 10.78125 -36.75 Z M 19.96875 -36.6875 C 18.945312 -36.6875 18.070312 -37.039062 17.34375 -37.75 C 16.613281 -38.457031 16.25 -39.328125 16.25 -40.359375 C 16.25 -41.378906 16.613281 -42.257812 17.34375 -43 C 18.070312 -43.75 18.945312 -44.125 19.96875 -44.125 C 20.957031 -44.125 21.804688 -43.75 22.515625 -43 C 23.222656 -42.257812 23.578125 -41.378906 23.578125 -40.359375 C 23.578125 -39.328125 23.222656 -38.457031 22.515625 -37.75 C 21.804688 -37.039062 20.957031 -36.6875 19.96875 -36.6875 Z M 19.96875 -36.6875 "/></g></g></g><g fill="#ffffff" fill-opacity="1"><g transform="translate(102.218531, 208.907679)"><g><path d="M 0 0.265625 L 0.53125 -7.171875 C 1.800781 -7.171875 2.894531 -7.289062 3.8125 -7.53125 C 4.738281 -7.78125 5.519531 -8.285156 6.15625 -9.046875 C 6.789062 -9.816406 7.328125 -10.941406 7.765625 -12.421875 C 8.210938 -13.910156 8.613281 -15.894531 8.96875 -18.375 L 15.9375 -17.203125 C 15.789062 -16.390625 15.628906 -15.414062 15.453125 -14.28125 C 15.273438 -13.15625 15.1875 -12.113281 15.1875 -11.15625 C 15.1875 -9.875 15.71875 -8.890625 16.78125 -8.203125 C 17.84375 -7.515625 19.664062 -7.171875 22.25 -7.171875 C 23.5625 -7.171875 24.507812 -6.820312 25.09375 -6.125 C 25.675781 -5.4375 25.96875 -4.582031 25.96875 -3.5625 C 25.96875 -2.457031 25.601562 -1.539062 24.875 -0.8125 C 24.15625 -0.09375 23.101562 0.265625 21.71875 0.265625 C 19.238281 0.265625 17.125 -0.0507812 15.375 -0.6875 C 13.625 -1.320312 12.34375 -2.457031 11.53125 -4.09375 C 10.570312 -2.8125 9.445312 -1.859375 8.15625 -1.234375 C 6.863281 -0.617188 5.515625 -0.210938 4.109375 -0.015625 C 2.710938 0.171875 1.34375 0.265625 0 0.265625 Z M 14.8125 12.59375 C 13.789062 12.59375 12.914062 12.238281 12.1875 11.53125 C 11.457031 10.820312 11.09375 9.953125 11.09375 8.921875 C 11.09375 7.890625 11.457031 7.003906 12.1875 6.265625 C 12.914062 5.523438 13.789062 5.15625 14.8125 5.15625 C 15.800781 5.15625 16.648438 5.523438 17.359375 6.265625 C 18.066406 7.003906 18.421875 7.890625 18.421875 8.921875 C 18.421875 9.953125 18.066406 10.820312 17.359375 11.53125 C 16.648438 12.238281 15.800781 12.59375 14.8125 12.59375 Z M 5.625 12.59375 C 4.601562 12.59375 3.726562 12.238281 3 11.53125 C 2.269531 10.820312 1.90625 9.953125 1.90625 8.921875 C 1.90625 7.890625 2.269531 7.003906 3 6.265625 C 3.726562 5.523438 4.601562 5.15625 5.625 5.15625 C 6.613281 5.15625 7.460938 5.523438 8.171875 6.265625 C 8.878906 7.003906 9.234375 7.890625 9.234375 8.921875 C 9.234375 9.953125 8.878906 10.820312 8.171875 11.53125 C 7.460938 12.238281 6.613281 12.59375 5.625 12.59375 Z M 5.625 12.59375 "/></g></g></g><g fill="#ffffff" fill-opacity="1"><g transform="translate(123.940296, 208.907679)"><g><path d="M 0 0.265625 L 0.53125 -7.171875 C 1.3125 -7.171875 2 -7.375 2.59375 -7.78125 C 3.195312 -8.1875 3.816406 -8.867188 4.453125 -9.828125 C 5.097656 -10.785156 5.84375 -12.113281 6.6875 -13.8125 C 8.28125 -17 9.972656 -19.179688 11.765625 -20.359375 C 13.554688 -21.546875 15.390625 -22.140625 17.265625 -22.140625 C 19.347656 -22.140625 21.222656 -21.554688 22.890625 -20.390625 C 24.554688 -19.222656 25.863281 -17.707031 26.8125 -15.84375 C 27.769531 -13.988281 28.25 -12.019531 28.25 -9.9375 C 28.25 -8.050781 27.847656 -6.359375 27.046875 -4.859375 C 26.253906 -3.359375 25.160156 -2.171875 23.765625 -1.296875 C 22.367188 -0.429688 20.765625 0 18.953125 0 C 17.609375 0 16.066406 -0.191406 14.328125 -0.578125 C 12.597656 -0.972656 10.78125 -1.789062 8.875 -3.03125 C 7.769531 -1.789062 6.546875 -0.929688 5.203125 -0.453125 C 3.859375 0.0234375 2.125 0.265625 0 0.265625 Z M 17.046875 -14.71875 C 16.023438 -14.71875 15.210938 -14.203125 14.609375 -13.171875 C 14.003906 -12.140625 13.296875 -10.773438 12.484375 -9.078125 C 13.578125 -8.515625 14.59375 -8.097656 15.53125 -7.828125 C 16.46875 -7.566406 17.273438 -7.4375 17.953125 -7.4375 C 19.015625 -7.4375 19.789062 -7.59375 20.28125 -7.90625 C 20.78125 -8.226562 21.03125 -8.796875 21.03125 -9.609375 C 21.03125 -10.359375 20.851562 -11.117188 20.5 -11.890625 C 20.144531 -12.671875 19.664062 -13.335938 19.0625 -13.890625 C 18.457031 -14.441406 17.785156 -14.71875 17.046875 -14.71875 Z M 17.046875 -14.71875 "/></g></g></g><g fill="#ffffff" fill-opacity="1"><g transform="translate(154.850003, 208.907679)"><g><path d="M 7.546875 0.265625 C 6.585938 0.265625 5.617188 0.179688 4.640625 0.015625 C 3.671875 -0.140625 2.992188 -0.25 2.609375 -0.3125 L 3.609375 -8.015625 C 6.160156 -7.660156 8.640625 -7.597656 11.046875 -7.828125 C 13.453125 -8.054688 15.578125 -8.703125 17.421875 -9.765625 C 15.972656 -11.890625 13.953125 -14.421875 11.359375 -17.359375 C 8.773438 -20.304688 5.695312 -23.441406 2.125 -26.765625 L 6.75 -31.8125 C 9.863281 -28.832031 12.425781 -26.304688 14.4375 -24.234375 C 16.457031 -22.171875 18.078125 -20.429688 19.296875 -19.015625 C 20.523438 -17.597656 21.492188 -16.375 22.203125 -15.34375 C 22.804688 -16.90625 23.109375 -18.660156 23.109375 -20.609375 L 22.40625 -38.875 L 29.84375 -38.875 L 30.96875 -12.90625 C 31.03125 -11.28125 31.203125 -10.054688 31.484375 -9.234375 C 31.773438 -8.421875 32.316406 -7.875 33.109375 -7.59375 C 33.910156 -7.3125 35.085938 -7.171875 36.640625 -7.171875 C 37.984375 -7.171875 38.945312 -6.820312 39.53125 -6.125 C 40.125 -5.4375 40.421875 -4.582031 40.421875 -3.5625 C 40.421875 -2.457031 40.046875 -1.539062 39.296875 -0.8125 C 38.554688 -0.09375 37.492188 0.265625 36.109375 0.265625 C 33.316406 0.265625 31.078125 0.0234375 29.390625 -0.453125 C 27.710938 -0.929688 26.4375 -1.675781 25.5625 -2.6875 C 24.695312 -3.695312 24.125 -4.960938 23.84375 -6.484375 C 22.851562 -4.921875 21.664062 -3.675781 20.28125 -2.75 C 18.90625 -1.832031 17.457031 -1.160156 15.9375 -0.734375 C 14.414062 -0.316406 12.925781 -0.046875 11.46875 0.078125 C 10.019531 0.203125 8.710938 0.265625 7.546875 0.265625 Z M 7.546875 0.265625 "/></g></g></g><g fill="#ffffff" fill-opacity="1"><g transform="translate(191.017547, 208.907679)"><g><path d="M 0 0.265625 L 0.53125 -7.171875 C 1.695312 -7.171875 2.648438 -7.265625 3.390625 -7.453125 C 4.140625 -7.648438 4.753906 -8.09375 5.234375 -8.78125 C 5.710938 -9.476562 6.132812 -10.523438 6.5 -11.921875 C 6.875 -13.316406 7.289062 -15.21875 7.75 -17.625 L 14.65625 -16.359375 C 14.519531 -15.578125 14.332031 -14.601562 14.09375 -13.4375 C 13.863281 -12.269531 13.75 -11.257812 13.75 -10.40625 C 13.75 -9.414062 14.066406 -8.628906 14.703125 -8.046875 C 15.347656 -7.460938 16.554688 -7.171875 18.328125 -7.171875 C 19.210938 -7.171875 19.976562 -7.265625 20.625 -7.453125 C 21.28125 -7.648438 21.847656 -8.09375 22.328125 -8.78125 C 22.804688 -9.476562 23.234375 -10.5625 23.609375 -12.03125 C 23.984375 -13.5 24.347656 -15.488281 24.703125 -18 L 31.703125 -16.890625 C 31.492188 -15.648438 31.28125 -14.335938 31.0625 -12.953125 C 30.851562 -11.578125 30.75 -10.535156 30.75 -9.828125 C 30.75 -9.148438 31.078125 -8.535156 31.734375 -7.984375 C 32.390625 -7.441406 33.726562 -7.171875 35.75 -7.171875 C 37.15625 -7.171875 38.273438 -7.453125 39.109375 -8.015625 C 39.941406 -8.585938 40.359375 -9.582031 40.359375 -11 C 40.359375 -12.300781 40.054688 -14.015625 39.453125 -16.140625 C 38.859375 -18.265625 38.148438 -20.5 37.328125 -22.84375 L 44.828125 -25.0625 C 45.390625 -23.539062 45.890625 -21.921875 46.328125 -20.203125 C 46.773438 -18.484375 47.128906 -16.8125 47.390625 -15.1875 C 47.660156 -13.5625 47.796875 -12.164062 47.796875 -11 C 47.796875 -7.34375 46.722656 -4.550781 44.578125 -2.625 C 42.441406 -0.695312 39.65625 0.265625 36.21875 0.265625 C 33.738281 0.265625 31.804688 -0.0234375 30.421875 -0.609375 C 29.046875 -1.191406 28.054688 -2.242188 27.453125 -3.765625 C 26.742188 -2.523438 25.972656 -1.625 25.140625 -1.0625 C 24.316406 -0.5 23.335938 -0.140625 22.203125 0.015625 C 21.066406 0.179688 19.71875 0.265625 18.15625 0.265625 C 17.207031 0.265625 16.253906 0.179688 15.296875 0.015625 C 14.335938 -0.140625 13.425781 -0.472656 12.5625 -0.984375 C 11.695312 -1.492188 10.941406 -2.316406 10.296875 -3.453125 C 9.097656 -1.828125 7.628906 -0.800781 5.890625 -0.375 C 4.160156 0.0507812 2.195312 0.265625 0 0.265625 Z M 0 0.265625 "/></g></g></g><g fill="#ffffff" fill-opacity="1"><g transform="translate(241.47154, 208.907679)"><g><path d="M 20.921875 -28.46875 C 20.921875 -30.238281 20.785156 -31.984375 20.515625 -33.703125 C 20.253906 -35.421875 20.019531 -36.863281 19.8125 -38.03125 L 27.25 -39.09375 C 27.351562 -38.382812 27.484375 -37.441406 27.640625 -36.265625 C 27.796875 -35.097656 27.925781 -33.867188 28.03125 -32.578125 C 28.144531 -31.285156 28.203125 -30.054688 28.203125 -28.890625 C 28.203125 -24.679688 27.332031 -20.960938 25.59375 -17.734375 C 27.644531 -15.578125 29.015625 -13.679688 29.703125 -12.046875 C 30.398438 -10.421875 30.75 -9.007812 30.75 -7.8125 C 30.75 -6.425781 30.457031 -5.140625 29.875 -3.953125 C 29.289062 -2.765625 28.34375 -1.804688 27.03125 -1.078125 C 25.71875 -0.359375 23.96875 0 21.78125 0 L 6.15625 0 L 6.15625 -7.109375 C 10.832031 -10.472656 14.335938 -13.660156 16.671875 -16.671875 C 14.765625 -18.234375 12.570312 -19.898438 10.09375 -21.671875 C 7.613281 -23.441406 4.957031 -25.210938 2.125 -26.984375 L 6 -32.65625 C 8.976562 -30.820312 11.625 -29.085938 13.9375 -27.453125 C 16.257812 -25.828125 18.285156 -24.289062 20.015625 -22.84375 C 20.617188 -24.613281 20.921875 -26.488281 20.921875 -28.46875 Z M 15.71875 -7.171875 L 19.171875 -7.171875 C 20.972656 -7.171875 22.15625 -7.328125 22.71875 -7.640625 C 23.289062 -7.960938 23.578125 -8.390625 23.578125 -8.921875 C 23.578125 -9.628906 22.90625 -10.707031 21.5625 -12.15625 C 19.96875 -10.457031 18.019531 -8.796875 15.71875 -7.171875 Z M 5.421875 16.421875 L 4.515625 12.703125 C 5.648438 12.484375 6.550781 12.304688 7.21875 12.171875 C 6.582031 11.710938 6.035156 11.109375 5.578125 10.359375 C 5.117188 9.617188 4.890625 8.804688 4.890625 7.921875 C 4.890625 6.648438 5.171875 5.625 5.734375 4.84375 C 6.296875 4.0625 7.019531 3.492188 7.90625 3.140625 C 8.789062 2.785156 9.710938 2.609375 10.671875 2.609375 C 11.703125 2.609375 12.640625 2.75 13.484375 3.03125 L 13.0625 6.859375 C 12.707031 6.785156 12.351562 6.710938 12 6.640625 C 11.644531 6.578125 11.253906 6.546875 10.828125 6.546875 C 10.335938 6.546875 9.914062 6.691406 9.5625 6.984375 C 9.207031 7.285156 9.03125 7.648438 9.03125 8.078125 C 9.03125 8.785156 9.320312 9.394531 9.90625 9.90625 C 10.488281 10.425781 11.082031 10.789062 11.6875 11 C 12.8125 10.675781 13.851562 10.320312 14.8125 9.9375 L 15.875 13.5 C 14.53125 13.988281 12.894531 14.507812 10.96875 15.0625 C 9.039062 15.613281 7.191406 16.066406 5.421875 16.421875 Z M 5.421875 16.421875 "/></g></g></g><g fill="#ffffff" fill-opacity="1"><g transform="translate(275.036732, 208.907679)"><g><path d="M 4.25 0 L 3.140625 -38.875 L 10.5625 -38.875 L 11.6875 0 Z M 4.25 0 "/></g></g></g><g fill="#ffffff" fill-opacity="1"><g transform="translate(289.540091, 208.907679)"><g/></g></g></svg>