<?xml version="1.0" encoding="utf-8"?>
<!-- Generator: Adobe Illustrator 23.0.5, SVG Export Plug-In . SVG Version: 6.00 Build 0)  -->
<svg version="1.1" id="Calque_1" xmlns="http://www.w3.org/2000/svg" xmlns:xlink="http://www.w3.org/1999/xlink" x="0px" y="0px"
	 viewBox="0 0 324.77 474.03" style="enable-background:new 0 0 324.77 474.03;" xml:space="preserve">
<style type="text/css">
	.st0{fill:#E0E0DE;}
	.st1{fill:#555DA7;}
	.st2{clip-path:url(#XMLID_3_);fill:#EA6535;}
	.st3{fill:#F18960;}
	.st4{fill:#010202;}
	.st5{fill:#D3D3D1;}
	.st6{fill:#F5A682;}
	.st7{fill:#FFFFFF;}
	.st8{fill:none;stroke:#B17F4A;stroke-width:13;stroke-miterlimit:10;}
</style>
<path class="st0" d="M278.28,474.03H51.67c-0.83,0-1.5-0.67-1.5-1.5V354.85c0-31.3,25.37-56.67,56.67-56.67h116.27
	c31.3,0,56.67,25.37,56.67,56.67v117.68C279.78,473.36,279.11,474.03,278.28,474.03z"/>
<rect x="108.19" y="329.36" class="st1" width="124.16" height="144.67"/>
<g>
	<defs>
		<path id="XMLID_1_" d="M167.37,362.11L167.37,362.11c-23.29,0-42.17-18.88-42.17-42.17V218.3c0-23.29,18.88-42.17,42.17-42.17h0
			c23.29,0,42.17,18.88,42.17,42.17v101.64C209.54,343.23,190.66,362.11,167.37,362.11z"/>
	</defs>
	<use xlink:href="#XMLID_1_"  style="overflow:visible;fill:#F18960;"/>
	<clipPath id="XMLID_3_">
		<use xlink:href="#XMLID_1_"  style="overflow:visible;"/>
	</clipPath>
	<path class="st2" d="M170.58,320.26h-6.42c-38.3,0-69.34-31.05-69.34-69.34V78.46c0-38.3,31.05-69.34,69.34-69.34h6.43
		c38.29,0,69.32,31.04,69.32,69.32v172.47C239.92,289.21,208.87,320.26,170.58,320.26z"/>
</g>
<path class="st3" d="M262.84,221.86H71.9c-10.68,0-19.33-8.66-19.33-19.33v-20.19c0-10.68,8.66-19.33,19.33-19.33h190.94
	c10.68,0,19.33,8.66,19.33,19.33v20.19C282.18,213.2,273.52,221.86,262.84,221.86z"/>
<path class="st4" d="M257.18,193.81H79c-12.22,0-22.12-9.9-22.12-22.12v-49.41c0-21.44,17.38-38.82,38.82-38.82h144.77
	c21.44,0,38.82,17.38,38.82,38.82v49.41C279.3,183.91,269.39,193.81,257.18,193.81z"/>
<path class="st5" d="M225.46,283.42h4.97c11.91,0,21.56,9.65,21.56,21.56v169.05h-48.1V304.98
	C203.9,293.07,213.56,283.42,225.46,283.42z"/>
<path class="st5" d="M105.34,283.42h5.69c12.07,0,21.85,9.78,21.85,21.85v168.76h-49.4V305.27
	C83.49,293.2,93.27,283.42,105.34,283.42z"/>
<path class="st6" d="M189.13,304.26h-42.09c-39.88,0-72.2-32.33-72.2-72.2V114c0-39.88,32.33-72.2,72.2-72.2h42.11
	c39.87,0,72.18,32.32,72.18,72.18v118.07C261.33,271.93,229.01,304.26,189.13,304.26z"/>
<g>
	<path class="st4" d="M194.8,264.76l-45.83-34.49c-9.23-6.95-10.75-19.73-3.4-28.56l4.18-5.02c7.35-8.83,20.79-10.35,30.02-3.41
		l45.83,34.49c9.23,6.95,10.75,19.73,3.4,28.56l-4.18,5.02C217.47,270.18,204.03,271.71,194.8,264.76z"/>
	<path class="st4" d="M143.83,267.93l41.21-39.9c8.3-8.03,8.22-20.91-0.16-28.76l-4.77-4.47c-8.39-7.85-21.91-7.7-30.21,0.33
		l-41.21,39.9c-8.3,8.03-8.22,20.91,0.16,28.76l4.77,4.47C122.01,276.11,135.53,275.96,143.83,267.93z"/>
</g>
<path class="st6" d="M173.69,230.63h-12.63c-7.76,0-14.05-6.29-14.05-14.05v-23.95c0-7.76,6.29-14.05,14.05-14.05h12.63
	c7.76,0,14.05,6.29,14.05,14.05v23.95C187.73,224.35,181.44,230.63,173.69,230.63z"/>
<path class="st7" d="M130.63,191.76h-7.62c-12.59,0-22.79-10.21-22.79-22.79v-8.69c0-3.31,2.68-5.99,5.99-5.99h41.23
	c3.31,0,5.99,2.68,5.99,5.99v8.69C153.43,181.55,143.22,191.76,130.63,191.76z"/>
<path class="st4" d="M128.44,181.29h-5.05c-5.91,0-10.7-4.79-10.7-10.7v-16.3h26.45v16.3C139.14,176.5,134.35,181.29,128.44,181.29z
	"/>
<path class="st7" d="M214.98,191.76h-7.62c-12.59,0-22.79-10.21-22.79-22.79v-8.69c0-3.31,2.68-5.99,5.99-5.99h41.23
	c3.31,0,5.99,2.68,5.99,5.99v8.69C237.77,181.55,227.57,191.76,214.98,191.76z"/>
<path class="st4" d="M211.51,181.29h-2.5c-6.61,0-11.98-5.36-11.98-11.98v-15.02h26.45v15.02
	C223.49,175.93,218.12,181.29,211.51,181.29z"/>
<path class="st8" d="M232.35,79.69"/>
<path class="st4" d="M99.76,129.85l55.47-12.99c2.99-0.7,4.85-3.69,4.15-6.68l-2.07-8.83c-0.7-2.99-3.69-4.85-6.68-4.15
	l-55.47,12.99c-2.99,0.7-4.85,3.69-4.15,6.68l2.07,8.83C93.78,128.69,96.77,130.55,99.76,129.85z"/>
<path class="st4" d="M234.98,145.46l-55.47-12.99c-2.99-0.7-4.85-3.69-4.15-6.68l2.07-8.83c0.7-2.99,3.69-4.85,6.68-4.15
	l55.47,12.99c2.99,0.7,4.85,3.69,4.15,6.68l-2.07,8.83C240.96,144.31,237.97,146.16,234.98,145.46z"/>
</svg>
