<svg xmlns="http://www.w3.org/2000/svg" xmlns:xlink="http://www.w3.org/1999/xlink" width="500" zoomAndPan="magnify" viewBox="0 0 375 374.999991" height="500" preserveAspectRatio="xMidYMid meet" version="1.0"><path fill="#0830ff" d="M 306.132812 144.171875 C 305.964844 143.894531 305.742188 143.671875 305.574219 143.394531 C 301.90625 138.726562 295.738281 136.167969 289.902344 136.835938 C 283.457031 137.558594 278.675781 140.726562 276.121094 142.558594 C 276.121094 142.558594 260.390625 153.730469 234.65625 164.457031 C 230.265625 166.292969 229.542969 165.570312 229.378906 165.347656 C 229.210938 165.125 229.15625 164.792969 229.324219 164.347656 C 232.492188 153.398438 235.9375 142.449219 237.992188 131.277344 C 240.492188 118.882812 242.050781 106.324219 242.660156 93.707031 C 242.996094 87.316406 242.9375 80.535156 239.546875 75.144531 C 234.269531 66.695312 220.761719 65.140625 213.648438 72.144531 C 209.203125 76.535156 207.589844 82.980469 206.257812 89.09375 C 204.535156 96.875 202.921875 104.710938 201.476562 112.546875 C 200.753906 116.492188 200.199219 120.496094 199.699219 124.496094 C 199.03125 129.777344 198.753906 133.222656 197.421875 133.5 C 196.921875 133.613281 196.03125 133.445312 194.585938 130.945312 C 193.085938 128.386719 191.640625 125.832031 190.085938 123.332031 C 187.25 118.660156 184.304688 114.105469 181.191406 109.65625 C 175.023438 100.710938 168.242188 92.152344 160.90625 84.035156 C 156.570312 79.199219 151.789062 74.421875 145.734375 72.199219 C 140.84375 70.417969 134.949219 70.753906 130.726562 73.921875 C 126.226562 77.199219 122.335938 80.035156 122.777344 86.316406 C 123.058594 90.207031 124.835938 93.875 126.613281 97.375 C 129.894531 103.65625 133.503906 109.824219 137.394531 115.773438 C 137.453125 115.882812 139.898438 119.441406 144.675781 126.5 C 148.179688 131.613281 151.066406 135.890625 150.566406 136.28125 C 150.347656 136.445312 149.789062 135.613281 148.066406 134.78125 C 146.398438 134 144.789062 133.222656 143.121094 132.554688 C 139.785156 131.222656 136.394531 130 132.949219 128.886719 C 126.113281 126.609375 119.109375 124.773438 112.050781 123.332031 C 107.71875 122.441406 103.382812 121.71875 99.046875 121.164062 C 93.824219 120.496094 88.320312 120.050781 83.429688 121.996094 C 77.871094 124.21875 73.648438 129.554688 72.757812 135.5 C 71.925781 141.449219 74.425781 147.730469 79.148438 151.453125 C 82.875 154.34375 87.597656 155.621094 92.15625 156.84375 C 107.882812 161.179688 123.277344 166.570312 138.285156 173.074219 C 136.953125 172.515625 131.339844 175.40625 129.894531 175.90625 C 126.835938 177.019531 123.835938 178.1875 120.832031 179.410156 C 114.832031 181.855469 108.941406 184.578125 103.214844 187.523438 C 92.488281 193.023438 79.648438 199.359375 71.648438 208.644531 C 65.8125 215.480469 64.644531 225.484375 70.648438 232.652344 C 74.535156 237.265625 80.871094 239.710938 86.820312 238.820312 C 92.042969 238.042969 96.65625 234.988281 101.160156 232.207031 C 112.609375 225.09375 124.78125 219.148438 137.453125 214.476562 C 141.675781 212.921875 145.621094 209.753906 147.121094 211.144531 C 148.679688 212.589844 146.175781 217.589844 145.289062 219.480469 C 134.0625 242.824219 132.28125 273.28125 132.003906 276.226562 C 131.117188 284.953125 131.003906 294.679688 136.671875 301.347656 C 143.898438 309.851562 159.570312 308.460938 165.183594 298.789062 C 167.574219 294.679688 168.1875 289.785156 168.851562 285.0625 C 170.964844 270.167969 172.910156 262.71875 172.910156 262.71875 C 176.023438 244.046875 176.800781 240.765625 178.300781 240.65625 C 179.800781 240.488281 180.523438 243.710938 185.804688 253.382812 C 187.136719 255.882812 189.972656 260.996094 193.976562 267.167969 C 199.699219 276.058594 206.035156 284.453125 213.039062 292.398438 C 217.652344 297.625 222.988281 302.902344 229.878906 304.183594 C 239.9375 305.960938 250.386719 296.511719 249.609375 286.339844 C 249.273438 282.339844 248.273438 279.449219 245.328125 274.335938 C 239.328125 263.941406 223.265625 242.710938 222.707031 240.15625 C 222.707031 240.15625 222.707031 240.101562 222.707031 240.042969 C 223.152344 239.042969 234.824219 244.269531 248.441406 248.492188 C 251.277344 249.382812 261.945312 252.160156 275.839844 254.382812 C 281.066406 255.21875 286.625 255.828125 291.625 253.996094 C 301.460938 250.328125 305.464844 236.210938 298.90625 227.984375 C 295.515625 223.703125 291.402344 221.425781 284.234375 219.035156 C 254.386719 209.199219 239.382812 207.863281 239.105469 204.195312 C 238.882812 201.417969 247.441406 200.304688 266.671875 191.359375 C 267.78125 190.859375 279.675781 184.742188 294.015625 175.296875 C 299.90625 171.40625 306.019531 166.847656 308.410156 160.179688 C 310.1875 154.953125 309.355469 148.785156 306.132812 144.171875 Z M 306.132812 144.171875 " fill-opacity="1" fill-rule="nonzero"/><path fill="#0830ff" d="M 149.734375 308.351562 C 144.121094 308.351562 138.953125 306.128906 135.617188 302.238281 C 129.613281 295.121094 129.726562 285.007812 130.617188 276.058594 C 130.617188 275.890625 130.671875 275.613281 130.671875 275.167969 C 132.449219 253.050781 137.171875 233.042969 144.011719 218.8125 L 144.175781 218.480469 C 146.398438 213.757812 146.34375 212.476562 146.175781 212.089844 C 145.566406 211.976562 143.621094 212.976562 142.285156 213.699219 C 140.953125 214.367188 139.453125 215.144531 137.953125 215.703125 C 125.390625 220.3125 113.273438 226.261719 101.9375 233.320312 L 100.9375 233.929688 C 96.65625 236.597656 92.210938 239.378906 87.042969 240.101562 C 80.652344 241.042969 73.816406 238.433594 69.589844 233.429688 C 63.476562 226.09375 63.867188 215.480469 70.589844 207.640625 C 78.425781 198.582031 90.488281 192.359375 101.160156 186.910156 L 102.546875 186.1875 C 108.382812 183.1875 114.332031 180.464844 120.277344 178.019531 C 123.5 176.742188 126.445312 175.574219 129.394531 174.519531 C 129.726562 174.40625 130.394531 174.128906 131.117188 173.796875 C 132.117188 173.351562 133.0625 172.960938 133.839844 172.628906 C 120.277344 166.960938 106.160156 162.066406 91.765625 158.121094 C 87.320312 156.898438 82.261719 155.566406 78.261719 152.507812 C 73.148438 148.507812 70.425781 141.726562 71.367188 135.28125 C 72.3125 128.832031 76.871094 123.109375 82.875 120.664062 C 88.152344 118.550781 94.046875 119.105469 99.15625 119.71875 C 103.492188 120.273438 107.941406 120.996094 112.273438 121.886719 C 119.609375 123.386719 126.667969 125.277344 133.339844 127.5 C 136.785156 128.609375 140.230469 129.832031 143.566406 131.222656 C 144.789062 131.722656 146.011719 132.277344 147.234375 132.835938 C 146.066406 131 144.566406 128.832031 143.453125 127.21875 C 140.898438 123.441406 139.007812 120.664062 137.785156 118.882812 C 136.5625 117.050781 136.230469 116.605469 136.117188 116.4375 C 132.226562 110.492188 128.558594 104.265625 125.28125 97.929688 C 123.335938 94.097656 121.554688 90.371094 121.277344 86.316406 C 120.777344 79.257812 125.167969 76.089844 129.78125 72.699219 C 134.117188 69.476562 140.339844 68.695312 146.066406 70.808594 C 152.625 73.199219 157.625 78.367188 161.792969 83.035156 C 169.132812 91.207031 176.023438 99.875 182.191406 108.824219 C 185.191406 113.105469 188.140625 117.605469 191.140625 122.550781 C 192.25 124.332031 193.363281 126.21875 194.417969 128.054688 C 194.808594 128.777344 195.253906 129.5 195.640625 130.222656 C 196.253906 131.277344 196.699219 131.777344 196.921875 131.945312 C 197.363281 131 197.699219 128.277344 197.976562 125.832031 L 198.144531 124.273438 C 198.753906 119.382812 199.308594 115.660156 199.921875 112.269531 C 201.3125 104.824219 202.921875 96.929688 204.703125 88.761719 C 206.144531 82.089844 207.871094 75.699219 212.480469 71.140625 C 216.148438 67.53125 221.652344 65.808594 227.320312 66.472656 C 232.992188 67.140625 237.824219 70.03125 240.550781 74.421875 C 244.21875 80.3125 244.21875 87.480469 243.882812 93.816406 C 243.273438 106.488281 241.714844 119.21875 239.214844 131.613281 C 237.492188 141.058594 234.714844 150.453125 232.046875 159.511719 C 231.601562 161.125 231.101562 162.679688 230.65625 164.292969 C 231.210938 164.179688 232.269531 163.957031 233.992188 163.234375 C 259.277344 152.675781 275.007812 141.617188 275.175781 141.503906 C 278.230469 139.28125 283.121094 136.28125 289.625 135.558594 C 295.960938 134.835938 302.574219 137.613281 306.519531 142.617188 L 306.632812 142.78125 C 306.6875 142.894531 306.742188 142.949219 306.796875 143.058594 C 306.910156 143.171875 307.019531 143.339844 307.132812 143.5625 C 310.578125 148.507812 311.523438 155.066406 309.578125 160.789062 C 307.019531 168.015625 300.519531 172.738281 294.625 176.628906 C 280.121094 186.1875 268.28125 192.246094 267.058594 192.804688 C 258.777344 196.636719 252.554688 199.027344 247.996094 200.75 C 244.273438 202.195312 240.773438 203.53125 240.328125 204.253906 C 240.773438 205.476562 247.71875 207.308594 254.5 209.085938 C 261.835938 211.03125 271.839844 213.699219 284.511719 217.867188 C 292.402344 220.480469 296.40625 222.980469 299.851562 227.261719 C 303.1875 231.429688 304.242188 237.375 302.628906 243.15625 C 301.019531 248.992188 297.015625 253.550781 291.960938 255.441406 C 286.511719 257.441406 280.621094 256.71875 275.453125 255.882812 C 261.003906 253.550781 250.441406 250.769531 247.828125 249.9375 C 241.714844 248.046875 236.046875 245.9375 231.433594 244.269531 C 229.042969 243.378906 226.65625 242.488281 224.933594 241.933594 C 226.597656 244.601562 229.824219 249.269531 232.824219 253.496094 C 237.714844 260.496094 243.273438 268.445312 246.328125 273.726562 C 249.332031 278.949219 250.441406 282.007812 250.777344 286.285156 C 251.164062 291.511719 248.832031 296.902344 244.550781 300.847656 C 240.214844 304.738281 234.601562 306.570312 229.433594 305.625 C 222.265625 304.292969 216.707031 298.957031 211.816406 293.398438 C 204.8125 285.453125 198.367188 276.894531 192.640625 268 C 188.582031 261.777344 185.75 256.605469 184.414062 254.105469 C 182.527344 250.660156 181.191406 247.992188 180.246094 246.046875 C 179.414062 244.378906 178.691406 242.933594 178.246094 242.324219 C 177.300781 244.15625 175.910156 252.160156 174.078125 263 L 174.078125 263.109375 C 174.078125 263.164062 172.132812 270.667969 170.074219 285.285156 L 170.019531 285.839844 C 169.351562 290.507812 168.6875 295.34375 166.242188 299.511719 C 163.40625 304.460938 157.847656 307.738281 151.511719 308.292969 C 151.011719 308.351562 150.347656 308.351562 149.734375 308.351562 Z M 146.175781 209.421875 C 146.898438 209.421875 147.511719 209.644531 148.066406 210.144531 C 150.125 212.03125 148.457031 216.089844 146.675781 219.757812 L 146.511719 220.09375 C 139.785156 234.042969 135.171875 253.714844 133.449219 275.449219 C 133.394531 275.835938 133.394531 276.171875 133.394531 276.335938 C 132.5625 284.730469 132.394531 294.121094 137.730469 300.402344 C 140.84375 304.070312 145.953125 305.960938 151.402344 305.460938 C 156.847656 304.960938 161.574219 302.179688 163.960938 298.066406 C 166.128906 294.34375 166.742188 289.785156 167.351562 285.394531 L 167.410156 284.839844 C 169.410156 270.558594 171.296875 263.21875 171.464844 262.386719 C 172.964844 253.496094 173.964844 247.660156 174.800781 244.378906 C 175.46875 241.65625 176.191406 239.378906 178.136719 239.265625 C 180.023438 239.042969 180.859375 240.710938 182.859375 244.769531 C 183.804688 246.714844 185.136719 249.324219 186.972656 252.714844 C 188.304688 255.21875 191.085938 260.273438 195.085938 266.386719 C 200.753906 275.167969 207.148438 283.617188 214.039062 291.453125 C 218.597656 296.625 223.765625 301.625 230.101562 302.792969 C 234.378906 303.570312 239.160156 302.015625 242.882812 298.679688 C 246.550781 295.34375 248.550781 290.789062 248.21875 286.453125 C 247.886719 282.617188 246.941406 279.949219 244.105469 275.058594 C 241.105469 269.890625 235.601562 261.996094 230.765625 255.050781 C 224.320312 245.824219 221.652344 241.878906 221.375 240.488281 L 221.320312 240.324219 L 221.320312 239.765625 L 221.429688 239.488281 C 222.097656 237.988281 223.988281 238.597656 225.875 239.15625 C 227.542969 239.710938 229.878906 240.542969 232.601562 241.546875 C 237.160156 243.210938 242.773438 245.269531 248.832031 247.160156 C 252 248.160156 262.835938 250.882812 276.0625 252.996094 C 280.84375 253.773438 286.34375 254.4375 291.125 252.660156 C 295.347656 251.105469 298.683594 247.160156 300.074219 242.210938 C 301.40625 237.320312 300.574219 232.320312 297.792969 228.816406 C 294.738281 224.984375 291.070312 222.757812 283.789062 220.3125 C 271.171875 216.144531 261.222656 213.535156 253.945312 211.589844 C 242.660156 208.585938 237.9375 207.363281 237.714844 204.253906 C 237.492188 201.640625 240.328125 200.527344 247.164062 197.972656 C 251.664062 196.25 257.890625 193.914062 266.058594 190.078125 C 267.171875 189.578125 279.121094 183.410156 293.238281 174.128906 C 298.738281 170.515625 304.796875 166.070312 307.078125 159.679688 C 308.742188 154.84375 307.910156 149.175781 304.964844 144.949219 L 304.910156 144.894531 C 304.851562 144.785156 304.796875 144.726562 304.742188 144.617188 C 304.632812 144.503906 304.519531 144.339844 304.410156 144.171875 C 301.019531 139.949219 295.40625 137.558594 290.015625 138.167969 C 284.179688 138.835938 279.730469 141.617188 276.898438 143.617188 C 276.730469 143.726562 260.722656 155.011719 235.15625 165.679688 C 231.269531 167.292969 229.210938 167.402344 228.210938 166.125 C 227.765625 165.515625 227.65625 164.679688 227.933594 163.847656 C 228.433594 162.125 228.933594 160.34375 229.433594 158.621094 C 232.101562 149.617188 234.824219 140.28125 236.546875 130.945312 C 239.046875 118.660156 240.605469 106.101562 241.214844 93.539062 C 241.550781 87.648438 241.550781 80.980469 238.324219 75.8125 C 236.046875 72.199219 231.878906 69.695312 227.097656 69.140625 C 222.320312 68.585938 217.59375 70.03125 214.539062 73.03125 C 210.480469 77.035156 208.871094 83.035156 207.535156 89.316406 C 205.757812 97.429688 204.144531 105.324219 202.757812 112.714844 C 202.144531 116.105469 201.589844 119.71875 200.976562 124.609375 L 200.8125 126.164062 C 200.144531 131.445312 199.808594 134.335938 197.644531 134.835938 C 195.699219 135.28125 194.253906 133.222656 193.308594 131.613281 C 192.917969 130.890625 192.472656 130.167969 192.085938 129.445312 C 191.027344 127.664062 189.972656 125.777344 188.863281 123.996094 C 185.859375 119.105469 182.96875 114.660156 180.023438 110.378906 C 173.910156 101.542969 167.128906 92.929688 159.851562 84.871094 C 155.902344 80.480469 151.179688 75.589844 145.234375 73.421875 C 140.398438 71.640625 135.117188 72.253906 131.558594 74.976562 C 127.226562 78.144531 123.78125 80.644531 124.167969 86.148438 C 124.445312 89.648438 126.003906 92.984375 127.835938 96.652344 C 131.117188 102.878906 134.671875 109.046875 138.5625 114.9375 L 138.617188 114.992188 C 138.785156 115.214844 139.339844 116.105469 140.175781 117.273438 C 141.398438 119.050781 143.289062 121.828125 145.84375 125.609375 C 147.566406 128.109375 149.179688 130.5 150.347656 132.332031 C 151.734375 134.5 152.792969 136.28125 151.457031 137.28125 C 150.511719 138.003906 149.566406 137.28125 149.179688 137.003906 C 148.789062 136.722656 148.34375 136.335938 147.511719 135.945312 L 146.734375 135.558594 C 145.34375 134.890625 144.011719 134.277344 142.675781 133.722656 C 139.398438 132.390625 136.007812 131.167969 132.617188 130.109375 C 126.058594 127.941406 119.054688 126.054688 111.886719 124.609375 C 107.605469 123.71875 103.269531 122.996094 98.992188 122.441406 C 94.210938 121.828125 88.710938 121.328125 84.039062 123.164062 C 78.925781 125.21875 75.039062 130.109375 74.203125 135.558594 C 73.425781 141.058594 75.761719 146.785156 80.09375 150.230469 C 83.597656 152.953125 88.152344 154.175781 92.601562 155.34375 C 108.496094 159.734375 124.058594 165.179688 138.898438 171.628906 C 139.339844 172.015625 139.5625 172.628906 139.398438 173.183594 C 139.175781 173.851562 138.507812 174.238281 137.785156 174.183594 L 137.894531 174.238281 C 137.0625 174.128906 133.617188 175.683594 132.28125 176.242188 C 131.449219 176.628906 130.78125 176.90625 130.335938 177.074219 C 127.449219 178.128906 124.5 179.242188 121.332031 180.574219 C 115.5 182.964844 109.605469 185.6875 103.828125 188.632812 L 102.382812 189.355469 C 91.933594 194.691406 80.152344 200.75 72.648438 209.421875 C 66.8125 216.257812 66.421875 225.371094 71.648438 231.652344 C 75.257812 235.933594 81.09375 238.15625 86.542969 237.320312 C 91.097656 236.652344 95.324219 234.042969 99.378906 231.484375 L 100.382812 230.875 C 111.886719 223.703125 124.167969 217.703125 136.894531 213.035156 C 138.285156 212.535156 139.621094 211.8125 140.953125 211.144531 C 142.953125 210.308594 144.730469 209.421875 146.175781 209.421875 Z M 146.175781 209.421875 " fill-opacity="1" fill-rule="nonzero"/></svg>